<?xml version="1.0" encoding="UTF-8"?>
<svg width="205px" height="47px" viewBox="0 0 205 47" version="1.1" xmlns="http://www.w3.org/2000/svg" xmlns:xlink="http://www.w3.org/1999/xlink">
    <!-- Generator: Sketch 42 (36781) - http://www.bohemiancoding.com/sketch -->
    <title>Ebene_1</title>
    <desc>Created with Sketch.</desc>
    <defs></defs>
    <g id="Page-1" stroke="none" stroke-width="1" fill="none" fill-rule="evenodd">
        <g id="projects---with-space" transform="translate(-870.000000, -150.000000)" fill-rule="nonzero" fill="#FFFFFF">
            <g id="Bonativo-White" transform="translate(802.000000, 101.000000)">
                <g id="Ebene_1" transform="translate(68.000000, 49.000000)">
                    <g id="Group">
                        <path d="M8.1875,5.81315789 C-1.875,11.9355263 -2.625,23.8710526 5.75,25.7881579 C6.3125,25.9118421 8.625,26.0973684 10.125,24.4894737 C10.1875,24.4276316 10.25,24.3039474 10.25,24.1802632 C10.25,24.0565789 10.1875,23.9328947 10.0625,23.8710526 C9.125,23.1289474 6.75,20.9026316 7.625,16.8828947 C11.75,-2.90657895 47.875,3.27763158 34.6875,18.6144737 C31.8125,17.6868421 26.5,16.6355263 24.3125,18.6763158 L27.4375,8.71973684 C27.5625,8.41052632 27.5,8.03947368 27.25,7.73026316 C27,7.42105263 26.6875,7.29736842 26.375,7.23552632 C24.625,7.17368421 22.75,7.35921053 19.5,8.84342105 C19,9.09078947 18.75,9.58552632 18.875,10.1421053 L19.1875,11.5026316 C19.3125,11.9355263 19.25,12.4302632 19.125,12.8631579 L10.6875,40.1973684 C11.375,49.4736842 36.5,50.2157895 42.9375,35.4355263 C45.4375,29.6842105 44.25,23.6236842 40.1875,21.0263158 C55.625,5.62763158 29.3125,-7.11184211 8.1875,5.81315789 Z M26.4375,21.15 C26.875,19.7894737 29.375,20.1605263 31.4375,21.3973684 C29.5,22.6342105 26,22.7578947 26.4375,21.15 Z M18.4375,41.9289474 C17.75,41.6815789 17.4375,41.0013158 17.625,40.3210526 L22.875,23.1907895 C24.0625,27.1486842 30.9375,26.0355263 34.6875,24.5513158 C39.4375,31.3539474 30.6875,46.3815789 18.4375,41.9289474 Z" id="Shape"></path>
                        <path d="M203.6875,18.5526316 C201.6875,15.5842105 198.625,16.2026316 197.5,16.5736842 C197.375,16.6355263 197.3125,16.6973684 197.25,16.8210526 C197.1875,16.9447368 197.1875,17.0684211 197.25,17.1921053 C200.125,22.8815789 194.5,27.7052632 193.3125,27.3342105 C195.25,17.8105263 188.375,15.9552632 185.4375,19.6039474 C183.3125,17.9960526 178.3125,18.6144737 174.75,25.1078947 C172.5,26.4684211 170.875,26.5921053 170.875,26.5921053 C170.875,26.5921053 173.8125,18.2434211 167.9375,17.8105263 C162.375,17.3776316 160.9375,28.0144737 165.6875,29.9934211 C164.4375,33.7039474 159.5625,37.2907895 157.125,37.7236842 C155.375,36.3013158 153.6875,31.7868421 158.5625,20.4078947 C158.6875,20.0368421 158.6875,19.6657895 158.4375,19.3565789 C158.1875,19.0473684 157.875,18.8618421 157.5,18.8618421 L152.5625,18.8618421 C152.0625,18.8618421 151.625,19.1710526 151.4375,19.6657895 C150.625,22.5105263 149.8125,25.7263158 149.375,28.8184211 C149.0625,31.2302632 147.875,33.4565789 146,35.0644737 C142.4375,38.1565789 140.3125,37.1052632 141.4375,34.1368421 C141.5625,33.7657895 144.75,23.4381579 145.875,19.6657895 C146,19.2947368 145.9375,18.9236842 145.6875,18.6763158 C145.5,18.3671053 145.125,18.2434211 144.75,18.2434211 C143.375,18.2434211 141.1875,18.4289474 138.875,19.4802632 C138.375,19.7276316 138.0625,20.2842105 138.25,20.8407895 L138.4375,21.5828947 C138.5625,22.0776316 138.5625,22.5723684 138.4375,23.0671053 C137.125,27.3342105 136.3125,29.9315789 135.8125,31.4776316 C135.25,33.2710526 134.125,34.8171053 132.625,35.9302632 L132.625,35.9302632 C130.5625,37.4763158 128.375,37.7855263 129.1875,34.5078947 C129.25,34.2605263 133.9375,18.6144737 136.375,10.4513158 C137.6875,10.1421053 138.8125,9.95657895 139.625,9.95657895 L141.0625,9.95657895 C140.6875,10.575 140.4375,11.2552632 140.4375,11.9973684 C140.4375,16.9447368 148,16.9447368 148,11.9973684 C148,7.29736842 141.8125,7.97763158 137,8.47236842 C137.5,6.80263158 137.8125,5.75131579 137.875,5.56578947 C138,5.25657895 137.9375,4.88552632 137.6875,4.57631579 C137.4375,4.26710526 137.125,4.14342105 136.8125,4.14342105 C135.1875,4.14342105 132.5625,4.26710526 130.0625,5.38026316 C129.5625,5.62763158 129.25,6.18421053 129.4375,6.74078947 L129.625,7.48289474 C129.75,7.97763158 129.625,8.90526316 129.625,8.90526316 L129.4375,9.52368421 C114.8125,11.1934211 113.3125,4.51447368 117.625,1.60789474 C117.75,1.48421053 117.8125,1.36052632 117.8125,1.175 C117.75,0.989473684 117.625,0.865789474 117.4375,0.865789474 C105.75,-0.371052632 105.0625,12.9868421 115.125,14.3473684 C119.0625,14.9039474 122.75,14.2236842 128.625,12.4302632 L123.25,30.9210526 C122.75,32.7144737 121.75,34.3223684 120.375,35.5592105 C120.1875,35.6828947 120,35.8684211 119.875,35.9921053 C117.6875,37.6618421 115.6875,37.4763158 116.375,34.5078947 C116.4375,34.2605263 119.625,23.8092105 120.8125,20.0368421 C120.9375,19.6657895 120.875,19.2947368 120.625,19.0473684 C120.375,18.8 120.0625,18.6144737 119.6875,18.6144737 C118.1875,18.6144737 115.6875,18.8618421 113.1875,20.0986842 C107.5625,16.2644737 98.625,22.3868421 97,31.4157895 C96.75,32.9 96.0625,34.2605263 94.9375,35.25 C91.25,38.7131579 90,35.9302632 90.6875,34.0131579 C91.375,32.0960526 94.1875,24.5513158 94.6875,22.8815789 C95.1875,21.2736842 93.625,18.6763158 89.4375,18.6763158 C86.1875,18.6763158 80.125,27.7052632 77.5625,31.725 L81.25,19.7894737 C81.375,19.4184211 81.3125,19.0473684 81.0625,18.8 C80.875,18.4907895 80.5,18.3671053 80.125,18.3671053 C78.75,18.3671053 76.5625,18.5526316 74.25,19.6039474 C73.75,19.8513158 73.4375,20.4078947 73.625,20.9644737 C73.8125,21.7065789 73.625,22.5723684 73.0625,23.1289474 C70.9375,25.2315789 67.75,26.9013158 67.75,26.9013158 C69.5625,17.8723684 62.625,15.9552632 59.6875,19.6039474 C56.4375,17.1921053 49.25,20.5934211 47.1875,29.9315789 C45.625,36.7960526 49.4375,42.4236842 54.75,42.4236842 C59.8125,42.4236842 65.0625,37.3526316 66.875,30.9210526 C69.1875,30.0552632 71.3125,28.3236842 72.5625,27.2105263 L68.375,40.8157895 C68.25,41.1868421 68.3125,41.5578947 68.5625,41.8052632 C68.75,42.1144737 69.125,42.2381579 69.5,42.2381579 L73.75,42.2381579 C74.1875,42.2381579 74.5625,41.9907895 74.75,41.6197368 C78.125,34.7552632 83.375,28.9421053 85.75,26.4684211 C85.875,26.3447368 86.0625,26.2828947 86.25,26.4065789 C86.4375,26.5302632 86.5,26.7157895 86.4375,26.9013158 C84.25,33.0855263 80.1875,41.0013158 86.625,42.2381579 C91.0625,43.1039474 96.1875,38.5276316 97.25,37.1052632 C98.6875,42.2381579 104.0625,44.2171053 109.75,40.3210526 C111.125,43.0421053 117.5,43.1657895 121.5625,38.2802632 C121.6875,42.5473684 128.5625,44.7118421 134.75,37.7855263 C135.0625,44.65 143.625,43.6605263 149.75,35.7447368 C150.4375,38.8986842 152.1875,41.3723684 155.75,42.3618421 C160.625,41.125 167.5625,35.1881579 169.5625,30.3026316 C171,30.1789474 172.1875,29.8697368 173.1875,29.4986842 C173.1875,29.6223684 173.125,29.7460526 173.125,29.8697368 C171.625,36.7960526 175.375,42.4236842 180.6875,42.4236842 C185.625,42.4236842 190.75,37.6 192.6875,31.4157895 C201.625,30.7355263 206.8125,23.1289474 203.6875,18.5526316 Z M53.625,30.3644737 C54.25,27.025 56.0625,24.1802632 58.125,23.0671053 C57.375,26.9631579 58.75,31.6631579 62.5625,31.6631579 L63,31.6631579 C60.3125,40.9394737 51.9375,39.7644737 53.625,30.3644737 Z M63.3125,27.7052632 C63.3125,27.7052632 62,27.7671053 62,25.2315789 C62,22.3868421 63.375,22.2631579 63.4375,25.3552632 C63.4375,28.3855263 63.3125,27.7052632 63.3125,27.7052632 Z M109.4375,36.1776316 C108.5,37.2907895 107.4375,37.9092105 106.5,37.8473684 C101.5,37.4763158 104.6875,23.2526316 109.6875,23.6236842 C111.0625,23.7473684 112,25.2315789 112.1875,27.3960526 C112.1875,27.3342105 109.5,35.9302632 109.4375,36.1776316 Z M167.8125,23.6236842 C167.3125,26.6539474 167.25,25.9118421 167.25,25.9118421 C167.25,25.9118421 165.9375,25.7263158 166.4375,23.2526316 C167,20.4697368 168.375,20.5934211 167.8125,23.6236842 Z M179.4375,30.3644737 C180.0625,27.025 181.875,24.1802632 183.9375,23.0671053 C183,28.0763158 186.125,31.7868421 188.75,31.6631579 C186.125,40.9394737 177.75,39.7644737 179.4375,30.3644737 Z M189.3125,27.7052632 C189.3125,27.7052632 188,27.7671053 188,25.2315789 C188,22.3868421 189.375,22.2631579 189.4375,25.3552632 C189.4375,28.3855263 189.3125,27.7052632 189.3125,27.7052632 Z" id="Shape"></path>
                    </g>
                </g>
            </g>
        </g>
    </g>
</svg>