<?xml version="1.0" encoding="UTF-8"?>
<svg width="215px" height="58px" viewBox="0 0 215 58" version="1.1" xmlns="http://www.w3.org/2000/svg" xmlns:xlink="http://www.w3.org/1999/xlink">
    <!-- Generator: Sketch 42 (36781) - http://www.bohemiancoding.com/sketch -->
    <title>logo-ce-horizontal-en-quadri</title>
    <desc>Created with Sketch.</desc>
    <defs>
        <polygon id="path-1" points="64.25619 25.961026 0.16254 25.961026 0.16254 0.302748701 64.25619 0.302748701 64.25619 25.961026"></polygon>
        <polygon id="path-3" points="0.14835 11.6681688 29.98433 11.6681688 29.98433 0.405397403 0.14835 0.405397403 0.14835 11.6681688"></polygon>
        <polygon id="path-5" points="107.409485 0.388072727 0.0258 0.388072727 0.0258 57.021137 214.79317 57.021137 214.79317 0.388072727 107.409485 0.388072727"></polygon>
    </defs>
    <g id="Page-1" stroke="none" stroke-width="1" fill="none" fill-rule="evenodd">
        <g id="logo-ce-horizontal-en-quadri">
            <path d="M121.44877,29.1006903 C121.44877,28.8871636 121.54681,28.7719545 121.77557,28.7719545 L127.78783,28.7719545 C127.98391,28.7719545 128.09829,28.8871636 128.09829,29.0842318 L128.09829,30.1050883 C128.09829,30.3025896 128.01616,30.4009071 127.77149,30.4009071 L123.31153,30.4009071 L123.31153,33.2317591 L127.26495,33.2317591 C127.47737,33.2317591 127.59175,33.3300766 127.59175,33.5275779 L127.59175,34.5480013 C127.59175,34.7455026 127.51005,34.8442532 127.26495,34.8442532 L123.31153,34.8442532 L123.31153,38.0861331 L127.8863,38.0861331 C128.08195,38.0861331 128.17999,38.1848838 128.17999,38.3984104 L128.17999,39.4028084 C128.17999,39.6163351 128.09829,39.6986273 127.86953,39.6986273 L121.77557,39.6986273 C121.54681,39.6986273 121.44877,39.6003097 121.44877,39.4028084 L121.44877,29.1006903" id="Fill-1" fill="#595A59"></path>
            <path d="M136.41578,39.6986273 L135.25521,39.6986273 C135.01054,39.6986273 134.94518,39.5838513 134.94518,39.3859169 L134.94518,38.8761383 L134.9125,38.8596799 C134.27524,39.3036247 133.16412,39.8467532 132.16781,39.8467532 C129.96234,39.8467532 129.74992,38.530511 129.74992,36.8023747 L129.74992,31.9644591 C129.74992,31.7669578 129.83119,31.6352903 130.05995,31.6352903 L131.25277,31.6352903 C131.46519,31.6352903 131.54689,31.7504994 131.54689,31.9644591 L131.54689,36.5884149 C131.54689,37.5759214 131.74254,38.2013422 132.73971,38.2013422 C133.4419,38.2013422 134.51991,37.6746721 134.94518,37.4607123 L134.94518,31.9644591 C134.94518,31.7669578 135.01054,31.6352903 135.25521,31.6352903 L136.41578,31.6352903 C136.64411,31.6352903 136.72538,31.7504994 136.72538,31.9644591 L136.72538,39.3859169 C136.72538,39.6003097 136.64411,39.6986273 136.41578,39.6986273" id="Fill-2" fill="#595A59"></path>
            <path d="M140.56614,39.3859169 C140.56614,39.5838513 140.48444,39.6986273 140.25568,39.6986273 L139.07963,39.6986273 C138.8513,39.6986273 138.76917,39.6003097 138.76917,39.3859169 L138.76917,31.9644591 C138.76917,31.7504994 138.8513,31.6352903 139.07963,31.6352903 L140.23934,31.6352903 C140.48444,31.6352903 140.56614,31.7669578 140.56614,31.9644591 L140.56614,32.6886305 L140.59882,32.7215474 C141.08945,32.2602779 142.24916,31.701124 143.01671,31.5529981 C143.22913,31.5036227 143.37619,31.5529981 143.40887,31.8327916 L143.52325,32.9355071 C143.54002,33.1654922 143.55593,33.264676 143.21279,33.3300766 C142.29775,33.5111195 141.13804,33.8402883 140.56614,34.0871649 L140.56614,39.3859169" id="Fill-3" fill="#595A59"></path>
            <path d="M147.77208,33.0507162 C146.38318,33.0507162 146.07315,33.939039 146.07315,35.6502838 C146.07315,37.3948786 146.38318,38.2502844 147.75617,38.2502844 C149.24268,38.2502844 149.53637,37.411337 149.53637,35.6502838 C149.53637,33.9061221 149.25902,33.0507162 147.77208,33.0507162 Z M147.75617,39.8302948 C144.47183,39.8302948 144.25984,37.411337 144.25984,35.5355078 C144.25984,33.9888474 144.60255,31.4707058 147.75617,31.4707058 C150.92527,31.4707058 151.36645,33.5934117 151.36645,35.5355078 C151.36645,37.411337 151.13769,39.8302948 147.75617,39.8302948 L147.75617,39.8302948 Z" id="Fill-4" fill="#595A59"></path>
            <path d="M156.90571,33.1490338 C156.23577,33.1490338 155.20678,33.6267617 154.71658,33.8896636 L154.71658,38.0038409 C155.45188,38.2173675 156.03969,38.2836344 156.59525,38.2836344 C157.77173,38.2836344 158.18023,37.6746721 158.18023,35.6009084 C158.18023,33.5111195 157.77173,33.1490338 156.90571,33.1490338 Z M156.77499,39.8467532 C156.23577,39.8467532 155.48413,39.7480026 154.73292,39.4846675 L154.71658,39.501126 L154.71658,42.3978117 C154.71658,42.5788545 154.66756,42.7265474 154.40612,42.7265474 L153.24598,42.7265474 C152.98497,42.7265474 152.93595,42.6113383 152.93595,42.3978117 L152.93595,31.9644591 C152.93595,31.7504994 153.01765,31.6352903 153.24598,31.6352903 L154.40612,31.6352903 C154.63488,31.6352903 154.70024,31.7669578 154.70024,31.9644591 L154.70024,32.4577792 L154.74926,32.4911292 C155.3375,32.0792351 156.38283,31.5036227 157.33055,31.5036227 C159.47109,31.5036227 160.02622,33.1325753 160.02622,35.6173669 C160.02622,38.3000929 159.35628,39.8467532 156.77499,39.8467532 L156.77499,39.8467532 Z" id="Fill-5" fill="#595A59"></path>
            <path d="M163.1807,34.9265455 L166.41559,34.9265455 C166.41559,33.9225805 166.15415,32.9515325 164.79793,32.9515325 C163.5892,32.9515325 163.2624,33.6921623 163.1807,34.9265455 Z M163.16436,36.1604955 C163.21338,37.8227981 163.80162,38.2836344 165.14107,38.2836344 C165.72931,38.2836344 166.64392,38.1684253 167.26527,38.1025916 C167.55896,38.0692416 167.657,38.0692416 167.70602,38.3823851 L167.80449,38.9250805 C167.85308,39.1719571 167.82083,39.3036247 167.52628,39.4357253 C166.88945,39.6821688 165.69663,39.8467532 164.89597,39.8467532 C161.77546,39.8467532 161.31837,37.8392565 161.31837,35.7000922 C161.31837,34.1036234 161.61206,31.4707058 164.79793,31.4707058 C167.72236,31.4707058 168.24524,33.3794519 168.29426,35.1569636 C168.3106,35.7490344 168.14763,36.1604955 167.4936,36.1604955 L163.16436,36.1604955 L163.16436,36.1604955 Z" id="Fill-6" fill="#595A59"></path>
            <path d="M174.73265,36.029261 L172.73917,36.029261 C171.9226,36.029261 171.39972,36.3250799 171.39972,37.411337 C171.39972,38.1355084 171.64439,38.3659266 172.41237,38.3659266 C173.11499,38.3659266 174.11173,37.9544656 174.73265,37.5923799 L174.73265,36.029261 Z M174.83069,38.7604961 C174.01369,39.3859169 172.91891,39.8302948 171.82413,39.8302948 C170.09252,39.8302948 169.58598,38.8761383 169.58598,37.4936292 C169.56964,35.5684247 170.59906,34.7455026 172.65747,34.7455026 L174.74856,34.7455026 L174.74856,34.3175831 C174.74856,33.3300766 174.38908,32.9844494 173.04963,32.9844494 C172.51041,32.9844494 171.48099,33.0671747 170.82782,33.1325753 C170.50102,33.1819506 170.41932,33.1654922 170.3703,32.9355071 L170.22324,32.3265448 C170.19056,32.1125851 170.23958,31.9809175 170.59906,31.8327916 C171.30125,31.5859149 172.59211,31.4707058 173.36009,31.4707058 C176.18648,31.4707058 176.52962,32.6388221 176.52962,34.4821675 L176.52962,37.6582136 C176.52962,38.3330097 176.61132,38.3494682 177.11786,38.4148688 C177.36253,38.4313273 177.42832,38.4811357 177.42832,38.6621786 L177.42832,39.353 C177.42832,39.5340429 177.31394,39.6492519 177.03573,39.6986273 C176.77472,39.7480026 176.51328,39.7813526 176.26818,39.7813526 C175.5002,39.7813526 175.02677,39.5505013 174.86337,38.7769545 L174.83069,38.7604961 L174.83069,38.7604961 Z" id="Fill-7" fill="#595A59"></path>
            <g id="Group-12" transform="translate(121.260000, 31.184416)">
                <mask id="mask-2" fill="white">
                    <use xlink:href="#path-1"></use>
                </mask>
                <g id="Clip-9"></g>
                <path d="M63.94573,8.51421169 L62.76968,8.51421169 C62.55726,8.51421169 62.45922,8.41589416 62.45922,8.2015013 L62.47556,3.57754545 C62.47556,2.60693052 62.2468,1.96461818 61.29908,1.96461818 C60.64591,1.96461818 59.50211,2.49128831 59.06093,2.70524805 L59.06093,8.2015013 C59.06093,8.39943571 58.97966,8.51421169 58.75047,8.51421169 L57.59076,8.51421169 C57.362,8.51421169 57.27987,8.41589416 57.27987,8.2015013 L57.27987,0.780043506 C57.27987,0.566083766 57.362,0.450874675 57.59076,0.450874675 L58.75047,0.450874675 C58.97966,0.450874675 59.06093,0.566083766 59.06093,0.780043506 L59.06093,1.27336364 C59.07727,1.27336364 59.09361,1.28982208 59.10995,1.28982208 C59.71453,0.862335714 60.85833,0.302748701 61.85464,0.302748701 C64.06011,0.302748701 64.25619,1.76711688 64.25619,3.42941948 L64.25619,8.2015013 C64.25619,8.39943571 64.19126,8.51421169 63.94573,8.51421169" id="Fill-8" fill="#595A59" mask="url(#mask-2)"></path>
                <path d="M4.57348,14.7970052 C5.37457,14.7970052 6.69768,14.9122143 7.56327,15.2743 C7.82471,15.3895091 7.92275,15.5211766 7.87416,15.7840786 L7.7271,16.4588747 C7.67765,16.656376 7.59638,16.7386682 7.30226,16.7057513 C6.50203,16.6074338 5.5212,16.4917916 4.67195,16.4917916 C2.44971,16.4917916 2.12291,18.3022201 2.12291,20.4413844 C2.12291,22.5970071 2.53141,24.2922266 4.67195,24.2922266 C5.61924,24.2922266 6.4199,24.1930429 7.30226,24.0782669 C7.61272,24.04535 7.67765,24.1276422 7.74301,24.3416019 L7.87416,24.9670227 C7.93909,25.2299247 7.85739,25.3784838 7.59638,25.4932597 C6.79572,25.838887 5.37457,25.987013 4.57348,25.987013 C0.93052,25.987013 0.16254,23.2718032 0.16254,20.4743013 C0.16254,17.6603409 0.84882,14.7970052 4.57348,14.7970052" id="Fill-10" fill="#595A59" mask="url(#mask-2)"></path>
                <path d="M12.56374,19.190976 C11.1757,19.190976 10.86481,20.0792987 10.86481,21.7909766 C10.86481,23.5351383 11.1757,24.3905442 12.54783,24.3905442 C14.03434,24.3905442 14.32846,23.5515968 14.32846,21.7909766 C14.32846,20.0463818 14.05068,19.190976 12.56374,19.190976 Z M12.54783,25.9705545 C9.26392,25.9705545 9.0515,23.5515968 9.0515,21.6757675 C9.0515,20.1291071 9.39464,17.6109656 12.54783,17.6109656 C15.71736,17.6109656 16.15854,19.7341045 16.15854,21.6757675 C16.15854,23.5515968 15.92978,25.9705545 12.54783,25.9705545 L12.54783,25.9705545 Z" id="Fill-11" fill="#595A59" mask="url(#mask-2)"></path>
            </g>
            <path d="M150.42432,57.0233026 L149.24784,57.0233026 C149.01951,57.0233026 148.93781,56.9249851 148.93781,56.7110253 L148.93781,52.037261 C148.93781,50.8193364 148.64369,50.4737091 147.82669,50.4737091 C147.22211,50.4737091 146.24171,50.951437 145.73517,51.214339 C145.73517,51.3789234 145.75194,51.6751753 145.75194,52.0537195 L145.75194,56.7110253 C145.75194,56.9085266 145.68658,57.0233026 145.44148,57.0233026 L144.24866,57.0233026 C144.03624,57.0233026 143.97088,56.9249851 143.97088,56.7110253 L143.97088,51.9549688 C143.97088,50.951437 143.70944,50.4737091 142.89244,50.4737091 C142.32097,50.4737091 141.40593,50.8851701 140.78544,51.214339 L140.78544,56.7110253 C140.78544,56.9085266 140.70374,57.0233026 140.47455,57.0233026 L139.29893,57.0233026 C139.08651,57.0233026 139.00438,56.9249851 139.00438,56.7110253 L139.00438,49.2891344 C139.00438,49.0751747 139.08651,48.9599656 139.29893,48.9599656 L140.45864,48.9599656 C140.70374,48.9599656 140.78544,49.0916331 140.78544,49.2891344 L140.78544,49.7659961 L140.80135,49.7824545 C141.43861,49.3385097 142.33731,48.8447565 143.23601,48.8118396 C144.1833,48.8118396 144.96762,49.0093409 145.47416,49.9634974 C146.29073,49.3549682 147.30424,48.8118396 148.35,48.8118396 C150.50602,48.8118396 150.71844,50.2272656 150.71844,51.8726766 L150.71844,56.7110253 C150.71844,56.9085266 150.65308,57.0233026 150.42432,57.0233026" id="Fill-13" fill="#595A59"></path>
            <path d="M163.88848,57.0233026 L162.712,57.0233026 C162.48367,57.0233026 162.40154,56.9249851 162.40154,56.7110253 L162.40154,52.037261 C162.40154,50.8193364 162.10785,50.4737091 161.29042,50.4737091 C160.68627,50.4737091 159.7063,50.951437 159.19933,51.214339 C159.19933,51.3789234 159.21567,51.6751753 159.21567,52.0537195 L159.21567,56.7110253 C159.21567,56.9085266 159.15074,57.0233026 158.90521,57.0233026 L157.71282,57.0233026 C157.5004,57.0233026 157.43504,56.9249851 157.43504,56.7110253 L157.43504,51.9549688 C157.43504,50.951437 157.1736,50.4737091 156.35703,50.4737091 C155.78513,50.4737091 154.87009,50.8851701 154.24917,51.214339 L154.24917,56.7110253 C154.24917,56.9085266 154.16747,57.0233026 153.93914,57.0233026 L152.76223,57.0233026 C152.55024,57.0233026 152.46854,56.9249851 152.46854,56.7110253 L152.46854,49.2891344 C152.46854,49.0751747 152.55024,48.9599656 152.76223,48.9599656 L153.92237,48.9599656 C154.16747,48.9599656 154.24917,49.0916331 154.24917,49.2891344 L154.24917,49.7659961 L154.26551,49.7824545 C154.90277,49.3385097 155.80147,48.8447565 156.69974,48.8118396 C157.64746,48.8118396 158.43178,49.0093409 158.93832,49.9634974 C159.75489,49.3549682 160.76754,48.8118396 161.8133,48.8118396 C163.97018,48.8118396 164.1826,50.2272656 164.1826,51.8726766 L164.1826,56.7110253 C164.1826,56.9085266 164.11681,57.0233026 163.88848,57.0233026" id="Fill-14" fill="#595A59"></path>
            <g id="Group-21" transform="translate(165.980000, 45.477273)">
                <mask id="mask-4" fill="white">
                    <use xlink:href="#path-3"></use>
                </mask>
                <g id="Clip-16"></g>
                <path d="M1.978,11.2337526 C1.978,11.4143623 1.91307,11.5460299 1.68431,11.5460299 L0.52417,11.5460299 C0.29541,11.5460299 0.19737,11.4477123 0.19737,11.2337526 L0.19737,3.79540325 C0.19737,3.56455195 0.29541,3.48269286 0.52417,3.48269286 L1.68431,3.48269286 C1.91307,3.48269286 1.978,3.61436039 1.978,3.79540325 L1.978,11.2337526 Z M1.11198,2.29811818 C0.26273,2.29811818 0.14835,1.82039026 0.14835,1.34352857 C0.14835,0.816858442 0.32809,0.405397403 1.11198,0.405397403 C1.91307,0.405397403 2.07647,0.783941558 2.07647,1.34352857 C2.07647,1.85330714 1.92941,2.29811818 1.11198,2.29811818 L1.11198,2.29811818 Z" id="Fill-15" fill="#595A59" mask="url(#mask-4)"></path>
                <path d="M6.68392,11.6776974 C5.86692,11.6776974 4.77257,11.5624883 4.15165,11.3156117 C3.82485,11.1839442 3.75949,11.0358182 3.80851,10.7724831 L3.92289,10.2297877 C3.97191,9.9664526 4.08586,9.94999416 4.34773,9.98291104 C5.06669,10.097687 6.11202,10.1804123 6.66758,10.1804123 C7.71334,10.1804123 8.13775,9.90018571 8.13775,9.24228117 C8.13775,8.48519286 7.8604,8.32060844 6.83098,8.17248247 C5.23009,7.9424974 3.82485,7.59643701 3.82485,5.8029 C3.82485,4.1739474 5.06669,3.31810844 6.89634,3.31810844 C7.56585,3.31810844 8.69331,3.41685909 9.37959,3.68019416 C9.65694,3.79540325 9.77175,3.92663766 9.72273,4.1739474 L9.59201,4.7664513 C9.54299,4.99643636 9.44495,5.02935325 9.15083,4.99643636 C8.44821,4.91457727 7.5336,4.81539351 6.92902,4.81539351 C5.88326,4.81539351 5.63859,5.11207857 5.63859,5.73706623 C5.63859,6.37894545 6.03032,6.46123766 7.02706,6.62582208 C8.57936,6.85624026 9.98417,7.16895065 9.98417,9.12707208 C9.98417,11.0527097 8.36694,11.6776974 6.68392,11.6776974" id="Fill-17" fill="#595A59" mask="url(#mask-4)"></path>
                <path d="M14.18441,11.6776974 C13.36698,11.6776974 12.27306,11.5624883 11.65171,11.3156117 C11.32491,11.1839442 11.25955,11.0358182 11.30857,10.7724831 L11.42295,10.2297877 C11.47197,9.9664526 11.58635,9.94999416 11.84779,9.98291104 C12.56675,10.097687 13.61251,10.1804123 14.16807,10.1804123 C15.2134,10.1804123 15.63824,9.90018571 15.63824,9.24228117 C15.63824,8.48519286 15.36046,8.32060844 14.33147,8.17248247 C12.73015,7.9424974 11.32491,7.59643701 11.32491,5.8029 C11.32491,4.1739474 12.56675,3.31810844 14.3964,3.31810844 C15.06677,3.31810844 16.1938,3.41685909 16.87965,3.68019416 C17.15786,3.79540325 17.27181,3.92663766 17.22279,4.1739474 L17.0925,4.7664513 C17.04305,4.99643636 16.94544,5.02935325 16.65089,4.99643636 C15.94827,4.91457727 15.03366,4.81539351 14.42908,4.81539351 C13.38375,4.81539351 13.13865,5.11207857 13.13865,5.73706623 C13.13865,6.37894545 13.53038,6.46123766 14.52755,6.62582208 C16.07942,6.85624026 17.48466,7.16895065 17.48466,9.12707208 C17.48466,11.0527097 15.867,11.6776974 14.18441,11.6776974" id="Fill-18" fill="#595A59" mask="url(#mask-4)"></path>
                <path d="M21.01453,11.2337526 C21.01453,11.4143623 20.94917,11.5460299 20.72041,11.5460299 L19.5607,11.5460299 C19.33194,11.5460299 19.2339,11.4477123 19.2339,11.2337526 L19.2339,3.79540325 C19.2339,3.56455195 19.33194,3.48269286 19.5607,3.48269286 L20.72041,3.48269286 C20.94917,3.48269286 21.01453,3.61436039 21.01453,3.79540325 L21.01453,11.2337526 Z M20.14851,2.29811818 C19.29883,2.29811818 19.18488,1.82039026 19.18488,1.34352857 C19.18488,0.816858442 19.36462,0.405397403 20.14851,0.405397403 C20.94917,0.405397403 21.11257,0.783941558 21.11257,1.34352857 C21.11257,1.85330714 20.96551,2.29811818 20.14851,2.29811818 L20.14851,2.29811818 Z" id="Fill-19" fill="#595A59" mask="url(#mask-4)"></path>
                <path d="M26.39039,4.89811883 C25.00149,4.89811883 24.6906,5.78644156 24.6906,7.49811948 C24.6906,9.24228117 25.00149,10.097687 26.37362,10.097687 C27.86056,10.097687 28.15468,9.25873961 28.15468,7.49811948 C28.15468,5.75352468 27.8769,4.89811883 26.39039,4.89811883 Z M26.37362,11.6776974 C23.09014,11.6776974 22.87772,9.25873961 22.87772,7.38291039 C22.87772,5.83625 23.22043,3.31810844 26.37362,3.31810844 C29.54358,3.31810844 29.98433,5.4412474 29.98433,7.38291039 C29.98433,9.25873961 29.75557,11.6776974 26.37362,11.6776974 L26.37362,11.6776974 Z" id="Fill-20" fill="#595A59" mask="url(#mask-4)"></path>
            </g>
            <path d="M204.16701,57.0233026 L202.99096,57.0233026 C202.77854,57.0233026 202.6805,56.9249851 202.6805,56.7110253 L202.69684,52.0866364 C202.69684,51.1160214 202.46808,50.4737091 201.52036,50.4737091 C200.86676,50.4737091 199.72339,51.0003792 199.28221,51.214339 L199.28221,56.7110253 C199.28221,56.9085266 199.20051,57.0233026 198.97175,57.0233026 L197.81204,57.0233026 C197.58328,57.0233026 197.50115,56.9249851 197.50115,56.7110253 L197.50115,49.2891344 C197.50115,49.0751747 197.58328,48.9599656 197.81204,48.9599656 L198.97175,48.9599656 C199.20051,48.9599656 199.28221,49.0751747 199.28221,49.2891344 L199.28221,49.7824545 C199.29855,49.7824545 199.31489,49.7993461 199.33123,49.7993461 C199.93538,49.3714266 201.07918,48.8118396 202.07592,48.8118396 C204.28139,48.8118396 204.47747,50.2762078 204.47747,51.9385104 L204.47747,56.7110253 C204.47747,56.9085266 204.41211,57.0233026 204.16701,57.0233026" id="Fill-22" fill="#595A59"></path>
            <g id="Group-38">
                <mask id="mask-6" fill="white">
                    <use xlink:href="#path-5"></use>
                </mask>
                <g id="Clip-24"></g>
                <polygon id="Fill-23" fill="#174489" mask="url(#mask-6)" points="211.99129 57.021137 214.79317 57.021137 214.79317 23.9465994 211.99129 23.9465994"></polygon>
                <path d="M0,21.3197455 C0,21.3197455 33.75887,16.886361 34.71261,16.7282734 C36.17289,16.486161 37.47106,16.2033357 38.68108,15.863339 C41.41201,15.1040851 43.92536,13.9454974 46.15061,12.4191935 C48.28384,10.9669526 50.26829,8.85420844 52.23554,6.5366 C53.48641,5.06183701 54.80006,3.13923117 56.02556,1.28332532 L56.02556,0.388072727 C54.57173,2.57228117 53.1394,4.45417403 51.66665,6.11604351 C49.71488,8.32104156 47.66722,10.1249734 45.58,11.4784636 C43.42613,12.8865266 41.00136,13.9377013 38.37363,14.6029688 C37.19586,14.9039851 35.93467,15.148263 34.51696,15.348363 C33.58257,15.481763 32.61937,15.5844117 31.68842,15.6840286 C31.31647,15.7238753 0,19.0952571 0,19.0952571 L0,21.3197455" id="Fill-25" fill="#B4B5B4" mask="url(#mask-6)"></path>
                <path d="M45.27212,15.57445 C43.1591,16.8084 40.71842,17.7105825 38.01845,18.2576091 C36.86519,18.4936578 35.60873,18.6859617 34.17511,18.8444825 C33.3336,18.9371695 32.48564,19.0116656 31.63639,19.0857286 C31.17801,19.1264416 30.72006,19.1662883 30.2634,19.2091669 C19.91803,20.150763 9.62555,21.1521292 0,22.1006552 L0,24.323411 C9.70123,23.1353714 20.06552,21.8780331 30.40702,20.6899935 C30.86712,20.6354208 31.32722,20.5838799 31.78775,20.5327721 C32.63485,20.4379195 33.48324,20.3430669 34.33421,20.2291571 C35.80567,20.0307896 37.09352,19.8021039 38.27,19.5314058 C41.07489,18.894724 43.60931,17.8898929 45.79844,16.5441987 C47.97467,15.218861 49.89806,13.3625221 51.9655,11.0925565 C53.25292,9.68016234 54.68525,7.68652532 56.02556,5.81286169 L56.02556,4.99773571 C54.44703,7.17154935 52.94848,8.99757013 51.46584,10.5554916 C49.44699,12.6777643 47.36321,14.3660539 45.27212,15.57445" id="Fill-26" fill="#B4B5B4" mask="url(#mask-6)"></path>
                <path d="M51.18032,15.0300221 C49.12019,16.9474305 46.96976,18.4555435 44.78751,19.5132149 C42.65385,20.5578929 40.26606,21.2907266 37.48697,21.7545948 C36.34016,21.9473318 35.09316,22.1054195 33.67674,22.2357877 L0,25.0428182 L0,27.2608097 L29.93574,24.0366877 L33.80918,23.623061 C35.26774,23.452413 36.54011,23.2605422 37.69853,23.0366208 C40.57695,22.485263 43.04601,21.6614747 45.24589,20.5184792 C47.49479,19.3642227 49.74197,17.4437825 51.83091,15.4102987 C53.23314,14.0468468 54.58291,12.2857935 56.02556,10.43855 L56.02556,9.6996526 C54.35931,11.8015688 52.76831,13.5535266 51.18032,15.0300221" id="Fill-27" fill="#B4B5B4" mask="url(#mask-6)"></path>
                <path d="M43.03655,26.5474662 C41.07618,27.6605766 39.61031,28.3020227 36.81015,28.5987078 C35.1181,28.7832156 33.37875,28.8715714 31.69659,28.9564623 C30.88217,28.9980416 30.06689,29.0387545 29.25376,29.0907286 C24.166,29.3861143 19.16983,29.7131175 14.07261,30.0505156 L0,31.0124682 L0,33.2300266 L14.21279,31.9064214 C18.80562,31.4884636 24.14235,31.0059714 29.35266,30.574587 L33.1401,30.2770357 C34.61844,30.1618266 35.83104,30.0392545 36.9542,29.8906955 C39.8352,29.5134506 42.29652,28.9226792 44.47705,28.0863305 C46.82485,27.1945429 49.03892,25.8111675 51.25643,24.1843805 C53.25593,22.7182799 56.02255,19.8259253 56.02556,19.7882442 L56.02556,19.0047357 C54.21655,20.795674 53.17509,21.8013714 51.19537,23.1258429 C48.82908,24.7080188 44.79439,25.5495649 43.03655,26.5474662" id="Fill-28" fill="#B4B5B4" mask="url(#mask-6)"></path>
                <path d="M43.7525,30.7621266 C41.6283,31.3940442 39.23664,31.8223968 36.44207,32.0701396 C35.30988,32.1697565 34.08868,32.2459851 32.70838,32.3022903 L28.94158,32.4703396 C19.58177,32.9116857 10.26754,33.4050058 0,33.9563636 L0,36.1687247 C9.80744,35.3982097 19.41923,34.6484844 29.02629,33.9546312 L32.78234,33.6943279 C34.23187,33.5977429 35.43372,33.4929286 36.56462,33.3634266 C39.42971,33.0381558 41.88028,32.5366065 44.05522,31.8297597 C46.4658,31.0549136 48.81489,29.9314084 51.03799,28.4908617 C52.68016,27.4297253 54.3219,26.165024 56.02556,24.6556117 L56.02556,24.6170643 C54.14818,26.2434182 52.35895,26.6042045 50.57574,27.6973916 C48.39263,29.0396208 46.09686,30.0708721 43.7525,30.7621266" id="Fill-29" fill="#B4B5B4" mask="url(#mask-6)"></path>
                <path d="M43.40549,34.4366903 C41.26538,34.9447364 38.94682,35.2713065 36.10667,35.4640435 C35.01103,35.5385396 33.83412,35.5944117 32.40007,35.639889 L28.66939,35.7745883 C19.26959,36.1353747 9.73821,36.5498675 0,36.9786532 L0,39.1897149 C9.67543,38.5196831 19.16811,37.8678422 28.74292,37.2597461 L32.465,37.033226 C33.92442,36.9492013 35.1138,36.8625779 36.20643,36.7616617 C39.09904,36.4909636 41.46576,36.0963942 43.65403,35.5212149 C46.10933,34.8789026 48.49583,33.9377396 50.74817,32.7241461 C52.48924,31.7873143 54.22601,30.6607773 56.02556,29.3046883 L56.02556,28.3591942 C54.08067,29.7850149 52.2149,30.9470675 50.34698,31.8951604 C48.13592,33.0186656 45.80102,33.8732052 43.40549,34.4366903" id="Fill-30" fill="#B4B5B4" mask="url(#mask-6)"></path>
                <path d="M43.08686,38.0397896 C40.93944,38.4386903 38.62733,38.693363 35.80868,38.841489 C34.7483,38.8964948 33.61353,38.9359084 32.12917,38.9705578 L0,39.8541162 L0,42.0625792 L28.49137,40.5536 L32.18206,40.3630286 C33.62256,40.2945961 34.80076,40.2235649 35.89038,40.1382409 C38.74773,39.9164851 41.09854,39.597711 43.28724,39.1329766 C45.77221,38.6097714 48.18365,37.8453201 50.45491,36.8625779 C52.28413,36.0756045 54.11722,35.1149513 56.02556,33.9468351 L56.02556,33.0593786 C53.98607,34.2630104 52.04763,35.2297273 50.12252,36.0024078 C47.88222,36.9063227 45.5155,37.5910805 43.08686,38.0397896" id="Fill-31" fill="#B4B5B4" mask="url(#mask-6)"></path>
                <path d="M42.83445,41.6576149 C38.89221,42.1912149 34.83344,42.2531506 30.9084,42.3120545 C30.00884,42.3250481 29.10885,42.3393409 28.21015,42.3579649 L0,42.8738071 L0,45.0801045 L28.25917,43.843989 C29.15529,43.8028429 30.0527,43.766461 30.95054,43.7300792 C34.9031,43.5693929 38.99068,43.4043753 42.98624,42.7598974 C45.51593,42.3553662 47.95016,41.7563656 50.22099,40.9815195 C52.10224,40.342239 54.05143,39.5145526 56.02556,38.5370078 L56.02556,37.6902643 C53.95081,38.671274 51.91046,39.4859669 49.95181,40.0966617 C47.70678,40.8004766 45.31254,41.3258474 42.83445,41.6576149" id="Fill-32" fill="#B4B5B4" mask="url(#mask-6)"></path>
                <path d="M42.61042,45.2983955 C38.91629,45.608074 35.13616,45.6089403 31.47944,45.6089403 C30.34209,45.6089403 29.20517,45.6089403 28.06739,45.6180357 C18.7222,45.6596149 9.45011,45.737576 0,45.8203013 L0,48.0274649 C9.00119,47.7169201 18.5502,47.3929487 28.09921,47.1053591 C29.23269,47.0672448 30.3666,47.0377929 31.5018,47.0079078 C35.17787,46.9139214 38.97907,46.816037 42.71104,46.4067416 C45.31856,46.12305 47.69044,45.7068247 49.96299,45.1359766 C51.94529,44.6417903 53.98091,43.9821532 56.02556,43.1895494 L56.02556,42.3791877 C53.91512,43.1479701 51.81199,43.7755565 49.7639,44.2324948 C47.51328,44.7366429 45.17279,45.0853019 42.61042,45.2983955" id="Fill-33" fill="#B4B5B4" mask="url(#mask-6)"></path>
                <path d="M42.46766,48.8876351 C40.92869,48.9495708 39.26244,48.9790227 37.37216,48.9790227 C36.65793,48.9790227 35.94327,48.9746916 35.23119,48.9681948 L27.95989,48.8785396 C22.99855,48.8412916 18.05613,48.8326292 13.41901,48.8282981 L0,48.8412916 L0,51.0471558 L13.45126,50.6894013 C18.07118,50.5746253 23.02822,50.4550851 27.97365,50.3645636 L35.2385,50.2675455 C37.23155,50.2350617 39.86143,50.1761578 42.52528,49.9981468 C45.13581,49.8266325 47.51156,49.5628643 49.78841,49.1938487 C51.83736,48.8607818 53.93103,48.412939 56.02556,47.8715429 L56.02556,47.0884675 C53.87384,47.5926156 51.73502,47.9945481 49.65984,48.276074 C47.39589,48.5840201 45.04336,48.783687 42.46766,48.8876351" id="Fill-34" fill="#B4B5B4" mask="url(#mask-6)"></path>
                <path d="M35.14648,52.3560351 L27.90012,52.2772078 C18.65641,52.1455403 9.42087,51.9735929 0,51.7951487 L0,54.0023123 C8.99259,53.9412429 18.51623,53.8719442 27.907,53.7645312 L35.1568,53.6553857 C37.59963,53.6129403 39.99215,53.5683292 42.41133,53.486037 C47.39288,53.3236182 51.85542,52.9684623 56.02556,52.4084422 L56.02556,51.6409591 C51.83951,52.0978974 47.37052,52.3391435 42.38596,52.3720604 C39.97409,52.3941494 37.5605,52.3763916 35.14648,52.3560351" id="Fill-35" fill="#B4B5B4" mask="url(#mask-6)"></path>
                <polyline id="Fill-36" fill="#B4B5B4" mask="url(#mask-6)" points="56.02556 56.2575519 0 54.816139 0 57.021137 56.02556 57.021137 56.02556 56.2575519"></polyline>
                <path d="M50.9808,19.1979058 C48.85273,20.9329721 47.20884,22.1656227 44.6039,23.2163643 C42.33565,24.1311071 39.89927,24.5061864 37.11545,24.8912273 C35.32407,25.1459 33.45185,25.5227117 31.66348,25.6431182 C30.92818,25.6933597 30.19245,25.7427351 29.45887,25.8012058 L0,27.98065 L0,30.1947435 L29.57798,27.2837649 L33.41272,26.9186474 C34.83516,26.7822156 36.09764,26.6232617 37.27283,26.4309578 C40.13921,25.9636247 42.60913,25.2502812 44.82277,24.2502143 C47.11983,23.2219948 49.44398,21.5380364 51.60387,19.6938247 C53.07361,18.4412506 54.48702,16.8647052 56.02556,15.1434987 L56.02556,14.3500286 C54.16452,16.3025195 52.62211,17.8626065 50.9808,19.1979058" id="Fill-37" fill="#B4B5B4" mask="url(#mask-6)"></path>
            </g>
            <path d="M79.86863,0.388072727 C79.86863,0.388072727 89.9517,16.563689 91.79511,19.5296734 C93.63852,22.4947916 95.74595,24.8405526 103.20602,26.4344227 C110.66609,28.0278597 113.91388,28.7806169 113.91388,28.7806169 L113.91388,29.3557961 C113.91388,29.3557961 109.17356,28.3375383 103.07401,26.965424 C96.97446,25.5933097 94.48089,25.1316071 91.70008,21.2348545 C89.38625,17.9916753 79.86863,4.20902987 79.86863,4.20902987 L79.86863,0.388072727" id="Fill-39" fill="#B4B5B4"></path>
            <path d="M79.86863,18.8605078 C79.86863,18.8605078 89.04698,28.5484662 91.70008,31.3295097 C94.51572,34.2799019 98.12213,35.3713565 103.12088,36.2709403 C107.89302,37.1289448 113.9113,38.1199162 113.9113,38.1199162 L113.9113,38.6652104 C113.9113,38.6652104 108.25981,37.7327097 103.12088,36.8469857 C98.083,35.9777201 94.55614,35.4926292 91.67041,32.8146675 C89.08611,30.4164994 79.86863,21.7099838 79.86863,21.7099838 L79.86863,18.8605078" id="Fill-40" fill="#B4B5B4"></path>
            <path d="M79.86863,23.2254597 C79.86863,23.2254597 88.59763,31.3901461 91.70008,34.1789857 C94.55614,36.7456364 96.8704,37.5438708 103.15141,38.6652104 C109.43328,39.7869831 113.9113,40.4843013 113.9113,40.4843013 L113.9113,41.0603468 C113.9113,41.0603468 108.23057,40.1204831 103.12088,39.3014591 C98.01248,38.4833013 94.75652,38.1601961 91.70008,35.6645766 C88.17279,32.7826169 79.86863,25.8934597 79.86863,25.8934597 L79.86863,23.2254597" id="Fill-41" fill="#B4B5B4"></path>
            <path d="M79.86863,27.8788675 C79.86863,27.8788675 89.8399,35.8464857 91.70309,37.240689 C93.56628,38.6348922 96.03147,40.2616792 103.18409,41.3028922 C110.27694,42.3350097 113.91388,42.8486864 113.91388,42.8486864 L113.91388,43.45505 C113.91388,43.45505 107.48194,42.5151864 103.18409,41.9694591 C98.88667,41.4241649 95.59072,41.1920143 91.73319,38.604574 C87.978,36.0864325 79.86863,30.3355065 79.86863,30.3355065 L79.86863,27.8788675" id="Fill-42" fill="#B4B5B4"></path>
            <path d="M79.86863,32.3520987 C79.86863,32.3520987 89.86957,39.0597799 91.76329,40.1204831 C93.65701,41.1811864 95.88097,42.9093227 103.18409,43.8491864 C110.48807,44.78905 113.91388,45.2130714 113.91388,45.2130714 L113.91388,45.7891169 C113.91388,45.7891169 107.87281,45.12255 103.15399,44.6071409 C98.4356,44.0912987 95.22006,43.3939805 91.70309,41.4544831 C88.18612,39.5145526 79.86863,34.6194656 79.86863,34.6194656 L79.86863,32.3520987" id="Fill-43" fill="#B4B5B4"></path>
            <path d="M79.86863,36.8253299 C79.86863,36.8253299 88.70857,41.6693091 91.70008,43.1817532 C95.03688,44.8696097 97.92261,45.6773727 103.15141,46.3040929 C108.28604,46.9199851 113.9113,47.5172532 113.9113,47.5172532 L113.9113,48.0629805 C113.9113,48.0629805 108.71002,47.5020942 103.15141,46.971526 C97.64096,46.445289 95.67844,46.2036097 91.70008,44.4252318 C88.14269,42.8348266 79.86863,38.9489019 79.86863,38.9489019 L79.86863,36.8253299" id="Fill-44" fill="#B4B5B4"></path>
            <path d="M79.86863,41.3596305 C79.86863,41.3596305 86.85441,44.3728247 91.76329,46.334411 C96.59219,48.2643799 100.27901,48.4267987 103.21419,48.7598656 C104.50677,48.9062591 113.91388,49.8816383 113.91388,49.8816383 L113.91388,50.4264994 C113.91388,50.4264994 108.29335,49.9721597 103.18409,49.5178201 C98.0744,49.0634805 95.87108,48.8707435 91.73319,47.4869351 C87.54628,46.0866682 79.86863,43.3900825 79.86863,43.3900825 L79.86863,41.3596305" id="Fill-45" fill="#B4B5B4"></path>
            <path d="M79.86863,45.9818539 C79.86863,45.9818539 86.92149,48.1838201 91.73061,49.4567506 C96.5393,50.7301143 100.95755,51.2459565 103.18151,51.3966812 C105.40547,51.5491383 113.91388,52.2451571 113.91388,52.2451571 L113.91388,52.7609994 C113.91388,52.7609994 109.07466,52.4287987 103.15141,52.0030448 C98.3625,51.6595831 94.51572,51.2961981 91.70008,50.6690448 C88.58,49.9756247 79.86863,47.8901669 79.86863,47.8901669 L79.86863,45.9818539" id="Fill-46" fill="#B4B5B4"></path>
            <path d="M79.86863,50.5295812 C79.86863,50.5295812 85.63665,51.5313805 91.73061,52.5487721 C96.29893,53.311924 102.4905,53.7922506 103.15141,53.8230019 C103.81318,53.8524539 113.9113,54.5502052 113.9113,54.5502052 L113.9113,55.0950662 C113.9113,55.0950662 107.44754,54.7585344 103.15141,54.519887 C98.67597,54.2704117 94.22719,53.9971149 91.70008,53.7316143 C86.04042,53.1369448 79.86863,52.3499714 79.86863,52.3499714 L79.86863,50.5295812" id="Fill-47" fill="#B4B5B4"></path>
            <path d="M79.86863,55.2362623 C79.86863,55.2362623 88.96571,55.5805903 91.73061,55.6416597 C94.49551,55.7014299 113.9113,56.4901357 113.9113,56.4901357 L113.9113,57.021137 L79.86863,57.021137 L79.86863,55.2362623" id="Fill-48" fill="#B4B5B4"></path>
            <path d="M103.15141,28.9348065 C94.91648,27.1464669 93.05329,24.1150818 91.67041,22.2353545 C90.28753,20.3556273 79.86863,5.01722597 79.86863,5.01722597 L79.86863,8.4786961 C80.27928,9.02009221 89.19705,20.7792156 91.70008,24.0236942 C94.52174,27.6800669 98.94386,28.5103519 103.15141,29.4198974 C107.35853,30.3290097 113.91388,31.597176 113.91388,31.597176 L113.91388,31.1120851 C113.91388,31.1120851 105.27776,29.3965091 103.15141,28.9348065" id="Fill-49" fill="#B4B5B4"></path>
            <path d="M103.15141,31.3598279 C96.38923,30.026261 93.654,27.8736701 91.67041,25.2667396 C89.68682,22.6598091 79.86863,9.62472338 79.86863,9.62472338 L79.86863,12.9025519 C80.27928,13.3932734 89.26112,24.1241773 91.67041,26.9034883 C94.48089,30.1458013 98.40292,30.9960097 103.15141,31.875237 C107.90033,32.7540312 113.9113,33.9061221 113.9113,33.9061221 L113.9113,33.4214643 C113.9113,33.4214643 107.05065,32.1290435 103.15141,31.3598279" id="Fill-50" fill="#B4B5B4"></path>
            <path d="M103.15141,33.8758039 C96.11919,32.5019571 94.67654,31.3702227 91.70008,28.0858974 C89.82915,26.0216623 80.27154,14.6540766 79.86863,14.1746162 L79.86863,17.2034026 C79.86863,17.2034026 88.79973,26.7982409 91.67041,29.6316916 C95.43807,33.3504331 98.97396,33.6332584 103.15141,34.391213 C107.32929,35.1487344 113.9113,36.3618948 113.9113,36.3618948 L113.9113,35.8464857 C113.9113,35.8464857 105.96447,34.4254292 103.15141,33.8758039" id="Fill-51" fill="#B4B5B4"></path>
            <polygon id="Fill-52" fill="#174489" points="23.28708 57.021137 72.37158 57.021137 72.37158 23.9474656 23.28708 23.9474656"></polygon>
            <polyline id="Fill-53" fill="#FFF101" points="48.36124 28.6502487 50.0692 28.6502487 48.69277 29.7304422 49.22769 31.4438526 47.85642 30.3883468 46.48515 31.4438526 47.02566 29.7304422 45.63848 28.6502487 47.34042 28.6502487 47.85642 26.9788506 48.36124 28.6502487"></polyline>
            <polyline id="Fill-54" fill="#FFF101" points="48.42144 50.7062929 50.13155 50.7062929 48.75512 51.747939 49.29004 53.3946494 47.91877 52.3798565 46.5475 53.3946494 47.08801 51.747939 45.69782 50.7062929 47.4032 50.7062929 47.91877 49.0981299 48.42144 50.7062929"></polyline>
            <polyline id="Fill-55" fill="#FFF101" points="53.83815 49.2453896 55.54869 49.2453896 54.17183 50.284437 54.70718 51.9337461 53.33591 50.9163545 51.96464 51.9337461 52.50472 50.284437 51.11496 49.2453896 52.81991 49.2453896 53.33591 47.6372266 53.83815 49.2453896"></polyline>
            <polyline id="Fill-56" fill="#FFF101" points="53.83815 30.1215468 55.54869 30.1215468 54.17183 31.1605942 54.70718 32.8099032 53.33591 31.793811 51.96464 32.8099032 52.50472 31.1605942 51.11496 30.1215468 52.81991 30.1215468 53.33591 28.5133838 53.83815 30.1215468"></polyline>
            <polyline id="Fill-57" fill="#FFF101" points="57.85951 34.1716227 59.56704 34.1716227 58.19061 35.2098039 58.72553 36.8599792 57.35426 35.8443201 55.986 36.8599792 56.52608 35.2098039 55.13589 34.1716227 56.83826 34.1716227 57.35426 32.5638929 57.85951 34.1716227"></polyline>
            <polyline id="Fill-58" fill="#FFF101" points="57.85951 45.2503195 59.56704 45.2503195 58.19061 46.2923987 58.72553 47.9408416 57.35426 46.92345 55.986 47.9408416 56.52608 46.2923987 55.13589 45.2503195 56.83826 45.2503195 57.35426 43.6421565 57.85951 45.2503195"></polyline>
            <polyline id="Fill-59" fill="#FFF101" points="59.36623 39.6262968 61.0772 39.6262968 59.69991 40.6662104 60.23483 42.3155195 58.86356 41.2981279 57.49272 42.3155195 58.0328 40.6662104 56.64304 39.6262968 58.34541 39.6262968 58.86356 38.0198662 59.36623 39.6262968"></polyline>
            <polyline id="Fill-60" fill="#FFF101" points="42.83918 30.1349734 44.54671 30.1349734 43.17028 31.1757532 43.7052 32.8250623 42.33393 31.8072377 40.96266 32.8250623 41.50317 31.1757532 40.11556 30.1349734 41.81793 30.1349734 42.33393 28.5272435 42.83918 30.1349734"></polyline>
            <polyline id="Fill-61" fill="#FFF101" points="38.92919 34.1854825 40.63973 34.1854825 39.26287 35.2245299 39.79521 36.873839 38.42652 35.8577468 37.05568 36.873839 37.59447 35.2245299 36.20557 34.1854825 37.91095 34.1854825 38.42652 32.5773195 38.92919 34.1854825"></polyline>
            <polyline id="Fill-62" fill="#FFF101" points="37.47794 39.6397234 39.18719 39.6397234 37.81033 40.6805032 38.34525 42.3289461 36.97398 41.3150195 35.60271 42.3289461 36.14322 40.6805032 34.75561 39.6397234 36.45841 39.6397234 36.97398 38.0332929 37.47794 39.6397234"></polyline>
            <polyline id="Fill-63" fill="#FFF101" points="38.92919 45.2637461 40.63973 45.2637461 39.26287 46.3058253 39.79521 47.9547013 38.42652 46.9377429 37.05568 47.9547013 37.59447 46.3058253 36.20557 45.2637461 37.91095 45.2637461 38.42652 43.6581818 38.92919 45.2637461"></polyline>
            <polyline id="Fill-64" fill="#FFF101" points="42.89594 49.2588162 44.60347 49.2588162 43.22704 50.2987299 43.75938 51.9471727 42.39069 50.9306474 41.01942 51.9471727 41.55993 50.2987299 40.17275 49.2588162 41.87512 49.2588162 42.39069 47.6510864 42.89594 49.2588162"></polyline>
        </g>
    </g>
</svg>