<svg width="219" height="44" viewBox="0 0 219 44" xmlns="http://www.w3.org/2000/svg"><title>foodora</title><path d="M25.783 2.83c0 .587-.21 1.09-.63 1.51-.42.42-.924.63-1.51.63-.59 0-1.093-.21-1.513-.63-.42-.42-.63-.923-.63-1.51 0-.59.21-1.093.63-1.513.42-.42.924-.63 1.512-.63.587 0 1.09.21 1.51.63.42.42.63.924.63 1.512zm20.324 23.18c.308 0 .567.11.777.335.21.224.343.504.4.84v1.973H0v-1.973c0-.308.112-.58.336-.82.224-.237.476-.37.756-.398H3.57c.195-2.464.734-4.787 1.616-6.97.882-2.185 2.058-4.13 3.527-5.838 1.47-1.71 3.213-3.13 5.228-4.263 2.017-1.134 4.243-1.87 6.678-2.205.504-.084 1.015-.147 1.533-.19.52-.04 1.044-.062 1.576-.062.475 0 .958.02 1.448.063.49.042.973.105 1.45.19 2.435.335 4.66 1.063 6.676 2.183 2.015 1.12 3.758 2.533 5.228 4.24 1.47 1.71 2.645 3.66 3.527 5.86.882 2.197 1.42 4.54 1.617 7.033h2.435zM19.904 9.8c-1.707.42-3.31 1.092-4.808 2.015-1.498.924-2.827 2.037-3.99 3.34-1.16 1.3-2.113 2.763-2.855 4.387-.74 1.624-1.237 3.36-1.49 5.207H10.5c.112-1.625.42-3.178.924-4.662s1.162-2.863 1.974-4.136c.81-1.274 1.77-2.436 2.876-3.486 1.106-1.05 2.317-1.938 3.632-2.666zm21.458 22.34c.588-.112 1.113-.12 1.575-.02.462.097.72.342.777.734.056.42-.07.804-.378 1.154-.308.35-.588.595-.84.735-.112.056-.672.434-1.68 1.134-1.007.7-2.246 1.477-3.716 2.33-1.47.854-3.072 1.666-4.808 2.436-1.736.77-3.4 1.253-4.997 1.45-1.764.223-3.408.125-4.934-.295-1.525-.42-2.792-.728-3.8-.924-.727-.168-1.357-.28-1.89-.336-.53-.056-1.16.014-1.89.21-.95-1.232-1.762-2.59-2.434-4.073-.672-1.484-1.162-3.024-1.47-4.62h18.938c.252 0 .51.043.777.127s.484.196.652.336c.392.28.56.643.504 1.09-.056.45-.238.827-.546 1.135-.196.224-.44.392-.735.504-.294.112-.623.168-.986.168-2.66 0-4.656.273-5.985.82-1.33.545-1.73.818-1.197.818h8.314c.896 0 1.61-.175 2.142-.525.532-.35.938-.693 1.218-1.03.252-.28.44-.6.567-.965.125-.364.188-.7.188-1.008.895-.196 2.057-.44 3.485-.734 1.428-.293 2.477-.51 3.15-.65zm-34.307-.042c.504 2.1 1.308 4.06 2.414 5.88 1.105 1.818 2.442 3.4 4.01 4.744.083.056.118.14.104.252-.014.112-.077.182-.188.21-.644.168-1.295.294-1.953.378-.658.084-1.337.126-2.037.126h-.882c-.196 0-.364-.028-.503-.084-.14-.056-.28-.14-.42-.252-1.623-1.288-3.01-2.793-4.157-4.515-1.147-1.72-2.03-3.59-2.645-5.606-.056-.28.007-.537.19-.775.18-.238.426-.357.734-.357h5.333zm58.79-14.824l.545-3.4c.504-2.688 1.483-4.6 2.94-5.733 1.455-1.133 3.232-1.7 5.332-1.7.812 0 1.603.077 2.373.23.77.155 1.434.428 1.994.82.42.588.67 1.358.755 2.31.084.952.056 1.79-.084 2.52-.7-.45-1.37-.792-2.014-1.03-.644-.237-1.372-.356-2.184-.356-1.344.028-2.338.322-2.98.88-.645.56-1.065 1.457-1.26 2.69l-.463 2.728h5.458c.056.14.133.343.23.61.1.265.148.65.148 1.154 0 .588-.056 1.127-.168 1.617-.112.49-.252.86-.42 1.113h-5.753l-2.1 20.03c-.28.14-.63.245-1.05.315-.42.07-.98.106-1.68.106s-1.252-.028-1.658-.084c-.406-.056-.735-.168-.987-.336l2.436-20.03H61.98c.028-.7.126-1.484.294-2.352.168-.868.378-1.582.63-2.142 0 .028.49.042 1.47.042h1.47zm33.13 10.666c0 1.876-.237 3.724-.713 5.543-.476 1.82-1.218 3.402-2.226 4.746-.868 1.202-2.064 2.16-3.59 2.875-1.526.714-3.283 1.07-5.27 1.07-1.54 0-2.905-.223-4.094-.67-1.19-.45-2.19-1.114-3.003-1.996-.813-.883-1.43-1.967-1.85-3.255-.418-1.288-.628-2.772-.628-4.45 0-1.625.19-3.242.566-4.85.378-1.61.973-3.074 1.785-4.39.952-1.567 2.22-2.84 3.8-3.82 1.582-.98 3.507-1.47 5.774-1.47 1.456 0 2.765.223 3.927.67 1.16.45 2.148 1.114 2.96 1.996.812.883 1.442 1.996 1.89 3.34.448 1.343.672 2.897.672 4.66zm-14.78-3.19c-.45.98-.778 2.078-.987 3.295-.21 1.218-.315 2.36-.315 3.423 0 2.1.378 3.66 1.133 4.682.756 1.022 1.904 1.533 3.444 1.533 1.092 0 2-.224 2.73-.672.727-.447 1.33-1.007 1.805-1.68.56-.755.987-1.82 1.28-3.19.295-1.372.442-2.772.442-4.2 0-2.07-.37-3.667-1.113-4.787-.742-1.12-1.897-1.68-3.465-1.68-1.176.057-2.184.386-3.024.987-.84.602-1.484 1.365-1.932 2.29zm39.724 3.19c0 1.876-.24 3.724-.715 5.543-.476 1.82-1.204 3.402-2.184 4.746-.894 1.202-2.098 2.16-3.61 2.875-1.512.714-3.26 1.07-5.25 1.07-1.54 0-2.91-.223-4.114-.67-1.204-.45-2.212-1.114-3.024-1.996-.81-.883-1.427-1.967-1.847-3.255-.42-1.288-.63-2.772-.63-4.45 0-1.625.196-3.242.588-4.85.392-1.61.98-3.074 1.763-4.39.952-1.567 2.226-2.84 3.822-3.82 1.595-.98 3.527-1.47 5.795-1.47 1.427 0 2.722.223 3.884.67 1.162.45 2.156 1.114 2.98 1.996.827.883 1.457 1.996 1.89 3.34.435 1.343.652 2.897.652 4.66zm-14.74-3.19c-.476.98-.82 2.078-1.03 3.295-.21 1.218-.314 2.36-.314 3.423 0 2.1.378 3.66 1.134 4.682.756 1.022 1.917 1.533 3.485 1.533 1.064 0 1.96-.224 2.688-.672.727-.447 1.343-1.007 1.847-1.68.532-.755.952-1.82 1.26-3.19.308-1.372.462-2.772.462-4.2 0-2.07-.37-3.667-1.113-4.787s-1.898-1.68-3.465-1.68c-1.176.057-2.184.386-3.024.987-.84.602-1.482 1.365-1.93 2.29zm37.96 10.33c-.14 1.035-.07 1.693.21 1.973s.686.42 1.218.42c.448 0 .812-.042 1.092-.126.28-.084.574-.224.882-.42.112.7.063 1.504-.147 2.414-.21.91-.497 1.59-.86 2.038-.42.252-.883.448-1.387.588-.503.14-1.12.21-1.847.21-1.26 0-2.253-.294-2.98-.882-.73-.588-1.134-1.582-1.218-2.98l-.252-.002c-.588 1.064-1.435 1.974-2.54 2.73-1.107.756-2.583 1.134-4.43 1.134-2.045 0-3.808-.672-5.292-2.016-1.484-1.344-2.226-3.835-2.226-7.474 0-1.932.23-3.83.693-5.69.462-1.862 1.183-3.493 2.163-4.892 1.176-1.68 2.617-2.912 4.325-3.696 1.708-.784 3.527-1.176 5.46-1.176.783 0 1.51.063 2.183.19.67.125 1.273.328 1.805.608l1.387-10.666c.588-.336 1.288-.58 2.1-.735.81-.155 1.75-.232 2.813-.232l-3.15 28.68zm-3.57-12.6c-.503-.306-.993-.502-1.468-.586-.476-.084-1.008-.126-1.596-.126-1.372 0-2.54.245-3.506.734-.966.49-1.757 1.127-2.373 1.91-.728.925-1.246 2.1-1.554 3.528-.308 1.428-.462 2.73-.462 3.906 0 1.93.358 3.33 1.072 4.2.714.867 1.785 1.3 3.213 1.3 1.26 0 2.274-.272 3.044-.818.77-.546 1.476-1.225 2.12-2.037l1.51-12.01zm31.62 5.46c0 1.876-.237 3.724-.712 5.543-.476 1.82-1.204 3.402-2.184 4.746-.896 1.202-2.1 2.16-3.61 2.875-1.513.714-3.263 1.07-5.25 1.07-1.54 0-2.912-.223-4.116-.67-1.203-.45-2.21-1.114-3.023-1.996-.812-.883-1.428-1.967-1.848-3.255-.42-1.288-.63-2.772-.63-4.45 0-1.625.196-3.242.588-4.85.392-1.61.98-3.074 1.764-4.39.95-1.567 2.225-2.84 3.82-3.82 1.596-.98 3.528-1.47 5.795-1.47 1.428 0 2.723.223 3.884.67 1.16.45 2.155 1.114 2.98 1.996.827.883 1.457 1.996 1.89 3.34.434 1.343.65 2.897.65 4.66zm-14.738-3.19c-.476.98-.82 2.078-1.03 3.295-.21 1.218-.314 2.36-.314 3.423 0 2.1.378 3.66 1.134 4.682.756 1.022 1.918 1.533 3.486 1.533 1.063 0 1.96-.224 2.687-.672.728-.447 1.344-1.007 1.848-1.68.532-.755.952-1.82 1.26-3.19.307-1.372.46-2.772.46-4.2 0-2.07-.37-3.667-1.11-4.787-.743-1.12-1.898-1.68-3.466-1.68-1.204.057-2.225.386-3.065.987-.84.602-1.47 1.365-1.89 2.29zm25.11-2.017h.295c.42-1.903 1.162-3.29 2.226-4.157 1.064-.868 2.394-1.302 3.99-1.302.447 0 .846.035 1.196.105.35.07.65.188.902.356.196.28.336.623.42 1.03.084.405.126.93.126 1.574s-.042 1.183-.126 1.617c-.084.433-.196.804-.336 1.112-.336-.197-.72-.358-1.155-.484-.433-.126-.93-.19-1.49-.19-1.54 0-2.792.54-3.758 1.618-.966 1.078-1.77 2.61-2.415 4.598l-1.427 13.186c-.252.14-.588.238-1.008.294-.42.056-.966.084-1.638.084-.672 0-1.218-.028-1.637-.084-.42-.056-.756-.154-1.008-.294l2.938-23.264c.448-.224 1.015-.392 1.7-.504.687-.112 1.478-.168 2.373-.168l-.167 4.87zM214.79 35.08c-.112 1.035-.028 1.693.252 1.973s.672.42 1.176.42c.476 0 .854-.042 1.134-.126.28-.084.573-.224.88-.42.113.7.064 1.504-.146 2.414-.21.91-.496 1.59-.86 2.038-.42.252-.882.448-1.386.588-.504.14-1.12.21-1.848.21-1.26 0-2.26-.294-3.002-.882-.742-.588-1.14-1.582-1.197-2.98l-.252-.002c-.56 1.064-1.4 1.974-2.52 2.73-1.118.756-2.574 1.134-4.366 1.134-1.987 0-3.702-.672-5.144-2.016-1.44-1.344-2.162-3.82-2.162-7.432 0-1.96.238-3.87.714-5.732.475-1.862 1.26-3.507 2.35-4.934 1.233-1.708 2.745-2.94 4.536-3.696 1.792-.756 3.738-1.134 5.837-1.134 1.652 0 3.1.217 4.346.65 1.247.435 2.36 1.044 3.34 1.828l-1.68 15.37zm-3.485-12.85c-.364-.252-.784-.42-1.26-.504-.476-.084-.994-.126-1.554-.126-1.37 0-2.525.23-3.463.692-.938.462-1.715 1.085-2.33 1.87-.785 1.035-1.337 2.26-1.66 3.673-.32 1.414-.482 2.78-.482 4.095 0 1.903.33 3.296.987 4.178.657.882 1.686 1.323 3.086 1.323 1.204 0 2.198-.272 2.98-.818.785-.546 1.5-1.24 2.143-2.08l1.555-12.303z" fill="#FFF" fill-rule="evenodd"/></svg>