<svg width="153" height="40" viewBox="0 0 153 40" xmlns="http://www.w3.org/2000/svg"><title>gplus.gr</title><path d="M30.864 2.096C28.344.976 24.48.304 20.56.304 9.136.304.848 8.816.848 19.96c0 11.088 7.952 19.656 18.984 19.656 12.208 0 18.592-8.792 18.592-18.816 0-1.904-.224-4.088-.504-5.544H19.888v7.224h9.856c0 .224.056.616.056.84 0 4.144-3.64 8.344-9.744 8.344-6.44 0-11.032-5.264-11.032-11.704 0-6.776 4.928-11.704 11.536-11.704 4.032 0 7.728 1.064 10.304 2.464V2.096zM43.744 39V.92h12.992c7.448 0 12.544 4.536 12.544 12.04 0 7.56-5.096 12.096-12.544 12.096h-5.04V39h-7.952zm17.36-25.984c0-2.968-1.904-4.424-4.48-4.424h-4.928v8.792h4.928c2.576 0 4.48-1.456 4.48-4.368zM96.72 39v-7.672H83V.92h-7.952V39H96.72zm2.856-12.992h9.464v9.8h6.328v-9.8h9.576v-5.936h-9.576v-9.8h-6.328v9.8h-9.464v5.936zM150.592 2.04C148.24.976 145.272.304 142.416.304c-9.856 0-13.272 5.768-13.272 11.088 0 4.312 1.568 7.56 6.608 10.472l5.208 3.08c2.128 1.232 3.024 2.408 3.024 3.696 0 2.072-1.68 3.528-4.704 3.528-3.528 0-7.224-1.68-9.296-3.304v8.792c2.408 1.008 5.88 1.96 9.632 1.96 8.848 0 12.824-5.432 12.824-11.424 0-4.256-1.96-7.56-6.888-10.528l-5.04-3.024c-1.848-1.064-2.856-2.24-2.856-3.472 0-1.96 1.512-3.416 4.704-3.416 2.912 0 6.272 1.344 8.232 2.744V2.04z" fill="#474747" fill-rule="evenodd"/></svg>