<?xml version="1.0" encoding="UTF-8"?>
<svg width="237px" height="52px" viewBox="0 0 237 52" version="1.1" xmlns="http://www.w3.org/2000/svg" xmlns:xlink="http://www.w3.org/1999/xlink">
    <!-- Generator: Sketch 42 (36781) - http://www.bohemiancoding.com/sketch -->
    <title>kanooh</title>
    <desc>Created with Sketch.</desc>
    <defs></defs>
    <g id="Page-1" stroke="none" stroke-width="1" fill="none" fill-rule="evenodd">
        <g id="projects---with-space" transform="translate(-104.000000, -538.000000)">
            <g id="Kanooh" transform="translate(51.000000, 491.000000)">
                <g id="kanooh" transform="translate(53.000000, 47.000000)">
                    <g id="Page-1">
                        <g id="Group-8" transform="translate(0.000000, 0.992200)" fill="#005384">
                            <path d="M0.8745,1.876 L10.0305,0.938 L11.3745,0.938 L11.3745,27.126 L21.3435,15.251 L33.3125,15.251 L19.0625,32.095 C19.4165,32.762 19.9105,33.46 20.5465,34.189 C21.1815,34.918 21.9005,35.647 22.7025,36.376 C23.5045,37.105 24.3745,37.814 25.3125,38.501 C26.2495,39.189 27.2075,39.819 28.1875,40.392 C29.1665,40.965 30.1455,41.465 31.1245,41.892 C32.1035,42.319 33.0305,42.637 33.9055,42.845 L30.2185,50.814 C28.1345,50.814 26.1605,50.433 24.2965,49.673 C22.4315,48.913 20.7025,47.944 19.1085,46.767 C17.5155,45.59 16.0665,44.288 14.7655,42.86 C13.4625,41.434 12.3325,40.043 11.3745,38.689 L11.3745,50.251 L0.8745,50.251 L0.8745,1.876 Z" id="Fill-1"></path>
                            <path d="M57.3433,35.7822 L54.3433,35.7822 C53.6553,35.7822 52.9373,35.8192 52.1873,35.8912 C51.4373,35.9652 50.7493,36.1322 50.1243,36.3912 C49.4993,36.6522 48.9843,37.0322 48.5773,37.5322 C48.1713,38.0322 47.9683,38.6992 47.9683,39.5322 C47.9683,40.2612 48.1503,40.8502 48.5153,41.2982 C48.8793,41.7462 49.3123,42.0952 49.8123,42.3452 C50.3123,42.5952 50.8383,42.7612 51.3903,42.8452 C51.9423,42.9282 52.4053,42.9702 52.7803,42.9702 C53.2183,42.9702 53.7023,42.8912 54.2343,42.7352 C54.7653,42.5792 55.2603,42.3712 55.7183,42.1102 C56.1763,41.8502 56.5623,41.5432 56.8743,41.1882 C57.1873,40.8352 57.3433,40.4492 57.3433,40.0322 L57.3433,35.7822 Z M69.0313,50.8762 C67.6353,50.8762 66.4313,50.7872 65.4213,50.6102 C64.4103,50.4322 63.5313,50.1782 62.7813,49.8452 C62.0313,49.5112 61.3853,49.0952 60.8433,48.5952 C60.3013,48.0952 59.8123,47.5112 59.3743,46.8452 C58.1453,48.0322 56.6923,49.0012 55.0153,49.7512 C53.3383,50.5012 51.4473,50.8762 49.3433,50.8762 C48.1553,50.8762 46.8853,50.7202 45.5303,50.4072 C44.1763,50.0952 42.9213,49.5272 41.7653,48.7042 C40.6093,47.8822 39.6503,46.7612 38.8903,45.3452 C38.1293,43.9282 37.7493,42.1162 37.7493,39.9072 C37.7493,38.2412 38.0043,36.7612 38.5153,35.4692 C39.0253,34.1782 39.8273,33.0942 40.9213,32.2192 C42.0153,31.3442 43.4163,30.6832 45.1243,30.2352 C46.8323,29.7882 48.8853,29.5632 51.2803,29.5632 C52.1763,29.5632 53.0933,29.5902 54.0303,29.6412 C54.9683,29.6942 56.0723,29.7722 57.3433,29.8762 L57.3433,29.7192 C57.3433,28.3862 57.1873,27.2772 56.8743,26.3912 C56.5623,25.5072 56.1403,24.7982 55.6093,24.2662 C55.0773,23.7352 54.4573,23.3552 53.7493,23.1262 C53.0413,22.8972 52.3013,22.7822 51.5303,22.7822 C50.7393,22.7822 49.8383,22.8712 48.8273,23.0482 C47.8173,23.2252 46.7963,23.4542 45.7653,23.7352 C44.7343,24.0162 43.7493,24.3242 42.8123,24.6572 C41.8743,24.9902 41.1033,25.3132 40.4993,25.6262 L38.3433,17.9072 C39.4473,17.4692 40.5563,17.0482 41.6713,16.6412 C42.7853,16.2352 43.9163,15.8862 45.0623,15.5942 C46.2073,15.3032 47.3793,15.0692 48.5773,14.8912 C49.7753,14.7152 51.0103,14.6262 52.2803,14.6262 C53.3433,14.6262 54.4523,14.6992 55.6093,14.8442 C56.7653,14.9902 57.9003,15.2352 59.0153,15.5792 C60.1293,15.9232 61.1973,16.3862 62.2183,16.9692 C63.2393,17.5532 64.1563,18.2772 64.9683,19.1412 C65.7813,20.0062 66.4523,21.0322 66.9843,22.2192 C67.5153,23.4072 67.8433,24.7722 67.9683,26.3132 L67.9683,38.0952 C67.9683,38.8662 67.9993,39.5432 68.0623,40.1262 C68.1243,40.7102 68.3433,41.2412 68.7183,41.7202 C69.0723,42.1572 69.6143,42.5532 70.3433,42.9072 C71.0723,43.2612 72.1143,43.5852 73.4683,43.8762 L69.0313,50.8762 Z" id="Fill-3"></path>
                            <path d="M100.3433,31.7197 C100.3433,28.7197 99.8483,26.5317 98.8593,25.1567 C97.8693,23.7817 96.3323,23.0947 94.2493,23.0947 C93.2073,23.0947 92.1873,23.2667 91.1873,23.6107 C90.1873,23.9537 89.0303,24.4907 87.7183,25.2197 L87.7183,50.2507 L77.2183,50.2507 L77.2183,14.6257 L84.6553,14.6257 L86.2493,18.8447 C87.3123,18.1567 88.3323,17.5527 89.3123,17.0317 C90.2913,16.5117 91.2753,16.0687 92.2653,15.7037 C93.2543,15.3397 94.2753,15.0687 95.3273,14.8917 C96.3793,14.7147 97.4993,14.6257 98.6873,14.6257 C100.6663,14.6257 102.4163,14.8867 103.9373,15.4067 C105.4573,15.9277 106.7283,16.7357 107.7493,17.8287 C108.7703,18.9227 109.5413,20.3187 110.0623,22.0167 C110.5823,23.7147 110.8433,25.7507 110.8433,28.1257 L110.8433,50.2507 L100.3433,50.2507 L100.3433,31.7197 Z" id="Fill-4"></path>
                            <path d="M127.2183,32.5635 C127.2183,33.9385 127.3903,35.2305 127.7343,36.4385 C128.0773,37.6475 128.5983,38.6995 129.2963,39.5945 C129.9933,40.4915 130.8593,41.1945 131.8903,41.7045 C132.9213,42.2145 134.1243,42.4695 135.4993,42.4695 C136.7903,42.4695 137.9313,42.2305 138.9213,41.7515 C139.9103,41.2725 140.7433,40.6105 141.4213,39.7665 C142.0983,38.9225 142.6093,37.9135 142.9523,36.7355 C143.2963,35.5585 143.4683,34.2725 143.4683,32.8765 C143.4683,31.5005 143.2963,30.2145 142.9523,29.0165 C142.6093,27.8195 142.0983,26.7775 141.4213,25.8915 C140.7433,25.0055 139.9003,24.3085 138.8903,23.7975 C137.8793,23.2875 136.6973,23.0325 135.3433,23.0325 C134.0313,23.0325 132.8683,23.2715 131.8593,23.7505 C130.8483,24.2305 129.9993,24.8915 129.3123,25.7355 C128.6243,26.5795 128.1033,27.5845 127.7493,28.7505 C127.3953,29.9175 127.2183,31.1885 127.2183,32.5635 M116.4683,32.8135 C116.4683,30.0635 116.9163,27.5745 117.8123,25.3445 C118.7073,23.1155 119.9843,21.2045 121.6403,19.6105 C123.2963,18.0165 125.2903,16.7875 127.6243,15.9225 C129.9573,15.0585 132.5723,14.6255 135.4683,14.6255 C138.3843,14.6255 141.0043,15.0635 143.3273,15.9385 C145.6503,16.8135 147.6183,18.0375 149.2343,19.6105 C150.8483,21.1835 152.0823,23.0795 152.9373,25.2975 C153.7903,27.5165 154.2183,29.9695 154.2183,32.6575 C154.2183,35.3865 153.7703,37.8715 152.8743,40.1105 C151.9783,42.3505 150.7023,44.2665 149.0463,45.8605 C147.3903,47.4545 145.3953,48.6885 143.0623,49.5635 C140.7283,50.4385 138.1143,50.8765 135.2183,50.8765 C132.3223,50.8765 129.7183,50.4385 127.4063,49.5635 C125.0933,48.6885 123.1243,47.4595 121.4993,45.8765 C119.8743,44.2925 118.6293,42.3915 117.7653,40.1725 C116.9003,37.9545 116.4683,35.5015 116.4683,32.8135" id="Fill-5"></path>
                            <path d="M169.9683,32.5635 C169.9683,33.9385 170.1403,35.2305 170.4843,36.4385 C170.8273,37.6475 171.3483,38.6995 172.0463,39.5945 C172.7433,40.4915 173.6093,41.1945 174.6403,41.7045 C175.6713,42.2145 176.8743,42.4695 178.2493,42.4695 C179.5403,42.4695 180.6813,42.2305 181.6713,41.7515 C182.6603,41.2725 183.4933,40.6105 184.1713,39.7665 C184.8483,38.9225 185.3593,37.9135 185.7023,36.7355 C186.0463,35.5585 186.2183,34.2725 186.2183,32.8765 C186.2183,31.5005 186.0463,30.2145 185.7023,29.0165 C185.3593,27.8195 184.8483,26.7775 184.1713,25.8915 C183.4933,25.0055 182.6503,24.3085 181.6403,23.7975 C180.6293,23.2875 179.4473,23.0325 178.0933,23.0325 C176.7813,23.0325 175.6183,23.2715 174.6093,23.7505 C173.5983,24.2305 172.7493,24.8915 172.0623,25.7355 C171.3743,26.5795 170.8533,27.5845 170.4993,28.7505 C170.1453,29.9175 169.9683,31.1885 169.9683,32.5635 M159.2183,32.8135 C159.2183,30.0635 159.6653,27.5745 160.5623,25.3445 C161.4573,23.1155 162.7343,21.2045 164.3903,19.6105 C166.0463,18.0165 168.0403,16.7875 170.3743,15.9225 C172.7073,15.0585 175.3223,14.6255 178.2183,14.6255 C181.1343,14.6255 183.7543,15.0635 186.0773,15.9385 C188.4003,16.8135 190.3683,18.0375 191.9843,19.6105 C193.5983,21.1835 194.8323,23.0795 195.6873,25.2975 C196.5403,27.5165 196.9683,29.9695 196.9683,32.6575 C196.9683,35.3865 196.5203,37.8715 195.6243,40.1105 C194.7283,42.3505 193.4523,44.2665 191.7963,45.8605 C190.1403,47.4545 188.1453,48.6885 185.8123,49.5635 C183.4783,50.4385 180.8643,50.8765 177.9683,50.8765 C175.0723,50.8765 172.4683,50.4385 170.1563,49.5635 C167.8433,48.6885 165.8743,47.4595 164.2493,45.8765 C162.6243,44.2925 161.3793,42.3915 160.5153,40.1725 C159.6503,37.9545 159.2183,35.5015 159.2183,32.8135" id="Fill-6"></path>
                            <path d="M202.5933,1.876 L211.7493,0.938 L213.0933,0.938 L213.0933,17.939 C213.9893,17.397 214.8683,16.923 215.7343,16.517 C216.5983,16.11 217.4733,15.767 218.3593,15.485 C219.2433,15.204 220.1563,14.991 221.0933,14.845 C222.0313,14.699 223.0313,14.626 224.0933,14.626 C226.0723,14.626 227.8223,14.887 229.3433,15.407 C230.8643,15.928 232.1343,16.735 233.1563,17.829 C234.1763,18.923 234.9473,20.319 235.4683,22.017 C235.9893,23.715 236.2493,25.751 236.2493,28.126 L236.2493,50.251 L225.7493,50.251 L225.7493,31.72 C225.7493,28.72 225.2543,26.532 224.2653,25.157 C223.2753,23.782 221.7393,23.095 219.6563,23.095 C218.6143,23.095 217.5873,23.267 216.5773,23.61 C215.5673,23.954 214.4063,24.491 213.0933,25.22 L213.0933,50.251 L202.5933,50.251 L202.5933,1.876 Z" id="Fill-7"></path>
                        </g>
                        <path d="M85.5015,11.9478 L80.4255,8.2268 C82.6885,3.1818 85.7725,0.6588 89.6775,0.6588 C90.8375,0.6588 93.0135,1.2068 96.2035,2.3038 C98.3885,3.0628 99.7805,3.4428 100.3805,3.4428 C101.7335,3.4428 103.0005,2.4728 104.1795,0.5318 L109.2555,4.2528 C107.9795,6.9698 106.6355,8.8978 105.2245,10.0368 C103.8125,11.1758 102.0435,11.7458 99.9165,11.7458 C98.6405,11.7458 96.4255,11.1798 93.2745,10.0498 C91.3215,9.3578 89.9775,9.0118 89.2425,9.0118 C87.9475,9.0118 86.6995,9.9908 85.5015,11.9478" id="Fill-9" fill="#55C5E9"></path>
                    </g>
                </g>
            </g>
        </g>
    </g>
</svg>