<?xml version="1.0" encoding="UTF-8"?>
<svg width="265px" height="26px" viewBox="0 0 265 26" version="1.1" xmlns="http://www.w3.org/2000/svg" xmlns:xlink="http://www.w3.org/1999/xlink">
    <!-- Generator: Sketch 42 (36781) - http://www.bohemiancoding.com/sketch -->
    <title>MEISTERCLASS</title>
    <desc>Created with Sketch.</desc>
    <defs></defs>
    <g id="Page-1" stroke="none" stroke-width="1" fill="none" fill-rule="evenodd">
        <g id="projects---with-space" transform="translate(-89.000000, -742.000000)" fill="#FFFFFF">
            <g id="meisterclass" transform="translate(50.000000, 682.000000)">
                <path d="M48.236,85 L49.424,73.732 C49.46,73.264 49.46,72.328 49.46,71.86 L49.712,71.86 C49.748,72.868 49.928,73.624 50.18,74.488 L53.384,85 L58.496,85 L62.06,73.876 C62.204,73.408 62.42,72.472 62.528,71.86 L62.672,71.86 C62.672,72.868 62.744,73.408 62.816,74.236 L63.896,85 L72.284,85 L68.36,60.988 L59.468,60.988 L56.66,70.816 C56.372,71.824 56.228,72.544 56.192,73.588 L55.976,73.588 C55.94,73.264 55.796,72.076 55.436,70.816 L52.628,60.988 L43.664,60.988 L39.776,85 L48.236,85 Z M92.552,85 L92.552,78.412 L84.848,78.412 L84.848,76.108 L91.652,76.108 L91.652,69.808 L84.848,69.808 L84.848,67.576 L92.336,67.576 L92.336,60.988 L76.136,60.988 L76.136,85 L92.552,85 Z M105.008,85 L105.008,60.988 L96.296,60.988 L96.296,85 L105.008,85 Z M127.544,62.536 C124.628,60.772 122.144,60.448 120.236,60.448 C116.42,60.448 113.72,61.672 111.884,63.544 C110.3,65.128 109.544,67.036 109.544,69.268 C109.544,70.996 110.048,72.436 111.272,73.696 C112.604,75.064 114.08,75.496 115.448,75.748 L117.572,76.144 C118.472,76.324 118.94,76.432 119.228,76.72 C119.48,76.972 119.516,77.332 119.516,77.548 C119.516,77.908 119.444,78.304 119.048,78.628 C118.868,78.772 118.364,79.06 117.176,79.06 C115.052,79.06 113.216,77.98 112.316,77.296 L111.38,76.576 L108.752,83.344 L109.544,83.668 C111.596,84.496 114.044,85.54 117.716,85.54 C122.216,85.54 124.808,83.884 126.176,82.48 C127.796,80.788 128.336,78.88 128.336,76.828 C128.336,75.388 128.012,73.552 126.5,72.076 C125.78,71.356 124.52,70.492 122.396,70.024 L119.624,69.412 C118.292,69.124 118.22,68.656 118.22,68.152 C118.22,67.792 118.328,67.54 118.652,67.288 C119.12,66.928 119.84,66.856 120.308,66.856 C122.252,66.856 124.16,67.936 125.204,68.656 L127.544,62.536 Z M143.384,85 L143.384,68.584 L148.28,68.8 L148.28,60.988 L129.92,60.988 L129.92,68.8 L134.816,68.584 L134.816,85 L143.384,85 Z M167.36,85 L167.36,78.412 L159.656,78.412 L159.656,76.108 L166.46,76.108 L166.46,69.808 L159.656,69.808 L159.656,67.576 L167.144,67.576 L167.144,60.988 L150.944,60.988 L150.944,85 L167.36,85 Z M179.6,85 L171.104,85 L171.104,60.988 L181.94,60.988 C184.46,60.988 187.088,61.276 189.284,63.472 C190.508,64.696 191.552,66.532 191.552,69.376 C191.552,71.5 190.904,72.832 190.22,73.66 C189.5,74.56 188.312,75.28 186.908,75.568 L186.908,75.784 C187.376,76.036 187.844,76.396 188.168,76.9 L193.568,85 L183.524,85 L180.068,77.98 C179.96,77.728 179.852,77.62 179.744,77.224 L179.6,77.296 L179.6,85 Z M179.6,67.576 L179.6,71.68 L180.608,71.68 C181.112,71.68 181.904,71.608 182.444,71.14 C182.732,70.888 183.056,70.42 183.056,69.664 C183.056,69.124 182.912,68.584 182.588,68.224 C182.3,67.9 181.832,67.576 181.112,67.576 L179.6,67.576 Z M214.268,75.604 C213.548,76.396 211.856,77.872 209.408,77.872 C207.68,77.872 206.564,77.188 205.844,76.504 C204.908,75.604 204.44,74.344 204.44,73.048 C204.44,71.788 204.872,70.528 205.7,69.628 C206.564,68.692 207.824,68.152 209.192,68.152 C211.388,68.152 213.26,69.52 214.268,70.528 L214.016,61.384 C212.108,60.736 210.092,60.448 208.292,60.448 C203.792,60.448 200.912,62.392 199.22,64.084 C197.024,66.316 195.62,69.484 195.62,73.192 C195.62,76.576 196.844,79.816 199.112,82.048 C201.488,84.424 204.836,85.54 207.968,85.54 C209.084,85.54 211.748,85.432 214.016,84.568 L214.268,75.604 Z M234.032,85 L234.032,77.26 L226.688,77.26 L226.688,60.988 L217.976,60.988 L217.976,85 L234.032,85 Z M251.024,82.012 L244.4,82.012 L243.752,85 L234.536,85 L242.852,60.988 L252.5,60.988 L261.068,85 L251.816,85 L251.024,82.012 Z M248.396,71.716 C248.18,70.78 248.036,69.88 247.928,69.016 L247.604,69.016 C247.568,70.024 247.424,70.852 247.208,71.716 L246.02,76.324 L249.512,76.324 L248.396,71.716 Z M281.192,62.536 C278.276,60.772 275.792,60.448 273.884,60.448 C270.068,60.448 267.368,61.672 265.532,63.544 C263.948,65.128 263.192,67.036 263.192,69.268 C263.192,70.996 263.696,72.436 264.92,73.696 C266.252,75.064 267.728,75.496 269.096,75.748 L271.22,76.144 C272.12,76.324 272.588,76.432 272.876,76.72 C273.128,76.972 273.164,77.332 273.164,77.548 C273.164,77.908 273.092,78.304 272.696,78.628 C272.516,78.772 272.012,79.06 270.824,79.06 C268.7,79.06 266.864,77.98 265.964,77.296 L265.028,76.576 L262.4,83.344 L263.192,83.668 C265.244,84.496 267.692,85.54 271.364,85.54 C275.864,85.54 278.456,83.884 279.824,82.48 C281.444,80.788 281.984,78.88 281.984,76.828 C281.984,75.388 281.66,73.552 280.148,72.076 C279.428,71.356 278.168,70.492 276.044,70.024 L273.272,69.412 C271.94,69.124 271.868,68.656 271.868,68.152 C271.868,67.792 271.976,67.54 272.3,67.288 C272.768,66.928 273.488,66.856 273.956,66.856 C275.9,66.856 277.808,67.936 278.852,68.656 L281.192,62.536 Z M302.54,62.536 C299.624,60.772 297.14,60.448 295.232,60.448 C291.416,60.448 288.716,61.672 286.88,63.544 C285.296,65.128 284.54,67.036 284.54,69.268 C284.54,70.996 285.044,72.436 286.268,73.696 C287.6,75.064 289.076,75.496 290.444,75.748 L292.568,76.144 C293.468,76.324 293.936,76.432 294.224,76.72 C294.476,76.972 294.512,77.332 294.512,77.548 C294.512,77.908 294.44,78.304 294.044,78.628 C293.864,78.772 293.36,79.06 292.172,79.06 C290.048,79.06 288.212,77.98 287.312,77.296 L286.376,76.576 L283.748,83.344 L284.54,83.668 C286.592,84.496 289.04,85.54 292.712,85.54 C297.212,85.54 299.804,83.884 301.172,82.48 C302.792,80.788 303.332,78.88 303.332,76.828 C303.332,75.388 303.008,73.552 301.496,72.076 C300.776,71.356 299.516,70.492 297.392,70.024 L294.62,69.412 C293.288,69.124 293.216,68.656 293.216,68.152 C293.216,67.792 293.324,67.54 293.648,67.288 C294.116,66.928 294.836,66.856 295.304,66.856 C297.248,66.856 299.156,67.936 300.2,68.656 L302.54,62.536 Z" id="MEISTERCLASS"></path>
            </g>
        </g>
    </g>
</svg>