<svg width="212" height="61" viewBox="0 0 212 61" xmlns="http://www.w3.org/2000/svg"><title>Combined Shape</title><path d="M48.286 30.57c0-10.646-8.64-19.284-19.286-19.284-10.647 0-19.286 8.638-19.286 19.285 0 10.65 8.64 19.287 19.286 19.287 10.647 0 19.286-8.638 19.286-19.286zm9.24 9.276c-.1.335-.367.57-.67.67L47.08 43.73v10.245c0 .335-.167.67-.435.87-.3.202-.636.27-.97.135l-9.778-3.147-6.026 8.303c-.2.268-.535.435-.87.435-.335 0-.67-.166-.87-.434l-6.027-8.303-9.777 3.147c-.335.134-.67.067-.97-.134-.27-.2-.436-.536-.436-.87V43.73l-9.777-3.214c-.3-.1-.57-.335-.67-.67-.1-.335-.067-.703.134-.97l6.027-8.305L.607 22.27c-.2-.302-.234-.636-.134-.97.1-.336.37-.57.67-.67l9.777-3.215V7.167c0-.334.167-.67.435-.87.3-.2.636-.268.97-.134l9.778 3.147 6.026-8.303c.4-.536 1.34-.536 1.74 0l6.027 8.303 9.777-3.147c.335-.134.67-.067.97.134.27.2.436.536.436.87v10.246l9.777 3.214c.302.1.57.335.67.67.1.335.067.67-.134.97l-6.027 8.304 6.027 8.305c.2.268.234.636.134.97zM76.17 32.62H65.872c.456 2.712 1.98 4.068 4.572 4.068 1.56 0 3.432-.528 5.616-1.584l-1.512 4.176c-1.56.792-3.432 1.188-5.616 1.188-2.904 0-5.088-.852-6.552-2.556-1.32-1.536-1.98-3.492-1.98-5.868 0-2.76.816-5.004 2.448-6.732 1.632-1.728 3.732-2.592 6.3-2.592 4.8 0 7.152 2.7 7.056 8.1l-.036 1.8zm-10.332-3.564h5.184c0-2.112-.828-3.168-2.484-3.168-1.536 0-2.436 1.056-2.7 3.168zM87.472 40v-1.116l-1.152 1.044c-.864.36-1.728.54-2.592.54-1.608 0-2.898-.426-3.87-1.278-.972-.852-1.458-1.986-1.458-3.402 0-1.2.372-2.232 1.116-3.096.648-.744 1.884-1.452 3.708-2.124l4.248-1.548c0-1.128-.12-1.872-.36-2.232-.384-.576-1.092-.864-2.124-.864-1.32 0-3.228.612-5.724 1.836l1.188-4.5c1.632-.36 3.348-.54 5.148-.54 2.784 0 4.716.528 5.796 1.584.576.576.948 1.272 1.116 2.088.072.384.108 1.176.108 2.376v6.984c0 1.824.276 3.24.828 4.248h-5.976zm0-7.74h-3.06c-.744.624-1.116 1.38-1.116 2.268 0 1.56.78 2.34 2.34 2.34.648 0 1.26-.24 1.836-.72V32.26zm15.66-14.004v4.932h4.104V26.5h-4.104v8.028c0 1.536.72 2.304 2.16 2.304.864 0 1.956-.408 3.276-1.224l-1.908 3.924c-1.056.528-2.244.792-3.564.792-1.752 0-3.084-.504-3.996-1.512-.744-.816-1.116-2.184-1.116-4.104V26.5h-3.276c4.008-3.6 6.816-6.348 8.424-8.244zm12.42 6.552l1.332-1.404c.816-.456 1.692-.684 2.628-.684 1.704 0 3.012.468 3.924 1.404.816.84 1.224 2.292 1.224 4.356v7.272c0 1.848.276 3.264.828 4.248h-6.804c.552-.984.828-2.4.828-4.248V28.84c0-1.56-.624-2.34-1.872-2.34-.6 0-1.296.264-2.088.792v8.46c0 1.848.276 3.264.828 4.248h-6.804c.552-1.008.828-2.424.828-4.248V20.128c0-1.44-.276-2.616-.828-3.528l6.66-1.944c-.456 1.488-.684 3.132-.684 4.932v5.22zm28.044 7.812H133.3c.456 2.712 1.98 4.068 4.572 4.068 1.56 0 3.432-.528 5.616-1.584l-1.512 4.176c-1.56.792-3.432 1.188-5.616 1.188-2.904 0-5.088-.852-6.552-2.556-1.32-1.536-1.98-3.492-1.98-5.868 0-2.76.816-5.004 2.448-6.732 1.632-1.728 3.732-2.592 6.3-2.592 4.8 0 7.152 2.7 7.056 8.1l-.036 1.8zm-10.332-3.564h5.184c0-2.112-.828-3.168-2.484-3.168-1.536 0-2.436 1.056-2.7 3.168zm18.972-5.868v1.404l1.368-1.332c.6-.336 1.212-.504 1.836-.504.792 0 1.608.18 2.448.54l-1.476 4.104c-.792-.648-1.488-.972-2.088-.972-.648 0-1.176.252-1.584.756-.336.408-.504 1.104-.504 2.088v6.48c0 1.848.276 3.264.828 4.248h-6.804c.552-1.056.828-2.472.828-4.248v-8.316c0-1.776-.276-3.192-.828-4.248h5.976zM169.876 40h-4.212l-4.644-12.816c-.6-1.632-1.356-2.964-2.268-3.996h6.912c-.168.432-.252.768-.252 1.008 0 .264.132.816.396 1.656l2.232 7.056 2.268-7.236c.24-.768.36-1.248.36-1.44 0-.24-.096-.588-.288-1.044h5.832c-.768.888-1.38 2.016-1.836 3.384L169.876 40zm17.46 0v-1.62l-1.332 1.404c-.816.456-1.692.684-2.628.684-1.704 0-3.012-.468-3.924-1.404-.816-.84-1.224-2.292-1.224-4.356v-7.272c0-1.776-.276-3.192-.828-4.248h6.804c-.552.984-.828 2.4-.828 4.248v6.912c0 1.56.624 2.34 1.872 2.34.6 0 1.296-.264 2.088-.792v-8.46c0-1.848-.276-3.264-.828-4.248h6.804c-.552.984-.828 2.4-.828 4.248v8.316c0 1.848.276 3.264.828 4.248h-5.976zm24.228-7.38h-10.296c.456 2.712 1.98 4.068 4.572 4.068 1.56 0 3.432-.528 5.616-1.584l-1.512 4.176c-1.56.792-3.432 1.188-5.616 1.188-2.904 0-5.088-.852-6.552-2.556-1.32-1.536-1.98-3.492-1.98-5.868 0-2.76.816-5.004 2.448-6.732 1.632-1.728 3.732-2.592 6.3-2.592 4.8 0 7.152 2.7 7.056 8.1l-.036 1.8zm-10.332-3.564h5.184c0-2.112-.828-3.168-2.484-3.168-1.536 0-2.436 1.056-2.7 3.168zM32.812 40h2.808l4.608-18.828h-2.052L34.18 38.416l-4.32-17.244h-2.376L23.092 38.38 19.06 21.172H16.9L21.616 40h2.772l4.248-16.884L32.812 40z" fill="#8695FF" fill-rule="evenodd"/></svg>