<?xml version="1.0" encoding="UTF-8"?>
<svg width="253px" height="47px" viewBox="0 0 253 47" version="1.1" xmlns="http://www.w3.org/2000/svg" xmlns:xlink="http://www.w3.org/1999/xlink">
    <!-- Generator: Sketch 42 (36781) - http://www.bohemiancoding.com/sketch -->
    <title>zlounge</title>
    <desc>Created with Sketch.</desc>
    <defs>
        <linearGradient x1="84.2855408%" y1="108.994338%" x2="15.6975835%" y2="-9.0017333%" id="linearGradient-1">
            <stop stop-color="#F47026" offset="0%"></stop>
            <stop stop-color="#F47026" offset="37.533599%"></stop>
            <stop stop-color="#FBC195" offset="94.923401%"></stop>
            <stop stop-color="#FBC195" offset="94.923401%"></stop>
            <stop stop-color="#FBC195" offset="100%"></stop>
        </linearGradient>
        <linearGradient x1="91.5401164%" y1="191.018763%" x2="17.0486967%" y2="-15.7795822%" id="linearGradient-2">
            <stop stop-color="#F47026" offset="0%"></stop>
            <stop stop-color="#F47026" offset="37.533599%"></stop>
            <stop stop-color="#FBC195" offset="94.923401%"></stop>
            <stop stop-color="#FBC195" offset="94.923401%"></stop>
            <stop stop-color="#FBC195" offset="100%"></stop>
        </linearGradient>
        <linearGradient x1="0.000444619387%" y1="0.000541381104%" x2="99.9997836%" y2="0.000541381104%" id="linearGradient-3">
            <stop stop-color="#F57D34" offset="0%"></stop>
            <stop stop-color="#F47026" offset="53.379798%"></stop>
            <stop stop-color="#F47026" offset="53.379798%"></stop>
            <stop stop-color="#F47026" offset="100%"></stop>
        </linearGradient>
    </defs>
    <g id="Page-1" stroke="none" stroke-width="1" fill="none" fill-rule="evenodd">
        <g id="projects---with-space" transform="translate(-470.000000, -151.000000)">
            <g id="zalando" transform="translate(426.000000, 102.000000)">
                <g id="zlounge" transform="translate(44.000000, 49.000000)">
                    <g id="svg6365">
                        <path d="M104.773819,12.4279678 C102.856687,11.3632592 100.006511,10.8453221 96.059811,10.8438804 C90.6596459,10.8458988 85.6467622,11.9770706 83.7496191,12.6910813 C83.3212895,12.8298466 82.8629769,13.2032515 82.8554811,13.8422929 L82.8566234,13.9832209 L83.388109,16.695092 L83.4013015,16.7455521 C83.5676362,17.2977301 84.0230933,17.5453451 84.4378591,17.5453451 L84.4398579,17.5453451 C84.573354,17.5395782 84.6772239,17.5136273 84.773955,17.4887577 L85.6727332,17.2768252 C88.0249765,16.6821166 91.5804688,15.7839264 95.550727,15.7839264 C97.95901,15.7839264 99.5780958,15.9958589 100.663554,16.4586503 C102.424346,17.1319325 102.435411,18.281342 102.453258,20.1840491 L102.453258,23.03 C102.251586,23.0263957 101.911064,23.0227914 101.386717,23.0227914 C99.4421012,23.0227914 95.6185459,23.1139801 91.8581692,23.7227454 C86.1199807,24.6126457 81.3719474,25.9995782 81.4019305,33.9830905 C81.4039293,44.1176457 90.7131015,44.1367485 95.1866469,44.1461196 L95.187218,44.1461196 C98.2240747,44.1455429 101.026064,43.6926994 102.856102,43.3106442 C107.032315,42.3313574 108.098499,40.992362 108.042459,36.8020092 L108.042459,19.9497699 C108.048542,17.3795475 108.056023,14.1807362 104.773591,12.4279678 L104.773819,12.4279678 Z M102.480957,38.461066 C100.258283,39.1894939 97.826442,39.5582132 95.2507535,39.5582132 L95.2507535,39.7950153 L95.2475553,39.5582132 C91.1320221,39.5264954 87.1128629,39.051089 87.1078657,33.7502531 C87.1342794,29.5343098 89.3619501,29.032592 92.1817864,28.3967945 L92.3773903,28.3528221 C94.8859738,27.8114571 101.182775,27.709816 102.481685,27.6946779 L102.481114,38.461066 L102.480957,38.461066 Z M154.577612,19.9497699 L154.577612,36.8020092 C154.633651,40.992362 153.567111,42.3313574 149.391254,43.3106442 C147.561216,43.6926994 144.759227,44.1453988 141.722013,44.1461196 L141.721728,44.1461196 C137.248182,44.1367485 127.939153,44.1176601 127.936655,33.9830905 C127.907028,25.9995782 132.655062,24.6126457 138.39325,23.7227454 C142.153627,23.1139801 145.977182,23.0227914 147.921441,23.0227914 C148.446145,23.0227914 148.78631,23.0263957 148.988339,23.03 L148.988339,20.1840491 C148.970492,18.281342 148.959427,17.1319325 147.198635,16.4586503 C146.113177,15.9958589 144.494091,15.7839264 142.085808,15.7839264 C138.115193,15.7839264 134.560057,16.6821166 132.207814,17.2768252 L131.309036,17.4887577 C131.212305,17.5136417 131.108435,17.5395782 130.974582,17.5453451 L130.972869,17.5453451 C130.558103,17.5453451 130.102646,17.2977301 129.936311,16.7455521 L129.92309,16.695092 L129.391604,13.9832209 L129.390462,13.8422929 C129.397972,13.2032515 129.856271,12.8298466 130.2846,12.6910813 C132.181386,11.9770706 137.194627,10.8460429 142.594792,10.8438804 C146.541492,10.8453221 149.391668,11.3632592 151.3088,12.4279678 C154.590876,14.1807362 154.583737,17.3795475 154.577669,19.9497699 L154.577612,19.9497699 Z M149.01688,27.6946779 C147.717614,27.709816 141.420812,27.8114571 138.912229,28.3528221 L138.716982,28.3967945 C135.897145,29.032592 133.669475,29.5343098 133.643061,33.7502531 C133.648058,39.051089 137.667217,39.5264954 141.782751,39.5582132 L141.785977,39.7950153 L141.785977,39.5582132 C144.361666,39.5582132 146.793507,39.1894939 149.01618,38.461066 L149.016752,27.6946779 L149.01688,27.6946779 Z M238.872928,10.8438804 C225.90882,10.861527 224.809441,19.4628298 224.797305,27.5249156 C224.809441,35.5574463 225.90882,44.1284586 238.872928,44.1461196 L238.873785,44.1461196 C251.827899,44.1284442 252.932275,35.5805138 252.950479,27.5238344 C252.936916,19.0933896 251.837893,10.8615414 238.873071,10.8438804 L238.872928,10.8438804 Z M238.873357,39.4407132 C231.010297,39.4057515 230.615163,35.3300153 230.561621,27.5263574 C230.615163,19.6798083 231.009583,15.5835276 238.872643,15.5489264 C246.737488,15.5835276 247.131551,19.6798083 247.185092,27.5227531 C247.131551,35.3300153 246.736417,39.4057515 238.873357,39.4407132 L238.873357,39.4407132 Z M215.607208,42.9599463 L215.268471,43.0464494 C213.455566,43.5106825 210.971611,44.1461196 206.618355,44.1461196 L206.61807,44.1461196 L206.608789,44.1461196 C194.610564,44.1284442 192.255822,38.0170169 192.242615,27.4661656 C192.257264,15.3647469 196.056176,10.8600997 206.259344,10.8438804 C209.85874,10.8438804 212.338768,11.3138804 214.11812,11.7478374 L214.107412,2.00074387 C214.092421,1.57327454 214.284098,1.01352761 215.286032,0.820697853 L218.472833,0 L218.646663,0 C219.37875,0.018396319 219.637889,0.677246933 219.639317,1.23555215 L219.639317,37.8591488 C219.688575,40.1716641 219.419084,42.1558282 215.607308,42.9599463 L215.607208,42.9599463 Z M214.110296,16.4384663 C213.046254,16.1652607 210.076146,15.4901764 206.731606,15.4901764 C200.588646,15.5471242 198.012243,17.2321319 197.947994,27.5259969 C198.020096,38.8290644 201.353214,39.4399923 206.786575,39.4994632 L206.789801,39.7362653 L206.789801,39.4994632 C210.171463,39.4994632 213.072682,38.787615 214.107455,38.4996319 L214.110311,16.4384663 L214.110296,16.4384663 Z M185.471467,43.3827301 L182.621291,43.3827301 C181.857793,43.3815767 181.282047,42.7991948 181.280262,42.0285966 L181.280262,20.3015491 C181.228506,16.62625 180.140906,15.6040721 176.22169,15.5489264 C171.787408,15.5489264 167.299228,16.672385 165.818993,17.0796702 L165.818993,42.0278758 C165.817565,42.8121702 165.278227,43.3816488 164.536503,43.3827301 L161.628502,43.3827301 C160.864647,43.3815767 160.288187,42.7991948 160.287116,42.0285966 L160.287116,17.6592408 C160.24464,15.4036733 160.454522,13.8444555 163.632013,12.8060583 C166.673867,11.7453144 172.495937,10.8460429 176.341266,10.8438804 C183.670698,10.8532515 186.801431,13.5233129 186.811425,19.7727991 L186.811425,42.0278758 C186.810283,42.7991948 186.233894,43.3816488 185.471467,43.3827301 L185.471467,43.3827301 Z M120.915419,43.9698696 L120.917989,43.9698696 C122.555993,43.937431 123.767452,43.6105215 124.241827,43.0727607 C124.410303,42.8820936 124.488116,42.6618712 124.467056,42.4445322 C124.456006,42.2657592 124.456006,42.2657592 124.006602,40.1403067 L123.995894,40.0894862 C123.898449,39.533704 123.505814,39.2810429 123.182068,39.2810429 C123.151728,39.2810429 123.122102,39.282773 123.138164,39.2850221 C123.138164,39.2850221 122.726611,39.264838 122.320411,39.264838 L122.316499,39.264838 C121.148944,39.2273534 120.181276,39.055789 120.161288,37.3304132 L120.161288,1.23592699 C120.160146,0.633995399 119.800691,0.0165797546 119.110724,0 L118.907267,0.00173006135 L115.715141,0.827834356 C115.171163,0.88406135 114.605054,1.27440644 114.629326,1.99995092 L114.629326,37.4481871 C114.635408,41.6461089 116.866634,43.9622285 120.91292,43.9697975 L120.91549,43.9697975 L120.915419,43.9698696 Z M75.8301623,43.3827301 L52.9595048,43.3827301 C52.1960074,43.3815767 51.6195472,42.7991948 51.6181194,42.0285966 L51.6181194,39.2093175 C51.602414,38.5183742 51.8215759,38.2105675 52.2431236,37.6832592 L70.4471304,16.3126764 L52.6107732,16.3126764 C51.8469188,16.3109463 51.2704586,15.7287807 51.2693877,14.9585429 L51.2693877,12.9617638 C51.27053,12.1911656 51.8469188,11.6090721 52.6104162,11.6076304 L75.7137994,11.6076304 C76.4769399,11.6090721 77.0534002,12.1911656 77.0548279,12.9614034 L77.0548279,15.8390721 C77.0658788,16.3591718 76.8874224,16.8003374 76.4762261,17.2631288 L58.2261739,38.6769632 L75.8298053,38.6769632 C76.5933028,38.6792699 77.169763,39.2608589 77.1711908,40.0314571 L77.1711908,42.0278758 C77.169763,42.7991948 76.5933028,43.3816488 75.8301623,43.3827301 L75.8301623,43.3827301 Z" id="path6289" fill="#231F20"></path>
                        <path d="M5.79137274,8.04658742 C1.83860477,8.04658742 -0.193819131,18.9448926 0.0178470655,29.1767638 C0.0121800368,29.1753221 0.00566664317,29.1782055 0,29.1767638 C0.211309255,38.1575844 2.17805595,46.7657209 6.07692579,46.7657209 C21.0388347,46.7657209 38.0856377,32.5179448 38.0856377,27.4106595 C38.0856377,26.1329371 36.7967226,23.6744479 35.0694836,21.7338957 C35.0671992,21.7352221 35.0627731,21.7325693 35.0605744,21.7338957 C34.9431264,21.5962117 34.8185539,21.458888 34.6946953,21.3194018 C29.3648476,15.3146472 18.3075198,8.04658742 5.79137274,8.04658742 Z" id="path6315" fill="url(#linearGradient-1)"></path>
                        <path d="M0.0150053329,29.1764034 C11.2565148,31.8421396 23.2579525,28.841204 34.8849593,21.843827 L34.8849593,21.843827 C34.9434976,21.8085049 35.002036,21.7731828 35.0605744,21.7375003 L35.0605744,21.7375003 C34.9431407,21.5998162 34.8228515,21.4610509 34.6989928,21.3215647 L34.6989928,21.3215647 C29.3691452,15.3168101 18.3050349,8.04730857 5.78888786,8.04730857 L5.78888786,8.04730857 C1.83611989,8.04730857 -0.196660863,18.9445325 0.0150053329,29.1764034 L0.0150053329,29.1764034 Z M35.0605744,21.7375003 C35.0631444,21.7363469 35.0652003,21.7349052 35.067342,21.73355 L35.067342,21.73355 L35.0605744,21.7375003 Z" id="path6315-1" fill="url(#linearGradient-2)"></path>
                        <path d="M0.00322626971,29.1738804 C0.214535525,38.1547009 2.18199602,46.7660813 6.08086585,46.7660813 L6.08086585,46.7660813 C21.0427747,46.7660813 38.0881506,32.5222699 38.0881506,27.414985 L38.0881506,27.414985 C38.0881506,26.1372626 36.7945953,23.6740877 35.0673563,21.7335356 L35.0673563,21.7335356 C23.3800264,28.8120095 11.3075574,31.8583589 0.00322626971,29.1738804" id="path6339" fill="url(#linearGradient-3)"></path>
                    </g>
                </g>
            </g>
        </g>
    </g>
</svg>