<?xml version="1.0" encoding="UTF-8"?>
<svg width="181px" height="45px" viewBox="0 0 181 45" version="1.1" xmlns="http://www.w3.org/2000/svg" xmlns:xlink="http://www.w3.org/1999/xlink">
    <!-- Generator: Sketch 42 (36781) - http://www.bohemiancoding.com/sketch -->
    <title>capnamic</title>
    <desc>Created with Sketch.</desc>
    <defs>
        <polygon id="path-1" points="0 44.6141356 180.928157 44.6141356 180.928157 0.336836724 0 0.336836724"></polygon>
        <polygon id="path-3" points="0 44.6141356 180.928157 44.6141356 180.928157 0.336836724 0 0.336836724"></polygon>
        <polygon id="path-5" points="0 44.6141356 180.928157 44.6141356 180.928157 0.336836724 0 0.336836724"></polygon>
        <polygon id="path-7" points="0 44.6141356 180.928157 44.6141356 180.928157 0.336836724 0 0.336836724"></polygon>
        <polygon id="path-9" points="0 44.6141356 180.928157 44.6141356 180.928157 0.336836724 0 0.336836724"></polygon>
        <polygon id="path-11" points="0 44.6141356 180.928157 44.6141356 180.928157 0.336836724 0 0.336836724"></polygon>
        <polygon id="path-13" points="0 44.6141356 180.928157 44.6141356 180.928157 0.336836724 0 0.336836724"></polygon>
        <polygon id="path-15" points="0 44.6141356 180.928157 44.6141356 180.928157 0.336836724 0 0.336836724"></polygon>
        <polygon id="path-17" points="0 44.6141356 180.928157 44.6141356 180.928157 0.336836724 0 0.336836724"></polygon>
    </defs>
    <g id="Page-1" stroke="none" stroke-width="1" fill="none" fill-rule="evenodd">
        <g id="projects---with-space" transform="translate(-134.000000, -345.000000)">
            <g id="capnamic" transform="translate(51.000000, 296.000000)">
                <g transform="translate(83.000000, 49.000000)" id="Page-1">
                    <g>
                        <g id="HOME">
                            <g>
                                <g id="Page-1">
                                    <polygon id="Fill-1" fill="#3E7DC1" points="5.62030062 39.1819743 3.91500215 43.7816916 2.21861446 39.1819743 1.39436831 39.1819743 3.53183908 44.7615296 4.307076 44.7615296 6.44900215 39.1819743"></polygon>
                                    <polygon id="Fill-2" fill="#3E7DC1" points="26.9366428 39.1819743 26.9366428 44.7615296 30.5711228 44.7615296 30.5711228 44.0343192 27.7157782 44.0343192 27.7157782 42.3350783 30.2280582 42.3350783 30.2280582 41.6089832 27.7157782 41.6089832 27.7157782 39.9091847 30.5711228 39.9091847 30.5711228 39.1819743"></polygon>
                                    <polygon id="Fill-3" fill="#3E7DC1" points="55.3383831 39.1819743 55.3383831 43.6216384 52.2218415 39.1819743 51.3363338 39.1819743 51.3363338 44.7615296 52.1160262 44.7615296 52.1160262 40.2928662 55.2565154 44.7615296 56.1169615 44.7615296 56.1169615 39.1819743"></polygon>
                                    <polygon id="Fill-4" fill="#3E7DC1" points="76.6667548 39.1819743 76.6667548 39.9091847 78.5352317 39.9091847 78.5352317 44.7615296 79.3132532 44.7615296 79.3132532 39.9091847 81.1950963 39.9091847 81.1950963 39.1819743"></polygon>
                                    <g id="Group-25" transform="translate(0.000000, 0.220840)">
                                        <path d="M101.715373,42.2411655 L101.715373,38.9609112 L102.494508,38.9609112 L102.494508,42.3064137 C102.494508,42.8540522 102.617031,43.2578101 102.86152,43.5193605 C103.106566,43.7809109 103.485274,43.9114072 103.9982,43.9114072 C104.510013,43.9114072 104.88872,43.7809109 105.13321,43.5193605 C105.378256,43.2578101 105.501336,42.8540522 105.501336,42.3064137 L105.501336,38.9609112 L106.279357,38.9609112 L106.279357,42.2411655 C106.279357,42.9929137 106.080536,43.5762436 105.682893,43.9911549 C105.283579,44.4071818 104.7222,44.6140799 103.9982,44.6140799 C103.27253,44.6140799 102.710594,44.4071818 102.312951,43.9911549 C101.914194,43.5762436 101.715373,42.9929137 101.715373,42.2411655 Z" id="Fill-5" fill="#3E7DC1"></path>
                                        <path d="M128.03656,41.6895118 L129.280169,41.6895118 C129.765249,41.6895118 130.096061,41.595822 130.27372,41.4067696 C130.451935,41.2177173 130.540486,40.9740125 130.540486,40.6728671 C130.540486,39.9891554 130.109984,39.6472997 129.247867,39.6472997 L128.03656,39.6472997 L128.03656,41.6895118 Z M127.257424,44.5409127 L127.257424,38.9607997 L129.313027,38.9607997 C129.935667,38.9607997 130.426317,39.1069109 130.784418,39.3996912 C131.141406,39.6913561 131.320178,40.1079406 131.320178,40.6483293 C131.320178,41.1045089 131.201554,41.4681141 130.96319,41.7369142 C130.725384,42.006272 130.428544,42.1908631 130.071557,42.2918026 L131.551858,44.5409127 L130.635163,44.5409127 L129.28908,42.4172798 L128.03656,42.4172798 L128.03656,44.5409127 L127.257424,44.5409127 Z" id="Fill-7" fill="#3E7DC1"></path>
                                        <polygon id="Fill-9" fill="#3E7DC1" points="152.183798 44.54108 152.183798 38.960967 155.817721 38.960967 155.817721 39.6887351 152.961819 39.6887351 152.961819 41.387976 155.474656 41.387976 155.474656 42.114071 152.961819 42.114071 152.961819 43.8133119 155.817721 43.8133119 155.817721 44.54108"></polygon>
                                        <path d="M176.416523,40.4684786 C176.416523,40.0318178 176.574689,39.660405 176.891578,39.3547982 C177.209025,39.0491914 177.700231,38.8958303 178.364083,38.8958303 C178.864757,38.8958303 179.343154,39.0090387 179.800388,39.2354554 L179.800388,39.9938958 C179.392163,39.7462872 178.94384,39.6230407 178.457089,39.6230407 C177.616135,39.6230407 177.194545,39.9046675 177.194545,40.4684786 C177.194545,40.619609 177.268615,40.7517784 177.417314,40.8644291 C177.565455,40.9770797 177.747569,41.0668657 177.964769,41.1343445 C178.181412,41.2012658 178.419775,41.2893787 178.678745,41.3964526 C178.937157,41.5029689 179.17552,41.6178503 179.393834,41.7383084 C179.610477,41.8593243 179.793148,42.0372231 179.940732,42.270332 C180.08776,42.5039986 180.160717,42.7767024 180.160717,43.0867707 C180.160717,43.564142 179.981945,43.9361123 179.626628,44.2043548 C179.269083,44.4725973 178.776763,44.6064397 178.147997,44.6064397 C177.589403,44.6064397 177.036935,44.473155 176.490594,44.2065855 L176.490594,43.405204 C177.007418,43.7208491 177.536495,43.8786716 178.078382,43.8786716 C178.944397,43.8786716 179.379354,43.6154482 179.381025,43.0867707 C179.381025,42.8614693 179.308068,42.6690708 179.162154,42.5095753 C179.014569,42.3506375 178.833012,42.2351983 178.616369,42.1632581 L177.899609,41.9206687 C177.638969,41.8292098 177.401163,41.7360778 177.182849,41.6418303 C176.966763,41.5470253 176.784092,41.399241 176.637065,41.1984774 C176.490594,40.9977138 176.416523,40.7545667 176.416523,40.4684786" id="Fill-11" fill="#3E7DC1"></path>
                                        <path d="M16.7240102,27.3151718 C16.2768009,27.7981199 15.7889363,28.192955 15.2598594,28.4985618 C14.7302255,28.8052839 14.1833271,29.0283546 13.619164,29.1700045 C13.054444,29.3110967 12.5014194,29.3819217 11.9606471,29.3819217 C10.9253271,29.3819217 9.97298862,29.1465821 9.10307477,28.6747876 C8.232604,28.2046661 7.48577015,27.5800683 6.86257323,26.8026669 C6.23881938,26.0252656 5.756524,25.1246177 5.41568708,24.099608 C5.07485015,23.0751559 4.90443169,22.0099935 4.90443169,20.9024475 C4.90443169,19.9136868 5.05090246,18.9182338 5.34551477,17.9166464 C5.63901323,16.9167322 6.07397015,16.0216611 6.65094246,15.2319909 C7.22680092,14.443436 7.950244,13.8015502 8.82071477,13.3063333 C9.69062862,12.8116741 10.7020009,12.5646233 11.8548317,12.5646233 C12.3722132,12.5646233 12.9135425,12.6298714 13.4777055,12.7586947 C14.0424255,12.8886334 14.589324,13.0944161 15.1189578,13.3771582 C15.6480348,13.6599003 16.1358994,14.0430242 16.5831086,14.5254146 C17.029204,15.0083625 17.3945455,15.6028458 17.6763486,16.30998 L21.416644,13.7307252 C20.6402932,12.1056553 19.4345548,10.7861922 17.7999855,9.77345138 C16.1648594,8.7607105 14.2306655,8.2537824 11.9962902,8.2537824 C10.0910563,8.2537824 8.39745323,8.62017598 6.91548092,9.34961709 C5.43350862,10.0801735 4.18098862,11.0338007 3.15792092,12.2110562 C2.13485323,13.3888694 1.35237631,14.7261781 0.811604,16.2207517 C0.270274769,17.7169982 0.000167076923,19.2305328 0.000167076923,20.7613553 C0.000167076923,22.3630028 0.287539385,23.9350934 0.864511692,25.4776272 C1.44037015,27.0212762 2.25180708,28.3987377 3.29882246,29.6116845 C4.34528092,30.8246313 5.59223169,31.8083729 7.03856092,32.5617942 C8.48544708,33.3157731 10.078804,33.6922048 11.8197455,33.6922048 C12.8077271,33.6922048 13.807404,33.5622662 14.8187763,33.3035042 C15.8301486,33.0441845 16.7947394,32.6677528 17.7119917,32.1730935 C18.629244,31.6784343 19.4462502,31.0716821 20.164124,30.3528368 C20.8814409,29.6351069 21.4283394,28.8052839 21.8048194,27.8622527 L17.8178071,25.5662977 C17.5354471,26.2494517 17.1706625,26.8327815 16.7240102,27.3151718" id="Fill-13" fill="#000000"></path>
                                        <g id="Fill-15-Clipped">
                                            <mask id="mask-2" fill="white">
                                                <use xlink:href="#path-1"></use>
                                            </mask>
                                            <g id="path-1"></g>
                                            <polygon id="Fill-15" fill="#000000" mask="url(#mask-2)" points="150.725662 33.6161935 155.737969 33.6161935 155.737969 8.52074223 150.725662 8.52074223"></polygon>
                                        </g>
                                        <g id="Fill-17-Clipped">
                                            <mask id="mask-4" fill="white">
                                                <use xlink:href="#path-3"></use>
                                            </mask>
                                            <g id="path-1"></g>
                                            <path d="M176.941312,25.5664093 C176.658395,26.2495632 176.294167,26.832893 175.846958,27.3152834 C175.400306,27.7982314 174.912441,28.1930665 174.383364,28.4986734 C173.85373,28.8053955 173.307389,29.0284662 172.742112,29.1701161 C172.177392,29.3112083 171.624924,29.3820332 171.084152,29.3820332 C170.049389,29.3820332 169.095936,29.1466936 168.226022,28.6748991 C167.355552,28.20422 166.608161,27.5796221 165.986078,26.8027785 C165.362324,26.0253772 164.880029,25.1247293 164.538635,24.0997196 C164.197798,23.0752674 164.027936,22.0101049 164.027936,20.902559 C164.027936,19.9132406 164.17385,18.9183454 164.468462,17.916758 C164.763075,16.916286 165.197475,16.0217726 165.774447,15.2321024 C166.350306,14.4435476 167.073749,13.801104 167.944776,13.3064448 C168.814133,12.8117855 169.825506,12.5647348 170.977779,12.5647348 C171.495718,12.5647348 172.035933,12.6299829 172.600653,12.7588063 C173.16593,12.8887449 173.712829,13.0945276 174.242462,13.3772697 C174.771539,13.6594541 175.258847,14.0431357 175.706613,14.525526 C176.152709,15.0079164 176.517493,15.6029574 176.799853,16.3095338 L180.540149,13.730279 C179.763241,12.1052092 178.558059,10.7863038 176.92349,9.77356293 C175.288364,8.76082205 173.35417,8.25389393 171.119238,8.25389393 C169.214004,8.25389393 167.520401,8.61972984 166.038986,9.34972864 C164.557013,10.0797275 163.303936,11.0333546 162.280869,12.2111678 C161.257801,13.3889809 160.475881,14.7262897 159.934552,16.2208632 C159.393779,17.7171098 159.123115,19.2306443 159.123115,20.7614668 C159.123115,22.3631144 159.410487,23.9352049 159.988016,25.4777386 C160.563875,27.0208301 161.375312,28.3988492 162.422327,29.611796 C163.468786,30.8247428 164.716293,31.8079269 166.162622,32.5619058 C167.608395,33.3158847 169.202309,33.6917587 170.942693,33.6917587 C171.931232,33.6917587 172.930909,33.5623778 173.941724,33.3036157 C174.953096,33.0442961 175.918244,32.6673067 176.835496,32.1732051 C177.752192,31.6785458 178.569755,31.0717936 179.287629,30.3529483 C180.004389,29.6352185 180.551287,28.8053955 180.927767,27.8623642 L176.941312,25.5664093 Z" id="Fill-17" fill="#000000" mask="url(#mask-4)"></path>
                                        </g>
                                        <g id="Fill-18-Clipped">
                                            <mask id="mask-6" fill="white">
                                                <use xlink:href="#path-5"></use>
                                            </mask>
                                            <g id="path-1"></g>
                                            <path d="M106.307315,14.843123 L108.112859,19.9915942 C109.451702,19.4857814 110.799456,18.96045 112.158906,18.4016579 L108.282721,8.52074223 L104.330795,8.52074223 L98.5360102,23.2406186 C100.313152,22.708595 102.109786,22.1330726 103.927026,21.5090325 L106.307315,14.843123 Z" id="Fill-18" fill="#000000" mask="url(#mask-6)"></path>
                                        </g>
                                        <g id="Fill-19-Clipped">
                                            <mask id="mask-8" fill="white">
                                                <use xlink:href="#path-7"></use>
                                            </mask>
                                            <g id="path-1"></g>
                                            <path d="M52.1500542,12.4245349 L56.5943003,12.4245349 C58.8799126,12.4245349 60.5584788,12.7089499 61.6299988,13.4238915 C62.7020757,14.1393907 63.2372788,15.3673947 63.2372788,17.0956348 C63.2372788,18.8249903 62.8140172,20.1416649 61.9691649,21.0356207 C61.1243126,21.9301341 59.5348542,22.4627153 57.2013465,22.4627153 L52.1500542,22.4627153 L52.1500542,12.4245349 Z M52.1500542,26.3664522 L56.7368726,26.3664522 C60.4036542,26.3664522 63.1242234,25.5394177 64.8974665,24.1318417 C66.6712665,22.7259388 67.5584449,20.4640021 67.5584449,17.4358177 C67.5584449,14.4081908 66.689088,12.1217164 64.951488,10.6678533 C63.2133311,9.21343245 60.4515495,8.52079799 56.6655865,8.52079799 L48.2515926,8.52079799 L48.2515926,27.9747918 C49.5152511,28.1242492 50.8151095,28.2564186 52.1500542,28.3679539 L52.1500542,26.3664522 Z" id="Fill-19" fill="#000000" mask="url(#mask-8)"></path>
                                        </g>
                                        <g id="Fill-20-Clipped">
                                            <mask id="mask-10" fill="white">
                                                <use xlink:href="#path-9"></use>
                                            </mask>
                                            <g id="path-1"></g>
                                            <path d="M125.570059,8.52079799 L120.094948,8.52079799 L120.094948,14.8716202 C122.3878,13.7774585 124.702373,12.6124719 127.04312,11.358257 L125.570059,8.52079799 Z" id="Fill-20" fill="#000000" mask="url(#mask-10)"></path>
                                        </g>
                                        <g id="Fill-21-Clipped">
                                            <mask id="mask-12" fill="white">
                                                <use xlink:href="#path-11"></use>
                                            </mask>
                                            <g id="path-1"></g>
                                            <path d="M74.9841788,17.4049781 L82.5176772,27.0003633 C85.4972157,26.4945506 88.5597357,25.8593568 91.6918711,25.0953398 L91.6918711,8.52063069 L86.6795634,8.52063069 L86.6795634,24.8594425 L73.7405695,8.52063069 L69.9718711,8.52063069 L69.9718711,28.4910331 C71.6114526,28.3800555 73.2816649,28.2350595 74.9841788,28.0499109 L74.9841788,17.4049781 Z" id="Fill-21" fill="#000000" mask="url(#mask-12)"></path>
                                        </g>
                                        <g id="Fill-22-Clipped">
                                            <mask id="mask-14" fill="white">
                                                <use xlink:href="#path-13"></use>
                                            </mask>
                                            <g id="path-1"></g>
                                            <path d="M34.1852194,14.843123 L38.2028625,26.3005906 C39.878644,26.6636382 41.6563425,27.0043786 43.5315025,27.3099854 L36.1611825,8.52074223 L32.2092563,8.52074223 L26.5202871,22.9723761 C27.7767055,23.4291133 29.1985302,23.9075999 30.777964,24.3849712 L34.1852194,14.843123 Z" id="Fill-22" fill="#000000" mask="url(#mask-14)"></path>
                                        </g>
                                        <g id="Fill-23-Clipped">
                                            <mask id="mask-16" fill="white">
                                                <use xlink:href="#path-15"></use>
                                            </mask>
                                            <g id="path-1"></g>
                                            <path d="M25.9991185,23.3422831 C22.75894,22.1354707 20.7350815,21.1165954 20.1001892,20.7284524 C22.0026385,21.9670524 23.9980938,23.0930015 26.0687338,24.118569 L22.3301092,33.6163609 L27.4816477,33.6163609 L30.2050015,25.9890166 C33.0659154,27.1623684 36.05158,28.1555906 39.1402754,28.972587 L40.7687185,33.6163609 L46.0049092,33.6163609 L44.6755338,30.2273595 C45.8556538,30.4532186 47.0485831,30.6539823 48.2515369,30.8341118 L48.2515369,33.6163609 L52.1499985,33.6163609 L52.1499985,31.3310018 C57.9208354,31.9461191 63.9010754,32.0582122 69.9720938,31.6873571 L69.9720938,33.6163609 L74.9844015,33.6163609 L74.9844015,31.2707726 C78.2362754,30.9344936 81.5048569,30.4660452 84.7689831,29.8676581 L87.7123215,33.6163609 L91.6920938,33.6163609 L91.6920938,28.4054298 C93.4865,27.9754611 95.2758938,27.5019936 97.0580477,26.9950654 L94.4522046,33.6163609 L99.6037431,33.6163609 L102.573257,25.3008436 C104.782571,24.5674987 106.974063,23.7744825 109.142165,22.9268139 L112.890814,33.6163609 L118.127005,33.6163609 L113.268965,21.2303614 C115.580195,20.2337932 117.856897,19.1703037 120.095171,18.0437967 L120.095171,33.6163609 L125.107478,33.6163609 L125.107478,16.8749065 L132.903288,31.7353173 L140.701325,16.8749065 L140.701325,33.6163609 L145.713632,33.6163609 L145.713632,8.52090953 L140.459063,8.52090953 L132.979029,22.7946445 L128.194503,13.5756911 C134.605802,9.70653019 140.555411,5.27857723 145.818891,0.337004027 C144.7457,1.08986756 143.676965,1.81707798 142.6099,2.53369253 C110.878651,28.8359562 59.4852323,39.2739909 25.9991185,23.3422831" id="Fill-23" fill="#000000" mask="url(#mask-16)"></path>
                                        </g>
                                        <g id="Fill-24-Clipped">
                                            <mask id="mask-18" fill="white">
                                                <use xlink:href="#path-17"></use>
                                            </mask>
                                            <g id="path-1"></g>
                                            <path d="M20.1003563,20.7286754 C54.239184,41.7285491 112.59971,30.3257337 145.819058,0.337227098 C77.6600271,48.117851 23.9147225,23.0586487 20.1003563,20.7286754" id="Fill-24" fill="#3E7DC1" mask="url(#mask-18)"></path>
                                        </g>
                                    </g>
                                </g>
                            </g>
                        </g>
                    </g>
                </g>
            </g>
        </g>
    </g>
</svg>