<svg width="571" height="152" xmlns="http://www.w3.org/2000/svg" xmlns:xlink="http://www.w3.org/1999/xlink"><defs><path id="a" d="M171.02 68.897H.433V.803H171.02z"/><path id="c" d="M171.02 68.897H.433V.803H171.02z"/><path id="e" d="M171.02 68.897H.433V.803H171.02z"/><path id="g" d="M.396 30.115h79.562V.081H.396z"/><path id="i" d="M.396 30.115h79.562V.081H.396z"/><path id="k" d="M.396 30.115h79.562V.081H.396z"/><path id="m" d="M.396 30.115h79.562V.081H.396z"/><path id="o" d="M.396 30.115h79.562V.081H.396z"/><path id="q" d="M285.26.03H.069V150.4H570.45V.03z"/><path id="s" d="M285.26.03H.069V150.4H570.45V.03z"/><path id="u" d="M285.26.03H.069V150.4H570.45V.03z"/><path id="w" d="M285.26.03H.069V150.4H570.45V.03z"/><path id="y" d="M285.26.03H.069V150.4H570.45V.03z"/><path id="A" d="M285.26.03H.069V150.4H570.45V.03z"/><path id="C" d="M285.26.03H.069V150.4H570.45V.03z"/><path id="E" d="M285.26.03H.069V150.4H570.45V.03z"/><path id="G" d="M285.26.03H.069V150.4H570.45V.03z"/><path id="I" d="M285.26.03H.069V150.4H570.45V.03z"/><path id="K" d="M285.26.03H.069V150.4H570.45V.03z"/><path id="M" d="M285.26.03H.069V150.4H570.45V.03z"/><path id="O" d="M285.26.03H.069V150.4H570.45V.03z"/><path id="Q" d="M285.26.03H.069V150.4H570.45V.03z"/></defs><g fill="none" fill-rule="evenodd"><path d="M322 75.872c0-.566.262-.872.874-.872h16.077c.525 0 .83.306.83.829v2.71c0 .523-.22.784-.873.784H326.98v7.514h10.572c.568 0 .874.26.874.785v2.708c0 .524-.218.786-.874.786h-10.572v8.604h12.234c.523 0 .785.262.785.83v2.665c0 .567-.218.785-.83.785h-16.296c-.612 0-.874-.26-.874-.785V75.872M362.157 104.603h-3.161c-.667 0-.845-.307-.845-.838V102.4l-.089-.045c-1.736 1.19-4.762 2.645-7.476 2.645-6.007 0-6.586-3.526-6.586-8.156V83.882c0-.53.221-.882.844-.882h3.25c.578 0 .8.309.8.882V96.27c0 2.646.534 4.322 3.25 4.322 1.912 0 4.849-1.411 6.007-1.985V83.882c0-.53.178-.882.844-.882h3.162c.622 0 .843.309.843.882v19.883c0 .575-.221.838-.843.838M372.906 104.157c0 .534-.223.843-.847.843h-3.211c-.624 0-.848-.265-.848-.843V84.154c0-.576.224-.887.848-.887h3.166c.67 0 .892.355.892.887v1.952l.09.089c1.34-1.243 4.506-2.75 6.601-3.15.58-.133.982 0 1.071.755l.313 2.972c.045.62.089.887-.848 1.063-2.499.488-5.665 1.375-7.227 2.04v14.282M392.39 87.158c-3.713 0-4.542 2.338-4.542 6.841 0 4.592.829 6.843 4.5 6.843 3.974 0 4.76-2.208 4.76-6.843 0-4.59-.742-6.84-4.718-6.84zM392.348 105c-8.781 0-9.348-6.366-9.348-11.303 0-4.07.916-10.697 9.348-10.697C400.82 83 402 88.586 402 93.697c0 4.937-.612 11.303-9.652 11.303zM416.638 87.398c-1.795 0-4.553 1.277-5.866 1.98v10.998c1.97.57 3.545.748 5.034.748 3.153 0 4.247-1.628 4.247-7.172 0-5.586-1.094-6.554-3.415-6.554zm-.35 17.904c-1.445 0-3.46-.264-5.473-.968l-.043.044v7.743c0 .484-.132.879-.832.879h-3.11c-.699 0-.83-.308-.83-.879v-27.89c0-.571.219-.879.83-.879h3.11c.613 0 .788.352.788.88v1.319l.131.089c1.577-1.101 4.378-2.64 6.917-2.64 5.736 0 7.224 4.354 7.224 10.996 0 7.172-1.795 11.306-8.712 11.306zM433.072 92.077h8.809c0-2.637-.712-5.188-4.405-5.188-3.292 0-4.182 1.946-4.404 5.188zm-.045 3.24c.134 4.367 1.735 5.577 5.383 5.577 1.602 0 4.093-.302 5.785-.475.8-.088 1.067-.088 1.2.735l.268 1.425c.133.649.045.994-.757 1.341-1.735.648-4.983 1.08-7.163 1.08-8.498 0-9.743-5.273-9.743-10.891 0-4.194.8-11.109 9.476-11.109 7.964 0 9.388 5.013 9.521 9.682.045 1.555-.4 2.636-2.18 2.636h-11.79zM463.782 94.997h-5.338c-2.187 0-3.587.778-3.587 3.637 0 1.906.655 2.512 2.712 2.512 1.881 0 4.55-1.083 6.213-2.036v-4.113zm.262 7.188c-2.187 1.646-5.119 2.815-8.05 2.815-4.637 0-5.993-2.511-5.993-6.15-.044-5.066 2.712-7.232 8.224-7.232h5.6v-1.126c0-2.599-.963-3.508-4.55-3.508-1.444 0-4.2.217-5.95.39-.874.13-1.093.086-1.224-.52l-.394-1.602c-.088-.563.044-.91 1.006-1.3 1.88-.649 5.337-.952 7.393-.952 7.569 0 8.488 3.074 8.488 7.925v8.359c0 1.776.218 1.819 1.575 1.991.655.043.831.174.831.65v1.819c0 .476-.306.78-1.051.91-.7.13-1.4.217-2.056.217-2.056 0-3.324-.607-3.761-2.643l-.088-.043z" fill="#595A59" fill-rule="nonzero"/><g transform="translate(322 82)"><mask id="b" fill="#fff"><use xlink:href="#a"/></mask><path d="M170.194 22.595h-3.13c-.565 0-.826-.26-.826-.83l.043-12.27c0-2.577-.609-4.281-3.131-4.281-1.739 0-4.783 1.397-5.957 1.965v14.587c0 .525-.216.83-.826.83h-3.087c-.609 0-.827-.262-.827-.83V2.07c0-.568.218-.873.827-.873h3.087c.61 0 .826.305.826.873v1.31c.043 0 .087.043.13.043 1.61-1.134 4.654-2.62 7.306-2.62 5.87 0 6.391 3.887 6.391 8.298v12.665c0 .525-.172.83-.826.83" fill="#595A59" fill-rule="nonzero" mask="url(#b)"/></g><g transform="translate(322 82)"><mask id="d" fill="#fff"><use xlink:href="#c"/></mask><path d="M12.172 39.269c2.133 0 5.654.306 7.958 1.267.696.305.957.655.827 1.353l-.391 1.79c-.132.524-.348.743-1.13.655-2.13-.26-4.741-.567-7.001-.567-5.915 0-6.785 4.804-6.785 10.481 0 5.721 1.087 10.22 6.785 10.22 2.52 0 4.652-.263 7-.568.827-.087 1 .131 1.173.699l.35 1.66c.172.697-.045 1.092-.74 1.396-2.13.917-5.913 1.31-8.046 1.31-9.695 0-11.74-7.205-11.74-14.63 0-7.467 1.827-15.066 11.74-15.066" fill="#595A59" fill-rule="nonzero" mask="url(#d)"/></g><g transform="translate(322 82)"><mask id="f" fill="#fff"><use xlink:href="#e"/></mask><path d="M33.439 50.93c-3.694 0-4.522 2.357-4.522 6.9 0 4.629.828 6.899 4.48 6.899 3.956 0 4.739-2.227 4.739-6.9 0-4.629-.74-6.9-4.697-6.9zm-.042 17.992c-8.74 0-9.306-6.42-9.306-11.398 0-4.104.913-10.787 9.306-10.787 8.435 0 9.61 5.634 9.61 10.787 0 4.978-.61 11.398-9.61 11.398z" fill="#595A59" fill-rule="nonzero" mask="url(#f)"/></g><path d="M399.222 151h-3.114c-.604 0-.82-.263-.82-.837v-12.522c0-3.263-.779-4.189-2.94-4.189-1.6 0-4.195 1.28-5.536 1.985 0 .44.045 1.234.045 2.249v12.477c0 .53-.173.837-.822.837h-3.157c-.562 0-.735-.263-.735-.837v-12.742c0-2.689-.692-3.969-2.854-3.969-1.512 0-3.934 1.103-5.576 1.985v14.726c0 .53-.216.837-.822.837h-3.112c-.562 0-.779-.263-.779-.837V130.28c0-.573.217-.882.78-.882h3.069c.648 0 .864.353.864.882v1.277l.042.044c1.687-1.189 4.065-2.512 6.444-2.6 2.506 0 4.582.53 5.923 3.085 2.16-1.63 4.843-3.085 7.61-3.085 5.706 0 6.268 3.792 6.268 8.2v12.963c0 .53-.173.837-.778.837M435.222 151h-3.114c-.604 0-.821-.263-.821-.837v-12.522c0-3.263-.778-4.189-2.94-4.189-1.6 0-4.193 1.28-5.535 1.985 0 .44.044 1.234.044 2.249v12.477c0 .53-.172.837-.822.837h-3.156c-.562 0-.735-.263-.735-.837v-12.742c0-2.689-.692-3.969-2.853-3.969-1.513 0-3.935 1.103-5.578 1.985v14.726c0 .53-.216.837-.82.837h-3.115c-.56 0-.777-.263-.777-.837V130.28c0-.573.216-.882.777-.882h3.07c.649 0 .865.353.865.882v1.277l.043.044c1.687-1.189 4.065-2.512 6.442-2.6 2.508 0 4.584.53 5.925 3.085 2.16-1.63 4.84-3.085 7.608-3.085 5.708 0 6.27 3.792 6.27 8.2v12.963c0 .53-.174.837-.778.837" fill="#595A59" fill-rule="nonzero"/><g transform="translate(441 121)"><mask id="h" fill="#fff"><use xlink:href="#g"/></mask><path d="M5.275 28.957c0 .481-.173.832-.784.832H1.398c-.61 0-.872-.262-.872-.832V9.12c0-.616.262-.834.872-.834H4.49c.61 0 .784.351.784.834v19.836zM2.965 5.128c-2.264 0-2.57-1.274-2.57-2.545C.396 1.178.876.08 2.966.08c2.137 0 2.572 1.01 2.572 2.502 0 1.36-.392 2.545-2.572 2.545z" fill="#595A59" fill-rule="nonzero" mask="url(#h)"/></g><g transform="translate(441 121)"><mask id="j" fill="#fff"><use xlink:href="#i"/></mask><path d="M17.824 30.14c-2.179 0-5.097-.307-6.753-.965-.871-.351-1.046-.746-.915-1.448l.305-1.448c.13-.702.435-.746 1.133-.658 1.917.306 4.705.527 6.186.527 2.789 0 3.92-.748 3.92-2.502 0-2.019-.739-2.458-3.484-2.853-4.27-.613-8.016-1.536-8.016-6.319 0-4.343 3.311-6.626 8.19-6.626 1.786 0 4.792.264 6.622.966.74.307 1.046.657.915 1.317l-.348 1.58c-.131.613-.392.7-1.177.613-1.873-.218-4.312-.483-5.925-.483-2.788 0-3.44.791-3.44 2.458 0 1.712 1.044 1.931 3.702 2.37 4.14.614 7.885 1.448 7.885 6.67 0 5.135-4.312 6.802-8.8 6.802" fill="#595A59" fill-rule="nonzero" mask="url(#j)"/></g><g transform="translate(441 121)"><mask id="l" fill="#fff"><use xlink:href="#k"/></mask><path d="M37.825 30.14c-2.18 0-5.097-.307-6.754-.965-.871-.351-1.046-.746-.915-1.448l.305-1.448c.13-.702.436-.746 1.133-.658 1.917.306 4.706.527 6.188.527 2.787 0 3.92-.748 3.92-2.502 0-2.019-.74-2.458-3.485-2.853-4.27-.613-8.017-1.536-8.017-6.319 0-4.343 3.311-6.626 8.19-6.626 1.788 0 4.793.264 6.622.966.742.307 1.046.657.915 1.317l-.347 1.58c-.132.613-.392.7-1.178.613-1.873-.218-4.312-.483-5.924-.483-2.788 0-3.442.791-3.442 2.458 0 1.712 1.045 1.931 3.704 2.37 4.138.614 7.886 1.448 7.886 6.67 0 5.135-4.314 6.802-8.8 6.802" fill="#595A59" fill-rule="nonzero" mask="url(#l)"/></g><g transform="translate(441 121)"><mask id="n" fill="#fff"><use xlink:href="#m"/></mask><path d="M56.039 28.957c0 .481-.175.832-.785.832h-3.092c-.61 0-.872-.262-.872-.832V9.12c0-.616.262-.834.872-.834h3.092c.61 0 .785.351.785.834v19.836zm-2.31-23.829c-2.265 0-2.57-1.274-2.57-2.545 0-1.405.48-2.502 2.57-2.502 2.135 0 2.571 1.01 2.571 2.502 0 1.36-.392 2.545-2.57 2.545z" fill="#595A59" fill-rule="nonzero" mask="url(#n)"/></g><g transform="translate(441 121)"><mask id="p" fill="#fff"><use xlink:href="#o"/></mask><path d="M70.374 12.062c-3.703 0-4.532 2.369-4.532 6.933 0 4.651.829 6.932 4.488 6.932 3.965 0 4.75-2.237 4.75-6.932 0-4.652-.742-6.933-4.706-6.933zM70.33 30.14c-8.756 0-9.323-6.451-9.323-11.453 0-4.125.914-10.84 9.323-10.84 8.453 0 9.628 5.662 9.628 10.84 0 5.002-.61 11.453-9.628 11.453z" fill="#595A59" fill-rule="nonzero" mask="url(#p)"/></g><path d="M542.154 151h-3.203c-.578 0-.845-.263-.845-.837l.044-12.39c0-2.6-.623-4.32-3.204-4.32-1.78 0-4.894 1.41-6.095 1.984v14.726c0 .53-.223.837-.846.837h-3.158c-.623 0-.847-.263-.847-.837V130.28c0-.573.224-.882.847-.882h3.158c.623 0 .846.309.846.882v1.321c.044 0 .089.046.133.046 1.646-1.147 4.76-2.646 7.475-2.646 6.007 0 6.541 3.923 6.541 8.377v12.786c0 .53-.178.837-.846.837" fill="#595A59" fill-rule="nonzero"/><mask id="r" fill="#fff"><use xlink:href="#q"/></mask><path fill="#174489" fill-rule="nonzero" mask="url(#r)" d="M563.01 150.4h7.44V62.583h-7.44z"/><mask id="t" fill="#fff"><use xlink:href="#s"/></mask><path d="M0 55.608s89.657-11.772 92.19-12.192c3.878-.642 7.326-1.393 10.54-2.296 7.253-2.016 13.928-5.092 19.837-9.145 5.666-3.856 10.936-9.466 16.16-15.62 3.323-3.915 6.812-9.02 10.066-13.948V.03c-3.86 5.8-7.665 10.797-11.576 15.21-5.184 5.854-10.622 10.644-16.165 14.237-5.72 3.739-12.16 6.53-19.139 8.296-3.128.8-6.477 1.448-10.242 1.98-2.482.354-5.04.626-7.512.89L0 49.702v5.907" fill="#B4B5B4" fill-rule="nonzero" mask="url(#t)"/><mask id="v" fill="#fff"><use xlink:href="#u"/></mask><path d="M120.234 40.353c-5.611 3.276-12.093 5.672-19.264 7.124-3.063.627-6.4 1.137-10.207 1.558-2.235.246-4.487.444-6.743.64-1.217.109-2.433.215-3.646.329-27.475 2.5-54.81 5.159-80.374 7.677v5.902c25.765-3.155 53.29-6.493 80.755-9.648 1.222-.144 2.444-.281 3.667-.417 2.25-.252 4.503-.504 6.763-.806 3.908-.527 7.328-1.134 10.453-1.853 7.45-1.69 14.18-4.358 19.994-7.931 5.78-3.52 10.888-8.448 16.379-14.475 3.419-3.75 7.223-9.044 10.782-14.019V12.27c-4.192 5.772-8.172 10.62-12.11 14.757-5.361 5.635-10.895 10.117-16.449 13.326" fill="#B4B5B4" fill-rule="nonzero" mask="url(#v)"/><mask id="x" fill="#fff"><use xlink:href="#w"/></mask><path d="M135.925 38.907c-5.47 5.091-11.182 9.096-16.978 11.904-5.666 2.774-12.008 4.72-19.389 5.951-3.045.512-6.357.932-10.119 1.278L0 65.493v5.89l79.504-8.561 10.287-1.099c3.874-.453 7.253-.962 10.33-1.557 7.644-1.464 14.201-3.651 20.044-6.686 5.972-3.065 11.94-8.164 17.488-13.563 3.724-3.62 7.31-8.296 11.14-13.2v-1.963c-4.425 5.581-8.65 10.233-12.868 14.153" fill="#B4B5B4" fill-rule="nonzero" mask="url(#x)"/><mask id="z" fill="#fff"><use xlink:href="#y"/></mask><path d="M114.297 69.488c-5.206 2.956-9.1 4.659-16.536 5.447-4.494.49-9.113.724-13.58.95-2.164.11-4.329.218-6.488.356-13.513.784-26.781 1.652-40.319 2.548L0 81.343v5.888l37.747-3.514c12.197-1.11 26.37-2.39 40.208-3.536l10.059-.79c3.926-.306 7.147-.632 10.13-1.026 7.65-1.002 14.188-2.57 19.979-4.791 6.235-2.368 12.115-6.04 18.005-10.36 5.31-3.893 12.657-11.573 12.665-11.673v-2.08c-4.804 4.755-7.57 7.425-12.828 10.942-6.284 4.201-17 6.435-21.668 9.085" fill="#B4B5B4" fill-rule="nonzero" mask="url(#z)"/><mask id="B" fill="#fff"><use xlink:href="#A"/></mask><path d="M116.198 80.679c-5.641 1.678-11.993 2.815-19.415 3.473-3.007.264-6.25.467-9.916.616l-10.004.446C52.006 86.386 27.27 87.696 0 89.16v5.874c26.047-2.046 51.574-4.036 77.088-5.879l9.976-.69c3.85-.257 7.041-.535 10.045-.88 7.609-.863 14.117-2.195 19.893-4.072 6.403-2.057 12.641-5.04 18.545-8.865 4.362-2.817 8.722-6.175 13.246-10.183v-.102c-4.986 4.318-9.737 5.276-14.473 8.178-5.798 3.564-11.895 6.302-18.121 8.138" fill="#B4B5B4" fill-rule="nonzero" mask="url(#B)"/><mask id="D" fill="#fff"><use xlink:href="#C"/></mask><path d="M115.277 90.435c-5.684 1.35-11.841 2.216-19.384 2.728-2.91.198-6.036.346-9.844.467l-9.908.358C51.176 94.946 25.863 96.046 0 97.185v5.87c25.696-1.779 50.907-3.51 76.336-5.124l9.885-.601c3.876-.224 7.035-.454 9.937-.721 7.682-.72 13.967-1.767 19.779-3.294a85.275 85.275 0 0018.84-7.427c4.625-2.487 9.237-5.478 14.016-9.079v-2.51c-5.165 3.785-10.12 6.87-15.08 9.388a82.393 82.393 0 01-18.436 6.748" fill="#B4B5B4" fill-rule="nonzero" mask="url(#D)"/><g><mask id="F" fill="#fff"><use xlink:href="#E"/></mask><path d="M114.43 100.002c-5.702 1.06-11.843 1.736-19.329 2.129-2.816.146-5.83.25-9.772.343L0 104.82v5.863l75.668-4.006 9.802-.506c3.825-.182 6.954-.37 9.848-.597 7.589-.589 13.832-1.435 19.645-2.67a99.831 99.831 0 0019.036-6.028c4.858-2.09 9.726-4.64 14.794-7.741v-2.357c-5.416 3.196-10.564 5.763-15.677 7.815a97.263 97.263 0 01-18.685 5.41" fill="#B4B5B4" fill-rule="nonzero" mask="url(#F)"/></g><g><mask id="H" fill="#fff"><use xlink:href="#G"/></mask><path d="M113.76 109.608c-10.47 1.417-21.249 1.581-31.673 1.738-2.39.034-4.78.072-7.166.122L0 112.838v5.857l75.051-3.282c2.38-.109 4.763-.206 7.148-.302 10.497-.427 21.353-.865 31.964-2.576 6.719-1.074 13.184-2.665 19.215-4.722 4.996-1.697 10.173-3.895 15.415-6.49v-2.249c-5.51 2.605-10.928 4.768-16.13 6.39-5.963 1.868-12.321 3.263-18.903 4.144" fill="#B4B5B4" fill-rule="nonzero" mask="url(#H)"/></g><g><mask id="J" fill="#fff"><use xlink:href="#I"/></mask><path d="M113.165 119.275c-9.81.822-19.85.825-29.561.825-3.021 0-6.04 0-9.062.024-24.82.11-49.444.317-74.542.537v5.86c23.905-.824 49.266-1.685 74.626-2.448 3.01-.101 6.022-.18 9.037-.259 9.763-.25 19.858-.51 29.77-1.596 6.925-.753 13.224-1.859 19.26-3.374 5.264-1.312 10.67-3.064 16.1-5.168v-2.152c-5.604 2.041-11.19 3.708-16.63 4.92-5.977 1.34-12.192 2.265-18.998 2.831" fill="#B4B5B4" fill-rule="nonzero" mask="url(#J)"/></g><g><mask id="L" fill="#fff"><use xlink:href="#K"/></mask><path d="M112.786 128.805c-4.087.165-8.512.243-13.532.243-1.897 0-3.795-.012-5.687-.029l-19.31-.238c-13.177-.099-26.303-.122-38.619-.133L0 128.682v5.857l35.724-.95c12.27-.305 25.435-.622 38.569-.862l19.294-.258c5.293-.086 12.278-.243 19.352-.715 6.933-.456 13.243-1.156 19.29-2.136 5.441-.884 11.002-2.073 16.564-3.51v-2.08c-5.714 1.339-11.394 2.406-16.906 3.153-6.012.818-12.26 1.348-19.1 1.624" fill="#B4B5B4" fill-rule="nonzero" mask="url(#L)"/></g><g><mask id="N" fill="#fff"><use xlink:href="#M"/></mask><path d="M93.343 138.014l-19.245-.209c-24.55-.35-49.078-.806-74.098-1.28v5.86c23.883-.162 49.176-.346 74.116-.63l19.254-.29c6.488-.113 12.842-.232 19.267-.45 13.23-.432 25.081-1.375 36.156-2.862v-2.037c-11.117 1.213-22.986 1.853-36.224 1.94-6.405.06-12.815.012-19.226-.042" fill="#B4B5B4" fill-rule="nonzero" mask="url(#N)"/></g><g><mask id="P" fill="#fff"><use xlink:href="#O"/></mask><path fill="#B4B5B4" fill-rule="nonzero" mask="url(#P)" d="M148.793 148.374L0 144.546v5.855h148.793v-2.028"/></g><g><mask id="R" fill="#fff"><use xlink:href="#Q"/></mask><path d="M135.396 49.974c-5.652 4.607-10.018 7.88-16.936 10.67-6.024 2.428-12.495 3.424-19.888 4.447-4.758.676-9.73 1.676-14.48 1.996-1.953.133-3.906.264-5.855.42L0 73.293v5.88l78.554-7.73 10.184-.97c3.778-.362 7.13-.784 10.252-1.294 7.612-1.241 14.172-3.135 20.05-5.79 6.102-2.73 12.274-7.202 18.01-12.098 3.904-3.326 7.657-7.512 11.743-12.082v-2.107c-4.942 5.184-9.038 9.326-13.397 12.872" fill="#B4B5B4" fill-rule="nonzero" mask="url(#R)"/></g><path d="M212 0s26.655 42.997 31.528 50.88c4.873 7.883 10.444 14.118 30.165 18.355C293.414 73.47 302 75.47 302 75.47V77s-12.531-2.707-28.656-6.354C257.22 67 250.628 65.772 243.277 55.413 237.16 46.793 212 10.157 212 10.157V0M212 49s24.265 25.926 31.28 33.369c7.443 7.895 16.978 10.816 30.193 13.224C286.089 97.889 302 100.54 302 100.54V102s-14.941-2.495-28.527-4.866c-13.319-2.326-22.643-3.624-30.272-10.79C236.369 79.924 212 56.625 212 56.625V49" fill="#B4B5B4" fill-rule="nonzero"/><path d="M212 61s23.077 21.516 31.28 28.866c7.55 6.764 13.668 8.867 30.274 11.822 16.607 2.956 28.446 4.794 28.446 4.794V108s-15.018-2.477-28.527-4.635c-13.505-2.156-22.113-3.008-30.194-9.584C233.954 86.186 212 68.03 212 68.03V61" fill="#B4B5B4" fill-rule="nonzero"/><path d="M212 73s26.36 20.973 31.285 24.642c4.925 3.67 11.442 7.952 30.35 10.693 18.75 2.717 28.365 4.069 28.365 4.069V114s-17.003-2.474-28.365-3.91c-11.36-1.436-20.073-2.047-30.27-8.858C233.436 94.604 212 79.466 212 79.466V73" fill="#B4B5B4" fill-rule="nonzero"/><path d="M212 85s26.438 17.971 31.444 20.813c5.006 2.842 10.885 7.472 30.191 9.99A6630.001 6630.001 0 00302 119.457V121s-15.97-1.786-28.444-3.167c-12.473-1.382-20.974-3.25-30.271-8.446C233.988 104.189 212 91.075 212 91.075V85" fill="#B4B5B4" fill-rule="nonzero"/><path d="M212 97s23.37 12.931 31.28 16.97c8.82 4.505 16.45 6.661 30.274 8.334 13.574 1.645 28.446 3.24 28.446 3.24V127s-13.75-1.497-28.446-2.914c-14.569-1.405-19.757-2.05-30.275-6.797-9.405-4.246-31.279-14.62-31.279-14.62V97" fill="#B4B5B4" fill-rule="nonzero"/><path d="M212 109s18.467 7.976 31.444 13.168c12.765 5.109 22.512 5.539 30.27 6.42 3.418.388 28.286 2.97 28.286 2.97V133s-14.858-1.203-28.365-2.405c-13.507-1.203-19.332-1.713-30.27-5.376C232.295 121.512 212 114.375 212 114.375V109M212 121s18.645 5.847 31.358 9.227c12.712 3.38 24.391 4.75 30.27 5.15 5.88.405 28.372 2.253 28.372 2.253V139s-12.793-.882-28.451-2.013c-12.66-.911-22.829-1.876-30.272-3.542-8.248-1.84-31.277-7.378-31.277-7.378V121M212 133s15.25 2.633 31.36 5.307c12.077 2.006 28.446 3.269 30.194 3.35 1.75.077 28.446 1.91 28.446 1.91V145s-17.089-.885-28.446-1.512c-11.832-.656-23.594-1.374-30.275-2.072-14.962-1.563-31.279-3.631-31.279-3.631V133M212 146s24.05.965 31.36 1.136c7.31.167 58.64 2.376 58.64 2.376V151h-90v-5M273.549 75.888c-21.77-4.777-26.695-12.874-30.35-17.895C239.542 52.972 212 12 212 12v9.246c1.086 1.446 24.66 32.857 31.277 41.524 7.46 9.767 19.15 11.985 30.272 14.414C284.671 79.612 302 83 302 83v-1.296s-22.83-4.582-28.451-5.816" fill="#B4B5B4" fill-rule="nonzero"/><path d="M273.554 82.289c-17.878-3.515-25.11-9.19-30.353-16.06C237.957 59.357 212 25 212 25v8.64c1.086 1.293 24.831 29.577 31.2 36.903 7.431 8.546 17.8 10.787 30.354 13.104A5472.836 5472.836 0 01302 89v-1.277s-18.138-3.407-28.446-5.434" fill="#B4B5B4" fill-rule="nonzero"/><path d="M273.554 89.389c-18.592-3.653-22.406-6.663-30.275-15.396C238.333 68.503 213.065 38.275 212 37v8.054s23.612 25.515 31.2 33.05c9.962 9.888 19.31 10.64 30.354 12.656C284.599 92.774 302 96 302 96v-1.37s-21.01-3.78-28.446-5.241" fill="#B4B5B4" fill-rule="nonzero"/><path fill="#174489" fill-rule="nonzero" d="M62 150h130V62H62z"/><path fill="#FFF101" fill-rule="nonzero" d="M128.374 75.492H133l-3.728 2.903L130.721 83l-3.714-2.837L123.293 83l1.464-4.605L121 75.492h4.61L127.006 71l1.367 4.492M128.372 134.117H133l-3.725 2.667 1.447 4.216-3.71-2.598L123.3 141l1.463-4.216-3.763-2.667h4.616L127.01 130l1.36 4.117M143.37 130.117H148l-3.727 2.66 1.45 4.223-3.712-2.605L138.3 137l1.461-4.223-3.761-2.66h4.614l1.397-4.117 1.36 4.117M143.37 79.117H148l-3.727 2.66 1.45 4.223-3.712-2.601L138.3 86l1.461-4.223-3.761-2.66h4.614L142.011 75l1.36 4.117M153.376 90.117H158l-3.728 2.658 1.45 4.225-3.714-2.6-3.706 2.6 1.463-4.225L146 90.117h4.61L152.008 86l1.368 4.117M153.376 119.115H158l-3.728 2.667 1.45 4.218-3.714-2.603-3.706 2.603 1.463-4.218-3.765-2.667h4.61l1.398-4.115 1.368 4.115M157.37 104.114H162l-3.727 2.663L159.72 111l-3.71-2.605L152.3 111l1.461-4.223-3.761-2.663h4.607L156.01 100l1.36 4.114M113.376 79.115H118l-3.728 2.664 1.45 4.221-3.714-2.605L108.294 86l1.464-4.221L106 79.115h4.61L112.008 75l1.368 4.115M103.37 90.117H108l-3.726 2.66 1.44 4.223-3.704-2.601L98.3 97l1.459-4.223L96 90.117h4.615L102.01 86l1.36 4.117M99.372 104.114H104l-3.728 2.665L101.72 111l-3.713-2.596L94.294 111l1.463-4.221L92 104.114h4.61L98.008 100l1.365 4.114M103.37 119.11H108l-3.726 2.669 1.44 4.221-3.704-2.604L98.3 126l1.459-4.221L96 119.11h4.615L102.01 115l1.36 4.11M114.375 130.117H119l-3.728 2.662 1.442 4.221-3.707-2.603-3.714 2.603 1.464-4.22-3.757-2.663h4.61l1.397-4.117 1.368 4.117"/></g></svg>
