<svg width="209" height="27" viewBox="0 0 209 27" xmlns="http://www.w3.org/2000/svg"><title>movierama</title><path d="M23.932 10.16c0 .48-.174.894-.522 1.242-.348.348-.762.522-1.242.522s-.894-.174-1.242-.522c-.348-.348-.522-.762-.522-1.242 0-.504.174-.93.522-1.278.348-.348.762-.522 1.242-.522s.894.174 1.242.522c.348.348.522.774.522 1.278zm-4.968-1.8c0 .504-.174.93-.522 1.278-.348.348-.762.522-1.242.522s-.894-.174-1.242-.522c-.348-.348-.522-.774-.522-1.278 0-.48.174-.894.522-1.242.348-.348.762-.522 1.242-.522s.894.174 1.242.522c.348.348.522.762.522 1.242zm4.968 5.328c0 .48-.174.894-.522 1.242-.348.348-.762.522-1.242.522s-.894-.174-1.242-.522c-.348-.348-.522-.762-.522-1.242s.174-.894.522-1.242c.348-.348.762-.522 1.242-.522s.894.174 1.242.522c.348.348.522.762.522 1.242zm0 3.564c0 .48-.174.894-.522 1.242-.348.348-.762.522-1.242.522s-.894-.174-1.242-.522c-.348-.348-.522-.762-.522-1.242 0-.504.174-.93.522-1.278.348-.348.762-.522 1.242-.522s.894.174 1.242.522c.348.348.522.774.522 1.278zm-7.416-6.228c0 .504-.174.924-.522 1.26-.348.336-.762.504-1.242.504s-.894-.168-1.242-.504c-.348-.336-.522-.756-.522-1.26 0-.48.174-.894.522-1.242.348-.348.762-.522 1.242-.522s.894.174 1.242.522c.348.348.522.762.522 1.242zm7.416 9.756c0 .48-.174.894-.522 1.242-.348.348-.762.522-1.242.522s-.894-.174-1.242-.522c-.348-.348-.522-.762-.522-1.242s.174-.894.522-1.242c.348-.348.762-.522 1.242-.522s.894.174 1.242.522c.348.348.522.762.522 1.242zM4.348 3.068c0 .48-.174.894-.522 1.242-.348.348-.762.522-1.242.522-.504 0-.93-.174-1.278-.522-.348-.348-.522-.762-.522-1.242 0-.504.174-.93.522-1.278.348-.348.774-.522 1.278-.522.48 0 .894.174 1.242.522.348.348.522.774.522 1.278zm2.376 2.556c0 .408-.144.762-.432 1.062-.288.3-.648.45-1.08.45-.408 0-.756-.15-1.044-.45-.288-.3-.432-.654-.432-1.062 0-.408.144-.762.432-1.062.288-.3.636-.45 1.044-.45.432 0 .792.15 1.08.45.288.3.432.654.432 1.062zM9.172 8.36c0 .504-.174.93-.522 1.278-.348.348-.762.522-1.242.522-.504 0-.93-.174-1.278-.522-.348-.348-.522-.774-.522-1.278 0-.48.174-.894.522-1.242.348-.348.774-.522 1.278-.522.48 0 .894.174 1.242.522.348.348.522.762.522 1.242zm2.448 2.664c0 .504-.174.924-.522 1.26-.348.336-.762.504-1.242.504-.504 0-.93-.168-1.278-.504-.348-.336-.522-.756-.522-1.26 0-.48.174-.894.522-1.242.348-.348.774-.522 1.278-.522.48 0 .894.174 1.242.522.348.348.522.762.522 1.242zm2.448 2.664c0 .48-.174.894-.522 1.242-.348.348-.762.522-1.242.522-.504 0-.924-.174-1.26-.522-.336-.348-.504-.762-.504-1.242s.168-.894.504-1.242c.336-.348.756-.522 1.26-.522.48 0 .894.174 1.242.522.348.348.522.762.522 1.242zm9.864 10.656c0 .48-.174.894-.522 1.242-.348.348-.762.522-1.242.522s-.894-.174-1.242-.522c-.348-.348-.522-.762-.522-1.242 0-.504.174-.93.522-1.278.348-.348.762-.522 1.242-.522s.894.174 1.242.522c.348.348.522.774.522 1.278zM3.844 6.596c0 .408-.15.762-.45 1.062-.3.3-.654.45-1.062.45-.408 0-.762-.15-1.062-.45-.3-.3-.45-.654-.45-1.062 0-.408.15-.762.45-1.062.3-.3.654-.45 1.062-.45.408 0 .762.15 1.062.45.3.3.45.654.45 1.062zm.504 3.564c0 .48-.174.894-.522 1.242-.348.348-.762.522-1.242.522-.504 0-.93-.174-1.278-.522-.348-.348-.522-.762-.522-1.242 0-.504.174-.93.522-1.278.348-.348.774-.522 1.278-.522.48 0 .894.174 1.242.522.348.348.522.774.522 1.278zm0 3.528c0 .48-.174.894-.522 1.242-.348.348-.762.522-1.242.522-.504 0-.93-.174-1.278-.522-.348-.348-.522-.762-.522-1.242s.174-.894.522-1.242c.348-.348.774-.522 1.278-.522.48 0 .894.174 1.242.522.348.348.522.762.522 1.242zm0 3.564c0 .48-.174.894-.522 1.242-.348.348-.762.522-1.242.522-.504 0-.93-.174-1.278-.522-.348-.348-.522-.762-.522-1.242 0-.504.174-.93.522-1.278.348-.348.774-.522 1.278-.522.48 0 .894.174 1.242.522.348.348.522.774.522 1.278zm0 3.528c0 .48-.174.894-.522 1.242-.348.348-.762.522-1.242.522-.504 0-.93-.174-1.278-.522-.348-.348-.522-.762-.522-1.242s.174-.894.522-1.242c.348-.348.774-.522 1.278-.522.48 0 .894.174 1.242.522.348.348.522.762.522 1.242zm0 3.564c0 .48-.174.894-.522 1.242-.348.348-.762.522-1.242.522-.504 0-.93-.174-1.278-.522-.348-.348-.522-.762-.522-1.242 0-.504.174-.93.522-1.278.348-.348.774-.522 1.278-.522.48 0 .894.174 1.242.522.348.348.522.774.522 1.278zM20.404 3.068c0-.504.174-.93.522-1.278.348-.348.762-.522 1.242-.522s.894.174 1.242.522c.348.348.522.774.522 1.278 0 .48-.174.894-.522 1.242-.348.348-.762.522-1.242.522s-.894-.174-1.242-.522c-.348-.348-.522-.762-.522-1.242zm-2.412 2.556c0-.408.15-.762.45-1.062.3-.3.654-.45 1.062-.45.408 0 .762.15 1.062.45.3.3.45.654.45 1.062 0 .408-.15.762-.45 1.062-.3.3-.654.45-1.062.45-.408 0-.762-.15-1.062-.45-.3-.3-.45-.654-.45-1.062zm2.916.972c0-.408.144-.762.432-1.062.288-.3.648-.45 1.08-.45.408 0 .762.15 1.062.45.3.3.45.654.45 1.062 0 .408-.15.762-.45 1.062-.3.3-.654.45-1.062.45-.432 0-.792-.15-1.08-.45-.288-.3-.432-.654-.432-1.062zm32.292.216c0 .48-.168.9-.504 1.26-.336.36-.756.54-1.26.54-.48 0-.894-.174-1.242-.522-.348-.348-.522-.762-.522-1.242 0-.504.174-.93.522-1.278.348-.348.762-.522 1.242-.522s.894.174 1.242.522c.348.348.522.762.522 1.242zm-2.628-2.34c0 .48-.168.894-.504 1.242-.336.348-.756.522-1.26.522-.48 0-.894-.168-1.242-.504-.348-.336-.522-.756-.522-1.26 0-.48.174-.894.522-1.242.348-.348.762-.522 1.242-.522s.894.174 1.242.522c.348.348.522.762.522 1.242zm4.32 5.472c0 .504-.174.93-.522 1.278-.348.348-.762.522-1.242.522-.504 0-.93-.174-1.278-.522-.348-.348-.522-.762-.522-1.242s.174-.9.522-1.26c.348-.36.762-.54 1.242-.54s.9.174 1.26.522c.36.348.54.762.54 1.242zm-7.56-6.84c0 .48-.174.894-.522 1.242-.348.348-.774.522-1.278.522-.48 0-.894-.168-1.242-.504-.348-.336-.522-.756-.522-1.26 0-.48.174-.894.522-1.242.348-.348.762-.522 1.242-.522s.9.174 1.26.522c.36.348.54.762.54 1.242zm7.92 10.404c0 .504-.174.93-.522 1.278-.348.348-.762.522-1.242.522s-.9-.174-1.26-.522c-.36-.348-.54-.762-.54-1.242s.174-.9.522-1.26c.348-.36.762-.54 1.242-.54.504 0 .93.174 1.278.522.348.348.522.762.522 1.242zM43.804 2.636c0 .48-.174.894-.522 1.242-.348.348-.762.522-1.242.522-.504 0-.93-.168-1.278-.504-.348-.336-.522-.756-.522-1.26 0-.48.174-.894.522-1.242.348-.348.762-.522 1.242-.522.504 0 .93.174 1.278.522.348.348.522.762.522 1.242zm10.98 14.436c0 .504-.168.93-.504 1.278-.336.348-.756.522-1.26.522-.48 0-.894-.174-1.242-.522-.348-.348-.522-.762-.522-1.242s.174-.9.522-1.26c.348-.36.762-.54 1.242-.54s.894.174 1.242.522c.348.348.522.762.522 1.242zM40.24 3.104c0 .504-.174.924-.522 1.26-.348.336-.762.504-1.242.504-.504 0-.924-.174-1.26-.522-.336-.348-.504-.762-.504-1.242s.174-.894.522-1.242c.348-.348.762-.522 1.242-.522s.894.174 1.242.522c.348.348.522.762.522 1.242zM53.164 20.24c0 .48-.174.9-.522 1.26-.348.36-.762.54-1.242.54s-.894-.174-1.242-.522c-.348-.348-.522-.762-.522-1.242 0-.504.168-.93.504-1.278.336-.348.756-.522 1.26-.522.48 0 .894.174 1.242.522.348.348.522.762.522 1.242zm-16.2-15.768c0 .504-.174.924-.522 1.26-.348.336-.762.504-1.242.504s-.894-.174-1.242-.522c-.348-.348-.522-.762-.522-1.242s.174-.894.522-1.242c.348-.348.762-.522 1.242-.522.504 0 .924.174 1.26.522.336.348.504.762.504 1.242zm13.572 18.144c0 .48-.168.894-.504 1.242-.336.348-.756.522-1.26.522-.48 0-.894-.168-1.242-.504-.348-.336-.522-.756-.522-1.26 0-.48.174-.894.522-1.242.348-.348.762-.522 1.242-.522s.894.174 1.242.522c.348.348.522.762.522 1.242zm-16.2-15.768c0 .48-.174.894-.522 1.242-.348.348-.762.522-1.242.522-.504 0-.924-.18-1.26-.54-.336-.36-.504-.78-.504-1.26s.174-.894.522-1.242c.348-.348.762-.522 1.242-.522s.894.174 1.242.522c.348.348.522.774.522 1.278zm12.96 17.172c0 .48-.174.894-.522 1.242-.348.348-.762.522-1.242.522s-.894-.174-1.242-.522c-.348-.348-.522-.762-.522-1.242s.168-.894.504-1.242c.336-.348.756-.522 1.26-.522.48 0 .894.168 1.242.504.348.336.522.756.522 1.26zM32.68 9.98c0 .48-.174.894-.522 1.242-.348.348-.762.522-1.242.522-.504 0-.924-.174-1.26-.522-.336-.348-.504-.774-.504-1.278 0-.48.174-.894.522-1.242.348-.348.762-.522 1.242-.522s.894.18 1.242.54c.348.36.522.78.522 1.26zm11.088 14.544c0 .48-.174.894-.522 1.242-.348.348-.762.522-1.242.522s-.894-.174-1.242-.522c-.348-.348-.522-.762-.522-1.242 0-.504.174-.924.522-1.26.348-.336.762-.504 1.242-.504.504 0 .924.174 1.26.522.336.348.504.762.504 1.242zM32.32 13.544c0 .48-.174.894-.522 1.242-.348.348-.774.522-1.278.522-.48 0-.894-.174-1.242-.522-.348-.348-.522-.774-.522-1.278 0-.48.174-.894.522-1.242.348-.348.774-.522 1.278-.522.48 0 .894.18 1.242.54.348.36.522.78.522 1.26zm7.956 10.476c0 .48-.18.894-.54 1.242-.36.348-.78.522-1.26.522s-.894-.174-1.242-.522c-.348-.348-.522-.762-.522-1.242 0-.504.174-.924.522-1.26.348-.336.774-.504 1.278-.504.48 0 .894.174 1.242.522.348.348.522.762.522 1.242zm-7.524-6.912c0 .48-.174.894-.522 1.242-.348.348-.762.522-1.242.522-.504 0-.924-.174-1.26-.522-.336-.348-.504-.774-.504-1.278 0-.48.174-.894.522-1.242.348-.348.762-.522 1.242-.522s.894.18 1.242.54c.348.36.522.78.522 1.26zM37 22.616c0 .504-.174.924-.522 1.26-.348.336-.762.504-1.242.504-.504 0-.924-.174-1.26-.522-.336-.348-.504-.762-.504-1.242s.174-.894.522-1.242c.348-.348.762-.522 1.242-.522s.894.174 1.242.522c.348.348.522.762.522 1.242zm-2.592-2.34c0 .48-.18.894-.54 1.242-.36.348-.78.522-1.26.522s-.894-.18-1.242-.54c-.348-.36-.522-.78-.522-1.26s.174-.894.522-1.242c.348-.348.774-.522 1.278-.522.48 0 .894.174 1.242.522.348.348.522.774.522 1.278zM77.14 2.96c0 .48-.174.894-.522 1.242-.348.348-.774.522-1.278.522-.48 0-.894-.174-1.242-.522-.348-.348-.522-.762-.522-1.242s.174-.894.522-1.242c.348-.348.774-.522 1.278-.522.48 0 .894.174 1.242.522.348.348.522.762.522 1.242zm-1.404 3.276c0 .48-.174.894-.522 1.242-.348.348-.762.522-1.242.522s-.894-.174-1.242-.522c-.348-.348-.522-.762-.522-1.242 0-.504.174-.93.522-1.278.348-.348.762-.522 1.242-.522s.894.174 1.242.522c.348.348.522.774.522 1.278zm-1.368 3.24c0 .504-.174.93-.522 1.278-.348.348-.774.522-1.278.522-.48 0-.894-.174-1.242-.522-.348-.348-.522-.774-.522-1.278 0-.48.174-.894.522-1.242.348-.348.774-.522 1.278-.522.48 0 .894.174 1.242.522.348.348.522.762.522 1.242zm-1.404 3.276c0 .48-.174.894-.522 1.242-.348.348-.762.522-1.242.522s-.894-.174-1.242-.522c-.348-.348-.522-.762-.522-1.242s.174-.894.522-1.242c.348-.348.762-.522 1.242-.522s.894.174 1.242.522c.348.348.522.762.522 1.242zm-12.42-9.864c0 .48-.174.894-.522 1.242-.348.348-.774.522-1.278.522-.48 0-.894-.174-1.242-.522-.348-.348-.522-.762-.522-1.242s.174-.894.522-1.242c.348-.348.762-.522 1.242-.522.504 0 .93.174 1.278.522.348.348.522.762.522 1.242zm1.368 3.276c0 .48-.174.894-.522 1.242-.348.348-.762.522-1.242.522s-.894-.174-1.242-.522c-.348-.348-.522-.762-.522-1.242 0-.504.168-.93.504-1.278.336-.348.756-.522 1.26-.522.48 0 .894.174 1.242.522.348.348.522.774.522 1.278zm9.684 9.756c0 .504-.174.93-.522 1.278-.348.348-.762.522-1.242.522-.504 0-.93-.174-1.278-.522-.348-.348-.522-.762-.522-1.242 0-.504.174-.93.522-1.278.348-.348.774-.522 1.278-.522.48 0 .894.174 1.242.522.348.348.522.762.522 1.242zm-8.28-6.516c0 .48-.174.894-.522 1.242-.348.348-.774.522-1.278.522-.48 0-.894-.168-1.242-.504-.348-.336-.522-.756-.522-1.26 0-.48.174-.894.522-1.242.348-.348.762-.522 1.242-.522.504 0 .93.174 1.278.522.348.348.522.762.522 1.242zm1.368 3.276c0 .48-.174.894-.522 1.242-.348.348-.762.522-1.242.522-.504 0-.924-.174-1.26-.522-.336-.348-.504-.762-.504-1.242s.168-.894.504-1.242c.336-.348.756-.522 1.26-.522.48 0 .894.174 1.242.522.348.348.522.762.522 1.242zm5.616 6.408c0 .432-.156.804-.468 1.116-.312.312-.684.468-1.116.468-.432 0-.804-.156-1.116-.468-.312-.312-.468-.684-.468-1.116 0-.432.156-.804.468-1.116.312-.312.684-.468 1.116-.468.432 0 .804.156 1.116.468.312.312.468.684.468 1.116zm-4.248-3.168c0 .504-.168.93-.504 1.278-.336.348-.756.522-1.26.522-.48 0-.894-.174-1.242-.522-.348-.348-.522-.762-.522-1.242 0-.504.174-.93.522-1.278.348-.348.762-.522 1.242-.522.504 0 .924.174 1.26.522.336.348.504.762.504 1.242zm1.08 3.168c0 .432-.156.804-.468 1.116-.312.312-.684.468-1.116.468-.432 0-.804-.156-1.116-.468-.312-.312-.468-.684-.468-1.116 0-.432.156-.804.468-1.116.312-.312.684-.468 1.116-.468.432 0 .804.156 1.116.468.312.312.468.684.468 1.116zm1.692 2.952c0 .48-.174.894-.522 1.242-.348.348-.762.522-1.242.522s-.894-.174-1.242-.522c-.348-.348-.522-.762-.522-1.242s.174-.894.522-1.242c.348-.348.762-.522 1.242-.522s.894.174 1.242.522c.348.348.522.762.522 1.242zm-.648 2.844c0 .696-.348 1.044-1.044 1.044-.696 0-1.044-.348-1.044-1.044 0-.696.348-1.044 1.044-1.044.696 0 1.044.348 1.044 1.044zM84.952 2.996c0 .504-.174.93-.522 1.278-.348.348-.774.522-1.278.522-.48 0-.894-.174-1.242-.522-.348-.348-.522-.774-.522-1.278 0-.48.174-.894.522-1.242.348-.348.762-.522 1.242-.522.504 0 .93.174 1.278.522.348.348.522.762.522 1.242zm0 3.564c0 .48-.174.894-.522 1.242-.348.348-.774.522-1.278.522-.48 0-.894-.174-1.242-.522-.348-.348-.522-.762-.522-1.242s.174-.894.522-1.242c.348-.348.762-.522 1.242-.522.504 0 .93.174 1.278.522.348.348.522.762.522 1.242zm0 3.528c0 .504-.174.93-.522 1.278-.348.348-.774.522-1.278.522-.48 0-.894-.174-1.242-.522-.348-.348-.522-.774-.522-1.278 0-.48.174-.894.522-1.242.348-.348.762-.522 1.242-.522.504 0 .93.174 1.278.522.348.348.522.762.522 1.242zm0 3.564c0 .48-.174.894-.522 1.242-.348.348-.774.522-1.278.522-.48 0-.894-.174-1.242-.522-.348-.348-.522-.762-.522-1.242s.174-.894.522-1.242c.348-.348.762-.522 1.242-.522.504 0 .93.174 1.278.522.348.348.522.762.522 1.242zm0 3.528c0 .504-.174.93-.522 1.278-.348.348-.774.522-1.278.522-.48 0-.894-.174-1.242-.522-.348-.348-.522-.774-.522-1.278 0-.48.174-.894.522-1.242.348-.348.762-.522 1.242-.522.504 0 .93.174 1.278.522.348.348.522.762.522 1.242zm0 3.564c0 .48-.174.894-.522 1.242-.348.348-.774.522-1.278.522-.48 0-.894-.174-1.242-.522-.348-.348-.522-.762-.522-1.242s.174-.894.522-1.242c.348-.348.762-.522 1.242-.522.504 0 .93.174 1.278.522.348.348.522.762.522 1.242zm0 3.528c0 .504-.174.93-.522 1.278-.348.348-.774.522-1.278.522-.48 0-.894-.174-1.242-.522-.348-.348-.522-.774-.522-1.278 0-.48.174-.894.522-1.242.348-.348.762-.522 1.242-.522.504 0 .93.174 1.278.522.348.348.522.762.522 1.242zm19.08-21.276c0 .504-.174.93-.522 1.278-.348.348-.762.522-1.242.522s-.894-.174-1.242-.522c-.348-.348-.522-.774-.522-1.278 0-.48.174-.894.522-1.242.348-.348.762-.522 1.242-.522s.894.174 1.242.522c.348.348.522.762.522 1.242zm-3.564 0c0 .504-.174.93-.522 1.278-.348.348-.762.522-1.242.522s-.894-.174-1.242-.522c-.348-.348-.522-.774-.522-1.278 0-.48.174-.894.522-1.242.348-.348.762-.522 1.242-.522s.894.174 1.242.522c.348.348.522.762.522 1.242zm-3.528 0c0 .504-.174.93-.522 1.278-.348.348-.774.522-1.278.522-.48 0-.894-.174-1.242-.522-.348-.348-.522-.774-.522-1.278 0-.48.174-.894.522-1.242.348-.348.762-.522 1.242-.522.504 0 .93.174 1.278.522.348.348.522.762.522 1.242zm7.092 10.656c0 .48-.174.894-.522 1.242-.348.348-.762.522-1.242.522s-.894-.174-1.242-.522c-.348-.348-.522-.762-.522-1.242s.174-.894.522-1.242c.348-.348.762-.522 1.242-.522s.894.174 1.242.522c.348.348.522.762.522 1.242zM93.376 2.996c0 .504-.174.93-.522 1.278-.348.348-.762.522-1.242.522-.504 0-.93-.174-1.278-.522-.348-.348-.522-.774-.522-1.278 0-.48.174-.894.522-1.242.348-.348.774-.522 1.278-.522.48 0 .894.174 1.242.522.348.348.522.762.522 1.242zm7.092 10.656c0 .48-.174.894-.522 1.242-.348.348-.762.522-1.242.522s-.894-.174-1.242-.522c-.348-.348-.522-.762-.522-1.242s.174-.894.522-1.242c.348-.348.762-.522 1.242-.522s.894.174 1.242.522c.348.348.522.762.522 1.242zM93.376 6.56c0 .48-.174.894-.522 1.242-.348.348-.762.522-1.242.522-.504 0-.93-.174-1.278-.522-.348-.348-.522-.762-.522-1.242s.174-.894.522-1.242c.348-.348.774-.522 1.278-.522.48 0 .894.174 1.242.522.348.348.522.762.522 1.242zm3.564 7.092c0 .48-.174.894-.522 1.242-.348.348-.774.522-1.278.522-.48 0-.894-.174-1.242-.522-.348-.348-.522-.762-.522-1.242s.174-.894.522-1.242c.348-.348.762-.522 1.242-.522.504 0 .93.174 1.278.522.348.348.522.762.522 1.242zm-3.564-3.564c0 .504-.174.93-.522 1.278-.348.348-.762.522-1.242.522-.504 0-.93-.174-1.278-.522-.348-.348-.522-.774-.522-1.278 0-.48.174-.894.522-1.242.348-.348.774-.522 1.278-.522.48 0 .894.174 1.242.522.348.348.522.762.522 1.242zm10.656 14.184c0 .504-.174.93-.522 1.278-.348.348-.762.522-1.242.522s-.894-.174-1.242-.522c-.348-.348-.522-.774-.522-1.278 0-.48.174-.894.522-1.242.348-.348.762-.522 1.242-.522s.894.174 1.242.522c.348.348.522.762.522 1.242zm-10.656-10.62c0 .48-.174.894-.522 1.242-.348.348-.762.522-1.242.522-.504 0-.93-.174-1.278-.522-.348-.348-.522-.762-.522-1.242s.174-.894.522-1.242c.348-.348.774-.522 1.278-.522.48 0 .894.174 1.242.522.348.348.522.762.522 1.242zm7.092 10.62c0 .504-.174.93-.522 1.278-.348.348-.762.522-1.242.522s-.894-.174-1.242-.522c-.348-.348-.522-.774-.522-1.278 0-.48.174-.894.522-1.242.348-.348.762-.522 1.242-.522s.894.174 1.242.522c.348.348.522.762.522 1.242zm-7.092-7.092c0 .504-.174.93-.522 1.278-.348.348-.762.522-1.242.522-.504 0-.93-.174-1.278-.522-.348-.348-.522-.774-.522-1.278 0-.48.174-.894.522-1.242.348-.348.774-.522 1.278-.522.48 0 .894.174 1.242.522.348.348.522.762.522 1.242zm3.564 7.092c0 .504-.174.93-.522 1.278-.348.348-.774.522-1.278.522-.48 0-.894-.174-1.242-.522-.348-.348-.522-.774-.522-1.278 0-.48.174-.894.522-1.242.348-.348.762-.522 1.242-.522.504 0 .93.174 1.278.522.348.348.522.762.522 1.242zm-3.564-3.528c0 .48-.174.894-.522 1.242-.348.348-.762.522-1.242.522-.504 0-.93-.174-1.278-.522-.348-.348-.522-.762-.522-1.242s.174-.894.522-1.242c.348-.348.774-.522 1.278-.522.48 0 .894.174 1.242.522.348.348.522.762.522 1.242zm0 3.528c0 .504-.174.93-.522 1.278-.348.348-.762.522-1.242.522-.504 0-.93-.174-1.278-.522-.348-.348-.522-.774-.522-1.278 0-.48.174-.894.522-1.242.348-.348.774-.522 1.278-.522.48 0 .894.174 1.242.522.348.348.522.762.522 1.242zm28.296-19.404c0 .48-.174.894-.522 1.242-.348.348-.774.522-1.278.522-.48 0-.894-.174-1.242-.522-.348-.348-.522-.762-.522-1.242 0-.504.174-.924.522-1.26.348-.336.762-.504 1.242-.504.504 0 .93.168 1.278.504.348.336.522.756.522 1.26zm-3.096-1.836c0 .504-.174.924-.522 1.26-.348.336-.762.504-1.242.504s-.894-.168-1.242-.504c-.348-.336-.522-.756-.522-1.26 0-.48.174-.894.522-1.242.348-.348.762-.522 1.242-.522s.894.174 1.242.522c.348.348.522.762.522 1.242zm3.996 5.22c0 .48-.174.894-.522 1.242-.348.348-.762.522-1.242.522s-.894-.174-1.242-.522c-.348-.348-.522-.762-.522-1.242s.174-.894.522-1.242c.348-.348.762-.522 1.242-.522s.894.174 1.242.522c.348.348.522.762.522 1.242zm-7.524-5.184c0 .48-.174.894-.522 1.242-.348.348-.774.522-1.278.522-.48 0-.894-.174-1.242-.522-.348-.348-.522-.762-.522-1.242 0-.504.174-.93.522-1.278.348-.348.762-.522 1.242-.522.504 0 .93.174 1.278.522.348.348.522.774.522 1.278zm6.516 8.604c0 .48-.174.894-.522 1.242-.348.348-.774.522-1.278.522-.48 0-.894-.174-1.242-.522-.348-.348-.522-.762-.522-1.242s.174-.894.522-1.242c.348-.348.762-.522 1.242-.522.504 0 .93.174 1.278.522.348.348.522.762.522 1.242zm-10.08-8.604c0 .48-.174.894-.522 1.242-.348.348-.762.522-1.242.522s-.894-.174-1.242-.522c-.348-.348-.522-.762-.522-1.242 0-.504.174-.93.522-1.278.348-.348.762-.522 1.242-.522s.894.174 1.242.522c.348.348.522.774.522 1.278zm7.092 10.476c0 .48-.174.894-.522 1.242-.348.348-.762.522-1.242.522s-.894-.174-1.242-.522c-.348-.348-.522-.762-.522-1.242 0-.504.174-.93.522-1.278.348-.348.762-.522 1.242-.522s.894.174 1.242.522c.348.348.522.774.522 1.278zm2.448 2.484c0 .48-.174.894-.522 1.242-.348.348-.762.522-1.242.522-.504 0-.924-.174-1.26-.522-.336-.348-.504-.762-.504-1.242s.168-.894.504-1.242c.336-.348.756-.522 1.26-.522.48 0 .894.174 1.242.522.348.348.522.762.522 1.242zm-9.54-9.432c0 .48-.174.894-.522 1.242-.348.348-.762.522-1.242.522s-.894-.174-1.242-.522c-.348-.348-.522-.762-.522-1.242s.174-.894.522-1.242c.348-.348.762-.522 1.242-.522s.894.174 1.242.522c.348.348.522.762.522 1.242zM123.4 18.62c0 .48-.174.894-.522 1.242-.348.348-.762.522-1.242.522s-.894-.174-1.242-.522c-.348-.348-.522-.762-.522-1.242 0-.504.174-.93.522-1.278.348-.348.762-.522 1.242-.522s.894.174 1.242.522c.348.348.522.774.522 1.278zm2.016 2.808c0 .48-.174.894-.522 1.242-.348.348-.762.522-1.242.522s-.894-.174-1.242-.522c-.348-.348-.522-.762-.522-1.242s.174-.894.522-1.242c.348-.348.762-.522 1.242-.522s.894.174 1.242.522c.348.348.522.762.522 1.242zm1.872 2.952c0 .48-.168.894-.504 1.242-.336.348-.756.522-1.26.522-.48 0-.894-.174-1.242-.522-.348-.348-.522-.762-.522-1.242s.174-.894.522-1.242c.348-.348.762-.522 1.242-.522.504 0 .924.174 1.26.522.336.348.504.762.504 1.242zm-15.804-14.22c0 .48-.174.894-.522 1.242-.348.348-.762.522-1.242.522s-.894-.174-1.242-.522c-.348-.348-.522-.762-.522-1.242 0-.504.174-.93.522-1.278.348-.348.762-.522 1.242-.522s.894.174 1.242.522c.348.348.522.774.522 1.278zm3.564 3.528c0 .48-.174.894-.522 1.242-.348.348-.774.522-1.278.522-.48 0-.894-.174-1.242-.522-.348-.348-.522-.762-.522-1.242s.174-.894.522-1.242c.348-.348.762-.522 1.242-.522.504 0 .93.174 1.278.522.348.348.522.762.522 1.242zm-3.564 0c0 .48-.174.894-.522 1.242-.348.348-.762.522-1.242.522s-.894-.174-1.242-.522c-.348-.348-.522-.762-.522-1.242s.174-.894.522-1.242c.348-.348.762-.522 1.242-.522s.894.174 1.242.522c.348.348.522.762.522 1.242zm0 3.564c0 .48-.174.894-.522 1.242-.348.348-.762.522-1.242.522s-.894-.174-1.242-.522c-.348-.348-.522-.762-.522-1.242 0-.504.174-.93.522-1.278.348-.348.762-.522 1.242-.522s.894.174 1.242.522c.348.348.522.774.522 1.278zm0 3.528c0 .48-.174.894-.522 1.242-.348.348-.762.522-1.242.522s-.894-.174-1.242-.522c-.348-.348-.522-.762-.522-1.242s.174-.894.522-1.242c.348-.348.762-.522 1.242-.522s.894.174 1.242.522c.348.348.522.762.522 1.242zm0 3.564c0 .48-.174.894-.522 1.242-.348.348-.762.522-1.242.522s-.894-.174-1.242-.522c-.348-.348-.522-.762-.522-1.242 0-.504.174-.93.522-1.278.348-.348.762-.522 1.242-.522s.894.174 1.242.522c.348.348.522.774.522 1.278zm32.724-21.492c0 .48-.174.894-.522 1.242-.348.348-.762.522-1.242.522-.504 0-.93-.174-1.278-.522-.348-.348-.522-.762-.522-1.242s.174-.894.522-1.242c.348-.348.774-.522 1.278-.522.48 0 .894.174 1.242.522.348.348.522.762.522 1.242zm-2.952 5.796c.048.48-.072.906-.36 1.278s-.66.582-1.116.63c-.48.048-.9-.072-1.26-.36s-.576-.66-.648-1.116c-.048-.48.072-.906.36-1.278s.66-.582 1.116-.63c.48-.048.906.072 1.278.36s.582.66.63 1.116zm6.372 9.576c0 .48-.174.888-.522 1.224-.348.336-.75.504-1.206.504-.48 0-.894-.168-1.242-.504-.348-.336-.522-.744-.522-1.224s.174-.894.522-1.242c.348-.348.762-.522 1.242-.522.456 0 .858.174 1.206.522.348.348.522.762.522 1.242zm-7.704-6.444c.048.48-.072.906-.36 1.278s-.66.582-1.116.63c-.456.048-.87-.072-1.242-.36s-.594-.66-.666-1.116c-.048-.48.072-.906.36-1.278s.66-.582 1.116-.63c.48-.048.906.072 1.278.36s.582.66.63 1.116zm4.248 6.444c0 .48-.168.888-.504 1.224-.336.336-.744.504-1.224.504s-.888-.174-1.224-.522c-.336-.348-.504-.75-.504-1.206 0-.48.168-.894.504-1.242.336-.348.744-.522 1.224-.522s.888.174 1.224.522c.336.348.504.762.504 1.242zm-5.58-3.312c.072.48-.042.906-.342 1.278-.3.372-.678.582-1.134.63-.456.048-.87-.072-1.242-.36s-.594-.66-.666-1.116c-.048-.48.072-.9.36-1.26s.66-.576 1.116-.648c.48-.048.906.072 1.278.36s.582.66.63 1.116zm2.16 3.312c0 .456-.174.858-.522 1.206-.348.348-.762.522-1.242.522-.456 0-.858-.174-1.206-.522-.348-.348-.522-.75-.522-1.206 0-.48.174-.894.522-1.242.348-.348.75-.522 1.206-.522.48 0 .894.174 1.242.522.348.348.522.762.522 1.242zm-3.492-.18c.072.48-.042.906-.342 1.278-.3.372-.678.582-1.134.63-.456.048-.87-.072-1.242-.36s-.594-.66-.666-1.116c-.048-.456.072-.87.36-1.242s.66-.594 1.116-.666c.48-.048.906.072 1.278.36s.582.66.63 1.116zm-2.664 6.264c.072.456-.042.87-.342 1.242-.3.372-.678.582-1.134.63-.456.072-.87-.042-1.242-.342-.372-.3-.594-.678-.666-1.134-.048-.456.072-.87.36-1.242s.672-.594 1.152-.666c.456-.048.87.072 1.242.36s.582.672.63 1.152zm7.848-18.684c.048.432-.066.822-.342 1.17s-.63.558-1.062.63c-.456.048-.858-.066-1.206-.342s-.546-.63-.594-1.062c-.048-.456.066-.858.342-1.206s.63-.546 1.062-.594c.432-.072.828.03 1.188.306s.564.642.612 1.098zM136 21.176c.048.456-.072.87-.36 1.242s-.672.594-1.152.666c-.456.048-.87-.072-1.242-.36s-.582-.672-.63-1.152c-.072-.456.042-.87.342-1.242.3-.372.678-.582 1.134-.63.456-.072.87.042 1.242.342.372.3.594.678.666 1.134zm7.596-12.528c.072-.456.294-.828.666-1.116.372-.288.786-.408 1.242-.36.456.048.834.258 1.134.63.3.372.414.798.342 1.278-.048.456-.258.828-.63 1.116-.372.288-.786.408-1.242.36-.48-.072-.864-.294-1.152-.666-.288-.372-.408-.786-.36-1.242zm1.332 3.132c.072-.456.294-.828.666-1.116.372-.288.786-.408 1.242-.36.456.048.834.258 1.134.63.3.372.414.798.342 1.278-.048.456-.258.828-.63 1.116-.372.288-.786.408-1.242.36-.48-.048-.864-.258-1.152-.63-.288-.372-.408-.798-.36-1.278zm1.332 3.132c.072-.456.294-.828.666-1.116.372-.288.786-.408 1.242-.36.456.048.834.258 1.134.63.3.372.414.798.342 1.278-.048.456-.258.828-.63 1.116-.372.288-.786.408-1.242.36-.48-.048-.864-.258-1.152-.63-.288-.372-.408-.798-.36-1.278zm1.332 3.132c.072-.456.294-.828.666-1.116.372-.288.786-.408 1.242-.36.456.048.834.258 1.134.63.3.372.414.798.342 1.278-.048.456-.258.828-.63 1.116-.372.288-.786.408-1.242.36-.48-.048-.864-.258-1.152-.63-.288-.372-.408-.798-.36-1.278zm2.664 6.228c.072-.456.294-.828.666-1.116.372-.288.786-.408 1.242-.36.456.072.834.294 1.134.666.3.372.414.786.342 1.242-.048.456-.258.834-.63 1.134-.372.3-.798.414-1.278.342-.456-.048-.828-.258-1.116-.63-.288-.372-.408-.798-.36-1.278zm-7.848-18.648c.072-.456.282-.822.63-1.098.348-.276.738-.39 1.17-.342.456.072.822.282 1.098.63.276.348.39.738.342 1.17-.072.456-.282.822-.63 1.098-.348.276-.738.39-1.17.342-.456-.072-.822-.282-1.098-.63-.276-.348-.39-.738-.342-1.17zm6.48 15.552c.048-.48.258-.864.63-1.152.372-.288.798-.396 1.278-.324.456.048.828.258 1.116.63.288.372.408.786.36 1.242-.072.48-.294.864-.666 1.152-.372.288-.786.396-1.242.324-.456-.048-.834-.258-1.134-.63-.3-.372-.414-.786-.342-1.242zm32.508-11.016c0 .48-.174.894-.522 1.242-.348.348-.762.522-1.242.522s-.894-.174-1.242-.522c-.348-.348-.522-.762-.522-1.242 0-.504.174-.93.522-1.278.348-.348.762-.522 1.242-.522s.894.174 1.242.522c.348.348.522.774.522 1.278zm-4.968-1.8c0 .504-.174.93-.522 1.278-.348.348-.762.522-1.242.522s-.894-.174-1.242-.522c-.348-.348-.522-.774-.522-1.278 0-.48.174-.894.522-1.242.348-.348.762-.522 1.242-.522s.894.174 1.242.522c.348.348.522.762.522 1.242zm4.968 5.328c0 .48-.174.894-.522 1.242-.348.348-.762.522-1.242.522s-.894-.174-1.242-.522c-.348-.348-.522-.762-.522-1.242s.174-.894.522-1.242c.348-.348.762-.522 1.242-.522s.894.174 1.242.522c.348.348.522.762.522 1.242zm0 3.564c0 .48-.174.894-.522 1.242-.348.348-.762.522-1.242.522s-.894-.174-1.242-.522c-.348-.348-.522-.762-.522-1.242 0-.504.174-.93.522-1.278.348-.348.762-.522 1.242-.522s.894.174 1.242.522c.348.348.522.774.522 1.278zm-7.416-6.228c0 .504-.174.924-.522 1.26-.348.336-.762.504-1.242.504s-.894-.168-1.242-.504c-.348-.336-.522-.756-.522-1.26 0-.48.174-.894.522-1.242.348-.348.762-.522 1.242-.522s.894.174 1.242.522c.348.348.522.762.522 1.242zm7.416 9.756c0 .48-.174.894-.522 1.242-.348.348-.762.522-1.242.522s-.894-.174-1.242-.522c-.348-.348-.522-.762-.522-1.242s.174-.894.522-1.242c.348-.348.762-.522 1.242-.522s.894.174 1.242.522c.348.348.522.762.522 1.242zM161.812 3.068c0 .48-.174.894-.522 1.242-.348.348-.762.522-1.242.522-.504 0-.93-.174-1.278-.522-.348-.348-.522-.762-.522-1.242 0-.504.174-.93.522-1.278.348-.348.774-.522 1.278-.522.48 0 .894.174 1.242.522.348.348.522.774.522 1.278zm2.376 2.556c0 .408-.144.762-.432 1.062-.288.3-.648.45-1.08.45-.408 0-.756-.15-1.044-.45-.288-.3-.432-.654-.432-1.062 0-.408.144-.762.432-1.062.288-.3.636-.45 1.044-.45.432 0 .792.15 1.08.45.288.3.432.654.432 1.062zm2.448 2.736c0 .504-.174.93-.522 1.278-.348.348-.762.522-1.242.522-.504 0-.93-.174-1.278-.522-.348-.348-.522-.774-.522-1.278 0-.48.174-.894.522-1.242.348-.348.774-.522 1.278-.522.48 0 .894.174 1.242.522.348.348.522.762.522 1.242zm2.448 2.664c0 .504-.174.924-.522 1.26-.348.336-.762.504-1.242.504-.504 0-.93-.168-1.278-.504-.348-.336-.522-.756-.522-1.26 0-.48.174-.894.522-1.242.348-.348.774-.522 1.278-.522.48 0 .894.174 1.242.522.348.348.522.762.522 1.242zm2.448 2.664c0 .48-.174.894-.522 1.242-.348.348-.762.522-1.242.522-.504 0-.924-.174-1.26-.522-.336-.348-.504-.762-.504-1.242s.168-.894.504-1.242c.336-.348.756-.522 1.26-.522.48 0 .894.174 1.242.522.348.348.522.762.522 1.242zm9.864 10.656c0 .48-.174.894-.522 1.242-.348.348-.762.522-1.242.522s-.894-.174-1.242-.522c-.348-.348-.522-.762-.522-1.242 0-.504.174-.93.522-1.278.348-.348.762-.522 1.242-.522s.894.174 1.242.522c.348.348.522.774.522 1.278zM161.308 6.596c0 .408-.15.762-.45 1.062-.3.3-.654.45-1.062.45-.408 0-.762-.15-1.062-.45-.3-.3-.45-.654-.45-1.062 0-.408.15-.762.45-1.062.3-.3.654-.45 1.062-.45.408 0 .762.15 1.062.45.3.3.45.654.45 1.062zm.504 3.564c0 .48-.174.894-.522 1.242-.348.348-.762.522-1.242.522-.504 0-.93-.174-1.278-.522-.348-.348-.522-.762-.522-1.242 0-.504.174-.93.522-1.278.348-.348.774-.522 1.278-.522.48 0 .894.174 1.242.522.348.348.522.774.522 1.278zm0 3.528c0 .48-.174.894-.522 1.242-.348.348-.762.522-1.242.522-.504 0-.93-.174-1.278-.522-.348-.348-.522-.762-.522-1.242s.174-.894.522-1.242c.348-.348.774-.522 1.278-.522.48 0 .894.174 1.242.522.348.348.522.762.522 1.242zm0 3.564c0 .48-.174.894-.522 1.242-.348.348-.762.522-1.242.522-.504 0-.93-.174-1.278-.522-.348-.348-.522-.762-.522-1.242 0-.504.174-.93.522-1.278.348-.348.774-.522 1.278-.522.48 0 .894.174 1.242.522.348.348.522.774.522 1.278zm0 3.528c0 .48-.174.894-.522 1.242-.348.348-.762.522-1.242.522-.504 0-.93-.174-1.278-.522-.348-.348-.522-.762-.522-1.242s.174-.894.522-1.242c.348-.348.774-.522 1.278-.522.48 0 .894.174 1.242.522.348.348.522.762.522 1.242zm0 3.564c0 .48-.174.894-.522 1.242-.348.348-.762.522-1.242.522-.504 0-.93-.174-1.278-.522-.348-.348-.522-.762-.522-1.242 0-.504.174-.93.522-1.278.348-.348.774-.522 1.278-.522.48 0 .894.174 1.242.522.348.348.522.774.522 1.278zm16.056-21.276c0-.504.174-.93.522-1.278.348-.348.762-.522 1.242-.522s.894.174 1.242.522c.348.348.522.774.522 1.278 0 .48-.174.894-.522 1.242-.348.348-.762.522-1.242.522s-.894-.174-1.242-.522c-.348-.348-.522-.762-.522-1.242zm-2.412 2.556c0-.408.15-.762.45-1.062.3-.3.654-.45 1.062-.45.408 0 .762.15 1.062.45.3.3.45.654.45 1.062 0 .408-.15.762-.45 1.062-.3.3-.654.45-1.062.45-.408 0-.762-.15-1.062-.45-.3-.3-.45-.654-.45-1.062zm2.916.972c0-.408.144-.762.432-1.062.288-.3.648-.45 1.08-.45.408 0 .762.15 1.062.45.3.3.45.654.45 1.062 0 .408-.15.762-.45 1.062-.3.3-.654.45-1.062.45-.432 0-.792-.15-1.08-.45-.288-.3-.432-.654-.432-1.062zm20.7-3.744c0 .48-.174.894-.522 1.242-.348.348-.762.522-1.242.522-.504 0-.93-.174-1.278-.522-.348-.348-.522-.762-.522-1.242s.174-.894.522-1.242c.348-.348.774-.522 1.278-.522.48 0 .894.174 1.242.522.348.348.522.762.522 1.242zm-2.952 5.796c.048.48-.072.906-.36 1.278s-.66.582-1.116.63c-.48.048-.9-.072-1.26-.36s-.576-.66-.648-1.116c-.048-.48.072-.906.36-1.278s.66-.582 1.116-.63c.48-.048.906.072 1.278.36s.582.66.63 1.116zm6.372 9.576c0 .48-.174.888-.522 1.224-.348.336-.75.504-1.206.504-.48 0-.894-.168-1.242-.504-.348-.336-.522-.744-.522-1.224s.174-.894.522-1.242c.348-.348.762-.522 1.242-.522.456 0 .858.174 1.206.522.348.348.522.762.522 1.242zm-7.704-6.444c.048.48-.072.906-.36 1.278s-.66.582-1.116.63c-.456.048-.87-.072-1.242-.36s-.594-.66-.666-1.116c-.048-.48.072-.906.36-1.278s.66-.582 1.116-.63c.48-.048.906.072 1.278.36s.582.66.63 1.116zm4.248 6.444c0 .48-.168.888-.504 1.224-.336.336-.744.504-1.224.504s-.888-.174-1.224-.522c-.336-.348-.504-.75-.504-1.206 0-.48.168-.894.504-1.242.336-.348.744-.522 1.224-.522s.888.174 1.224.522c.336.348.504.762.504 1.242zm-5.58-3.312c.072.48-.042.906-.342 1.278-.3.372-.678.582-1.134.63-.456.048-.87-.072-1.242-.36s-.594-.66-.666-1.116c-.048-.48.072-.9.36-1.26s.66-.576 1.116-.648c.48-.048.906.072 1.278.36s.582.66.63 1.116zm2.16 3.312c0 .456-.174.858-.522 1.206-.348.348-.762.522-1.242.522-.456 0-.858-.174-1.206-.522-.348-.348-.522-.75-.522-1.206 0-.48.174-.894.522-1.242.348-.348.75-.522 1.206-.522.48 0 .894.174 1.242.522.348.348.522.762.522 1.242zm-3.492-.18c.072.48-.042.906-.342 1.278-.3.372-.678.582-1.134.63-.456.048-.87-.072-1.242-.36s-.594-.66-.666-1.116c-.048-.456.072-.87.36-1.242s.66-.594 1.116-.666c.48-.048.906.072 1.278.36s.582.66.63 1.116zm-2.664 6.264c.072.456-.042.87-.342 1.242-.3.372-.678.582-1.134.63-.456.072-.87-.042-1.242-.342-.372-.3-.594-.678-.666-1.134-.048-.456.072-.87.36-1.242s.672-.594 1.152-.666c.456-.048.87.072 1.242.36s.582.672.63 1.152zm7.848-18.684c.048.432-.066.822-.342 1.17s-.63.558-1.062.63c-.456.048-.858-.066-1.206-.342s-.546-.63-.594-1.062c-.048-.456.066-.858.342-1.206s.63-.546 1.062-.594c.432-.072.828.03 1.188.306s.564.642.612 1.098zm-6.444 15.552c.048.456-.072.87-.36 1.242s-.672.594-1.152.666c-.456.048-.87-.072-1.242-.36s-.582-.672-.63-1.152c-.072-.456.042-.87.342-1.242.3-.372.678-.582 1.134-.63.456-.072.87.042 1.242.342.372.3.594.678.666 1.134zm7.596-12.528c.072-.456.294-.828.666-1.116.372-.288.786-.408 1.242-.36.456.048.834.258 1.134.63.3.372.414.798.342 1.278-.048.456-.258.828-.63 1.116-.372.288-.786.408-1.242.36-.48-.072-.864-.294-1.152-.666-.288-.372-.408-.786-.36-1.242zm1.332 3.132c.072-.456.294-.828.666-1.116.372-.288.786-.408 1.242-.36.456.048.834.258 1.134.63.3.372.414.798.342 1.278-.048.456-.258.828-.63 1.116-.372.288-.786.408-1.242.36-.48-.048-.864-.258-1.152-.63-.288-.372-.408-.798-.36-1.278zm1.332 3.132c.072-.456.294-.828.666-1.116.372-.288.786-.408 1.242-.36.456.048.834.258 1.134.63.3.372.414.798.342 1.278-.048.456-.258.828-.63 1.116-.372.288-.786.408-1.242.36-.48-.048-.864-.258-1.152-.63-.288-.372-.408-.798-.36-1.278zm1.332 3.132c.072-.456.294-.828.666-1.116.372-.288.786-.408 1.242-.36.456.048.834.258 1.134.63.3.372.414.798.342 1.278-.048.456-.258.828-.63 1.116-.372.288-.786.408-1.242.36-.48-.048-.864-.258-1.152-.63-.288-.372-.408-.798-.36-1.278zm2.664 6.228c.072-.456.294-.828.666-1.116.372-.288.786-.408 1.242-.36.456.072.834.294 1.134.666.3.372.414.786.342 1.242-.048.456-.258.834-.63 1.134-.372.3-.798.414-1.278.342-.456-.048-.828-.258-1.116-.63-.288-.372-.408-.798-.36-1.278zm-7.848-18.648c.072-.456.282-.822.63-1.098.348-.276.738-.39 1.17-.342.456.072.822.282 1.098.63.276.348.39.738.342 1.17-.072.456-.282.822-.63 1.098-.348.276-.738.39-1.17.342-.456-.072-.822-.282-1.098-.63-.276-.348-.39-.738-.342-1.17zm6.48 15.552c.048-.48.258-.864.63-1.152.372-.288.798-.396 1.278-.324.456.048.828.258 1.116.63.288.372.408.786.36 1.242-.072.48-.294.864-.666 1.152-.372.288-.786.396-1.242.324-.456-.048-.834-.258-1.134-.63-.3-.372-.414-.786-.342-1.242z" fill="#FFF" fill-rule="evenodd"/></svg>