<svg width="716" height="56" xmlns="http://www.w3.org/2000/svg"><g fill="#FFF" fill-rule="nonzero"><path d="M21.306 32.544c3.748-1.618 5.918-4.853 5.918-10.11v-9.908C27.224 4.236 21.898 1 13.81 1H0v55h8.878V34.162h4.34L20.122 56H29l-7.694-23.456zm-2.762-11.323c0 4.044-1.973 5.055-4.932 5.055H8.878V9.088h4.734c2.96 0 4.932 1.213 4.932 5.055v7.078zM66.698 0h.604C75.562 0 81 3.177 81 11.318v32.364C81 51.823 75.561 55 67.302 55h-.604C58.438 55 53 51.823 53 43.682V11.318C53.201 3.177 58.64 0 66.698 0zm.604 47.256c3.022 0 5.036-.992 5.036-4.964V12.708c0-3.773-2.014-4.964-5.036-4.964-3.021 0-5.036.992-5.036 4.964v29.584c0 3.972 2.015 4.964 5.036 4.964zM135 44.518C135 52.978 129.679 56 121.599 56h-.198C113.321 56 108 52.978 108 44.518V11.482C108 3.424 113.321 0 121.401 0h.198C129.679 0 135 3.424 135 11.482v10.072h-8.869v-8.662c0-3.827-1.773-5.036-4.73-5.036-2.759 0-4.73 1.209-4.73 5.036v30.014c0 3.828 1.774 5.036 4.73 5.036 2.76 0 4.73-1.208 4.73-5.036v-9.87H135v11.482zM179.986 56l-7.25-23.86-3.918 8.088V56H160V1h8.818v24.67L178.81 1h9.21l-10.19 20.625L189 56h-9.014zM212 55.798V1h23.8v8.088H221v15.166h12.4v8.088H221v15.772h15V56h-24zM285 9.088h-8.934V56h-9.132V9.088H258V1h27zM347 56V1h9v55zM382 56V1h9.126l11.56 33.97V1H411v55h-8.72l-11.965-35.79V56zM461.801 9.088h-8.933V56h-8.934V9.088H435V1h27v8.088h-.199zM485 55.798V1h23.8v8.088H494v15.166h12.4v8.088H494v15.772h15V56h-24zM556.306 32.544c3.748-1.618 5.918-4.853 5.918-10.11v-9.908C562.224 4.236 556.898 1 548.81 1H535v55h8.878V34.162h4.537L555.32 56H564l-7.694-23.456zm-2.565-11.323c0 4.044-1.972 5.055-4.931 5.055h-4.735V9.088h4.735c2.959 0 4.931 1.213 4.931 5.055v7.078zM588 56V1h9.126l11.56 33.97V1H617v55h-8.72l-11.965-35.79V56zM643 56V1h23.8v8.088H652v15.166h12.4v8.088H652v15.772h15V56zM716 9.088h-9.2V56H698V9.088h-9V1h27z"/></g></svg>
