<svg width="571" height="105" xmlns="http://www.w3.org/2000/svg"><defs><linearGradient x1="83.502%" y1="108.994%" x2="16.482%" y2="-9.002%" id="a"><stop stop-color="#F47026" offset="0%"/><stop stop-color="#F47026" offset="37.534%"/><stop stop-color="#FBC195" offset="94.923%"/><stop stop-color="#FBC195" offset="94.923%"/><stop stop-color="#FBC195" offset="100%"/></linearGradient><linearGradient x1="91.54%" y1="107.947%" x2="17.049%" y2="22.97%" id="b"><stop stop-color="#F47026" offset="0%"/><stop stop-color="#F47026" offset="37.534%"/><stop stop-color="#FBC195" offset="94.923%"/><stop stop-color="#FBC195" offset="94.923%"/><stop stop-color="#FBC195" offset="100%"/></linearGradient><linearGradient x1="0%" y1=".001%" x2="100%" y2=".001%" id="c"><stop stop-color="#F57D34" offset="0%"/><stop stop-color="#F47026" offset="53.38%"/><stop stop-color="#F47026" offset="53.38%"/><stop stop-color="#F47026" offset="100%"/></linearGradient></defs><g fill-rule="nonzero" fill="none"><path d="M236.708 27.87c-4.325-2.387-10.755-3.549-19.66-3.552-12.182.004-23.491 2.541-27.771 4.142-.967.312-2 1.149-2.018 2.582l.003.316 1.199 6.082.03.113c.375 1.238 1.403 1.793 2.338 1.793h.005c.301-.013.535-.07.754-.127l2.027-.475c5.307-1.333 13.328-3.348 22.285-3.348 5.434 0 9.086.476 11.535 1.513 3.972 1.51 3.997 4.088 4.038 8.355v6.382c-.455-.008-1.224-.016-2.406-.016-4.388 0-13.014.204-21.497 1.57-12.946 1.995-23.658 5.105-23.59 23.009.005 22.727 21.006 22.77 31.099 22.791h.001c6.852-.001 13.173-1.017 17.302-1.874 9.421-2.196 11.827-5.198 11.7-14.596V44.738c.014-5.763.03-12.937-7.375-16.868m-5.172 58.381c-5.014 1.634-10.5 2.46-16.311 2.46v.531l-.008-.53c-9.284-.072-18.352-1.138-18.363-13.025.06-9.455 5.085-10.58 11.447-12.006l.441-.098c5.66-1.214 19.865-1.442 22.796-1.476l-.001 24.144zm117.532-41.513V82.53c.127 9.398-2.28 12.4-11.7 14.596-4.13.857-10.45 1.872-17.303 1.874-10.093-.021-31.094-.064-31.1-22.791-.067-17.904 10.645-21.014 23.59-23.01 8.484-1.365 17.11-1.57 21.497-1.57 1.183 0 1.95.009 2.407.017v-6.382c-.04-4.267-.066-6.845-4.038-8.355-2.449-1.037-6.102-1.513-11.535-1.513-8.958 0-16.978 2.015-22.285 3.348l-2.028.475a3.466 3.466 0 01-.754.127h-.004c-.936 0-1.963-.555-2.339-1.793l-.03-.113-1.198-6.082-.003-.316c.017-1.433 1.05-2.27 2.017-2.582 4.28-1.6 15.59-4.137 27.772-4.142 8.904.003 15.334 1.165 19.66 3.552 7.404 3.931 7.388 11.105 7.374 16.868m-12.545 17.369c-2.931.034-17.137.262-22.797 1.476l-.44.098c-6.362 1.426-11.387 2.551-11.447 12.006.011 11.887 9.079 12.953 18.363 13.024l.008.531v-.53c5.81 0 11.297-.827 16.311-2.461l.002-24.144zm202.719-37.789c-29.248.04-31.728 19.328-31.756 37.408.028 18.013 2.508 37.234 31.756 37.274h.001c29.225-.04 31.717-19.209 31.758-37.276-.03-18.906-2.51-37.366-31.76-37.406m.001 64.13c-17.739-.079-18.63-9.219-18.751-26.719.12-17.596 1.01-26.782 18.75-26.86 17.743.078 18.632 9.264 18.753 26.852-.12 17.508-1.012 26.648-18.752 26.727m-52.489 7.892l-.764.194c-4.09 1.041-9.694 2.466-19.515 2.466h-.022c-27.068-.04-32.38-13.745-32.41-37.406.033-27.138 8.603-37.24 31.622-37.276 8.12 0 13.715 1.054 17.73 2.027l-.024-21.858c-.034-.959.398-2.214 2.659-2.647l7.19-1.84h.391c1.652.041 2.237 1.519 2.24 2.77v82.131c.11 5.186-.497 9.636-9.097 11.439m-3.377-59.476c-2.4-.613-9.101-2.126-16.646-2.126-13.86.127-19.672 3.906-19.817 26.99.163 25.348 7.683 26.718 19.94 26.852l.008.53v-.53c7.629 0 14.174-1.597 16.509-2.243l.006-49.473zm-64.61 60.424h-6.43c-1.723-.003-3.022-1.309-3.026-3.037V45.527c-.116-8.242-2.57-10.534-11.412-10.658-10.004 0-20.13 2.52-23.469 3.433V94.25c-.003 1.759-1.22 3.036-2.893 3.038h-6.56c-1.724-.003-3.025-1.309-3.027-3.037v-54.65c-.096-5.057.378-8.554 7.546-10.883 6.863-2.379 19.998-4.395 28.673-4.4 16.535.021 23.598 6.009 23.62 20.024V94.25c-.002 1.73-1.302 3.036-3.022 3.038m-145.641 1.317h.006c3.695-.073 6.428-.806 7.499-2.012.38-.428.555-.922.508-1.409-.025-.4-.025-.4-1.04-5.167l-.023-.114c-.22-1.247-1.106-1.813-1.836-1.813-.069 0-.136.004-.1.009 0 0-.928-.046-1.844-.046h-.01c-2.633-.084-4.816-.468-4.861-4.338V2.772c-.003-1.35-.814-2.735-2.37-2.772l-.46.004-7.201 1.852c-1.227.127-2.504 1.002-2.45 2.629V83.98c.014 9.414 5.048 14.608 14.176 14.625h.006zM171.41 97.288h-51.597c-1.723-.003-3.023-1.309-3.026-3.037V87.93c-.036-1.55.459-2.24 1.41-3.422l41.069-47.925h-40.24c-1.723-.004-3.024-1.31-3.026-3.037v-4.478c.003-1.728 1.303-3.033 3.025-3.036h52.122c1.722.003 3.023 1.308 3.026 3.036v6.453c.025 1.166-.378 2.156-1.305 3.193l-41.173 48.022h39.714c1.723.005 3.023 1.31 3.026 3.038v4.477c-.003 1.73-1.303 3.036-3.025 3.038" fill="#FFF"/><path d="M13.077 18C4.152 18-.438 42.488.04 65.478c-.012-.003-.027.004-.04 0C.477 85.658 4.918 105 13.722 105 47.507 105 86 72.986 86 61.51c0-2.87-2.91-8.395-6.81-12.755-.006.003-.016-.003-.02 0-.266-.31-.547-.618-.827-.932C66.308 34.331 41.34 18 13.077 18z" fill="url(#a)"/><path d="M.033 65.82c25.01 6.033 51.71-.76 77.576-16.596l.391-.24a62.196 62.196 0 00-.804-.942C65.338 34.452 40.724 18 12.879 18 4.085 18-.438 42.663.033 65.82" fill="url(#b)"/><path d="M0 65.645C.477 85.735 4.92 105 13.724 105 47.51 105 86 73.135 86 61.71c0-2.858-2.921-8.369-6.821-12.71C52.787 64.835 25.526 71.65 0 65.645" fill="url(#c)"/></g></svg>
