<?xml version="1.0" encoding="UTF-8"?>
<svg width="168px" height="48px" viewBox="0 0 168 48" version="1.1" xmlns="http://www.w3.org/2000/svg" xmlns:xlink="http://www.w3.org/1999/xlink">
    <!-- Generator: Sketch 42 (36781) - http://www.bohemiancoding.com/sketch -->
    <title>zinsgold-r-g-b</title>
    <desc>Created with Sketch.</desc>
    <defs></defs>
    <g id="Page-1" stroke="none" stroke-width="1" fill="none" fill-rule="evenodd">
        <g id="projects---with-space" transform="translate(-513.000000, -539.000000)" fill="#FFFFFF">
            <g id="zinsgold" transform="translate(426.000000, 491.000000)">
                <g id="zinsgold-r-g-b" transform="translate(87.000000, 48.000000)">
                    <g id="9C9458F7-00E3-4822-A989-AFEA4F527EDB">
                        <g id="Desktop">
                            <g id="D_01-Home">
                                <g id="Footer">
                                    <g id="Zinsgold-RGB-Negative">
                                        <g id="Layer_1">
                                            <g id="Group">
                                                <g id="Shape" transform="translate(13.134435, 10.254051)">
                                                    <g id="Group" transform="translate(42.843276, 0.000000)">
                                                        <polygon id="Shape" points="0.140726089 20.6816319 8.24029432 8.70805556 1.03199132 8.70805556 1.03199132 6.56259259 11.5395393 6.56259259 11.5395393 7.9666088 3.43997106 19.9401852 11.789719 19.9401852 11.789719 22.0856481 0.140726089 22.0856481"></polygon>
                                                        <path d="M16.5274973,3.39172453 C16.0271379,3.39172453 15.5893234,3.23396991 15.2453263,2.91846064 C14.9013292,2.60295139 14.7293306,2.19278936 14.7293306,1.70375 C14.7293306,1.19893519 14.9013292,0.788773148 15.2453263,0.473263889 C15.5893234,0.173530092 16.0271379,0.015775463 16.5274973,0.015775463 C17.0278568,0.015775463 17.4656713,0.173530092 17.8096684,0.473263889 C18.1536655,0.788773148 18.325664,1.19893519 18.325664,1.70375 C18.325664,2.19278936 18.1536655,2.60295139 17.8096684,2.91846064 C17.450035,3.23396991 17.0278568,3.39172453 16.5274973,3.39172453 L16.5274973,3.39172453 Z M15.1984176,6.57836806 L17.7940321,6.57836806 L17.7940321,22.0856481 L15.1984176,22.0856481 L15.1984176,6.57836806 L15.1984176,6.57836806 Z" id="Shape"></path>
                                                        <path d="M22.969625,6.57836806 L25.127425,6.57836806 L25.3463322,8.8184838 L25.4401496,8.8184838 C26.1750525,8.07703703 26.9568641,7.44601852 27.7699482,6.95697917 C28.5830323,6.45216436 29.5212062,6.19975694 30.6001062,6.19975694 C32.2262744,6.19975694 33.414628,6.70457176 34.1651671,7.72997686 C34.9157063,8.75538194 35.2909759,10.2698264 35.2909759,12.2575347 L35.2909759,22.0856481 L32.6953613,22.0856481 L32.6953613,12.6045949 C32.6953613,11.1374769 32.4608178,10.0805208 31.9917309,9.43372686 C31.5226439,8.78693287 30.787741,8.45564814 29.7713859,8.45564814 C28.9739381,8.45564814 28.2703076,8.66072917 27.6448584,9.05511574 C27.0350453,9.46527778 26.3314149,10.0489699 25.5496033,10.8377431 L25.5496033,22.0856481 L22.9539887,22.0856481 L22.9539887,6.57836806 L22.969625,6.57836806 Z" id="Shape"></path>
                                                        <path d="M39.8723919,18.5834953 C40.5447498,19.1356366 41.2327441,19.5773495 41.9363745,19.9244097 C42.6400049,20.2714699 43.453089,20.4292245 44.3912629,20.4292245 C45.407618,20.4292245 46.1581572,20.1925926 46.6741528,19.7193287 C47.1901485,19.2460648 47.4403282,18.6781481 47.4403282,17.9998033 C47.4403282,17.5896412 47.3308746,17.2425811 47.1276036,16.9428472 C46.9243325,16.6431134 46.6428804,16.3907061 46.3145195,16.1540741 C45.9861586,15.9332176 45.610889,15.7281366 45.1887108,15.5703819 C44.7665325,15.3968519 44.3443542,15.2233217 43.922176,15.0655672 C43.3749079,14.8762616 42.8276397,14.6554051 42.2803716,14.4187731 C41.7331035,14.1821412 41.2483803,13.8824074 40.8105658,13.5195717 C40.3727513,13.1725116 40.0287542,12.7623495 39.747302,12.2890856 C39.4658498,11.8158217 39.34076,11.2636806 39.34076,10.6011111 C39.34076,9.98586806 39.4658498,9.40217592 39.7003933,8.86581019 C39.950573,8.32944444 40.2945701,7.85618056 40.7480209,7.46179398 C41.2014716,7.06740741 41.7487397,6.75189814 42.4054615,6.53104167 C43.0621832,6.31018519 43.7970861,6.19975694 44.6258064,6.19975694 C45.5952528,6.19975694 46.486518,6.37328703 47.2996021,6.70457176 C48.1126862,7.05163194 48.8163166,7.46179398 49.4104935,7.95083333 L48.1752311,9.60725694 C47.6435992,9.19709491 47.0963311,8.86581019 46.5334267,8.61340278 C45.9705224,8.36099537 45.3450731,8.23479167 44.6727151,8.23479167 C43.7032687,8.23479167 42.9840021,8.45564814 42.5305513,8.89736111 C42.0771006,9.33907408 41.8425571,9.85966436 41.8425571,10.4591319 C41.8425571,10.8219676 41.9363745,11.1374769 42.1240093,11.4056597 C42.3116441,11.6738426 42.5618238,11.9104745 42.8901847,12.1155556 C43.2185455,12.3206366 43.5781789,12.4941667 43.9847209,12.6519213 C44.3912629,12.8096759 44.8290774,12.9832061 45.2668919,13.1409606 C45.8141601,13.3618172 46.3614282,13.5826736 46.9243325,13.8193056 C47.4872369,14.0559375 47.9875963,14.3398958 48.4254108,14.7027314 C48.8632253,15.0497917 49.2384949,15.4915047 49.5199471,15.9963194 C49.8013993,16.5011342 49.9421253,17.1163773 49.9421253,17.8420486 C49.9421253,18.4730672 49.8170355,19.0725347 49.582492,19.6246759 C49.3323123,20.1768172 48.9883152,20.6658564 48.503592,21.0917939 C48.034505,21.5177314 47.4403282,21.8490162 46.7366978,22.1014236 C46.0330673,22.3538311 45.2199832,22.4642592 44.3130818,22.4642592 C43.2185455,22.4642592 42.170918,22.2591783 41.1858354,21.8647917 C40.2007527,21.4546297 39.3251237,20.9498148 38.5902208,20.3345717 L39.8723919,18.5834953 L39.8723919,18.5834953 Z" id="Shape"></path>
                                                        <path d="M54.2733616,26.0452894 L55.4773515,24.3099884 C56.7438863,25.8244328 58.2762371,26.3923495 60.4809458,26.3923495 C63.0296516,26.3923495 65.4532676,25.146088 65.4532676,21.8647917 L65.4532676,19.5142477 C64.3118226,21.0917939 62.4354748,22.2749537 60.2620385,22.2749537 C56.2591631,22.2749537 53.4133689,19.2618403 53.4133689,14.2452431 C53.4133689,9.27597222 56.2122544,6.18398148 60.2620385,6.18398148 C62.3260212,6.18398148 64.202369,7.20938658 65.4532676,8.91313658 L65.4532676,6.56259259 L67.8456111,6.56259259 L67.8456111,21.8490162 C67.8456111,26.7709606 64.2492777,28.3642824 60.496582,28.3642824 C57.9009675,28.3800578 56.118437,27.8752431 54.2733616,26.0452894 L54.2733616,26.0452894 Z M65.4532676,17.6211922 L65.4532676,10.8061922 C64.5932748,9.4968287 62.7481994,8.32944444 60.8718516,8.32944444 C57.7602414,8.32944444 55.8995298,10.8061922 55.8995298,14.2452431 C55.8995298,17.6527431 57.7446052,20.1294908 60.8718516,20.1294908 C62.7481994,20.1294908 64.5932748,18.9778819 65.4532676,17.6211922 L65.4532676,17.6211922 Z" id="Shape"></path>
                                                        <path d="M71.7233967,14.3241203 C71.7233967,9.82811342 74.6473721,6.19975694 79.3382417,6.19975694 C84.0134751,6.19975694 86.9530867,9.82811342 86.9530867,14.3241203 C86.9530867,18.8201273 84.0291113,22.4800347 79.3382417,22.4800347 C74.6473721,22.4800347 71.7233967,18.8201273 71.7233967,14.3241203 L71.7233967,14.3241203 Z M84.4200171,14.3241203 C84.4200171,11.1848033 82.6062142,8.34521991 79.3226055,8.34521991 C76.0389967,8.34521991 74.2251938,11.1690278 74.2251938,14.3241203 C74.2251938,17.5107639 76.0389967,20.3345717 79.3226055,20.3345717 C82.6062142,20.3187963 84.4200171,17.4949884 84.4200171,14.3241203 L84.4200171,14.3241203 Z" id="Shape"></path>
                                                        <polygon id="Shape" points="90.8308723 22.0856481 90.8308723 0.662569444 93.2232158 0.662569444 93.2232158 22.0856481"></polygon>
                                                        <path d="M109.125264,22.0856481 L109.125264,19.7666551 C107.983819,21.3442014 106.107471,22.4642592 103.934035,22.4642592 C99.9311594,22.4642592 97.0853651,19.3880439 97.0853651,14.3398958 C97.0853651,9.35484953 99.9155231,6.18398148 103.934035,6.18398148 C105.998017,6.18398148 107.874365,7.20938658 109.125264,8.91313658 L109.125264,0.662569444 L111.517607,0.662569444 L111.517607,22.0856481 L109.125264,22.0856481 L109.125264,22.0856481 Z M109.125264,17.8578241 L109.125264,10.8535186 C108.296544,9.51260417 106.420196,8.34521991 104.543848,8.34521991 C101.432238,8.34521991 99.571526,10.9166203 99.571526,14.3556713 C99.571526,17.7947222 101.416601,20.3345717 104.543848,20.3345717 C106.420196,20.3187963 108.296544,19.1987384 109.125264,17.8578241 L109.125264,17.8578241 Z" id="Shape"></path>
                                                    </g>
                                                    <g id="Group" transform="translate(0.000000, 1.893056)">
                                                        <path d="M14.4478785,2.33476852 L0.515995659,21.7701389 C2.5330696,22.8428703 5.1130479,22.2434028 6.48903632,20.1925926 L6.48903632,20.1925926 L20.4365554,0.757222222 C18.4038452,-0.315509259 15.8238669,0.410162037 14.4478785,2.33476852 L14.4478785,2.33476852 Z" id="Shape"></path>
                                                        <path d="M14.6824219,15.775463 L14.6824219,15.775463 L9.92900739,22.4327083 C11.9460813,23.5054398 14.5260596,22.9059722 15.9176843,20.9813658 L20.6710988,14.3241203 C18.6383887,13.2513889 16.0584104,13.8508564 14.6824219,15.775463 L14.6824219,15.775463 Z" id="Shape"></path>
                                                        <path d="M4.84723195,2.05081019 L0.0938173926,8.70805556 C2.11089133,9.78078703 4.69086963,9.18131944 6.08249429,7.25671297 L10.8359088,0.599467592 C8.80319867,-0.473263889 6.22322038,0.126203703 4.84723195,2.05081019 L4.84723195,2.05081019 Z" id="Shape"></path>
                                                    </g>
                                                </g>
                                                <path d="M23.5638018,47.3106134 C10.6482741,47.3106134 0.125089857,36.7095023 0.125089857,23.6631944 C0.125089857,10.6168866 10.6326378,0.015775463 23.5638018,0.015775463 C36.4949657,0.015775463 47.0025137,10.632662 47.0025137,23.6631944 C47.0025137,36.6937269 36.4793295,47.3106134 23.5638018,47.3106134 L23.5638018,47.3106134 Z M23.5638018,2.69760417 C12.1024436,2.69760417 2.78324931,12.0997801 2.78324931,23.6631944 C2.78324931,35.2266088 12.1024436,44.6287847 23.5638018,44.6287847 C35.0251599,44.6287847 44.3443542,35.2266088 44.3443542,23.6631944 C44.3443542,12.0997801 35.0251599,2.69760417 23.5638018,2.69760417 L23.5638018,2.69760417 Z" id="Shape"></path>
                                            </g>
                                        </g>
                                    </g>
                                </g>
                            </g>
                        </g>
                    </g>
                </g>
            </g>
        </g>
    </g>
</svg>